<svg fill="#F9F4DA" height="800" width="800" xmlns="http://www.w3.org/2000/svg" viewBox="-1.92 -1.92 27.84 27.84" xml:space="preserve"><path d="M22 24H5.5c-1.8 0-3.2-1.3-3.5-3h0V3.5C2 1.6 3.6 0 5.5 0H22v19h-1.5c-.8 0-1.5.7-1.5 1.5s.7 1.5 1.5 1.5H22v2zM5.5 19c-.8 0-1.5.7-1.5 1.5S4.7 22 5.5 22h11.8c-.2-.5-.3-1-.3-1.5s.1-1 .3-1.5H5.5zm0-17C4.7 2 4 2.7 4 3.5v13.8c.5-.2 1-.3 1.5-.3H20V2h-3v10.9l-4-2.7-4 2.7V2H5.5zM13 7.8l2 1.3V2h-4v7.1l2-1.3z" stroke-linecap="round" stroke-linejoin="round" stroke="#121111" stroke-width=".48"/><path d="M22 24H5.5c-1.8 0-3.2-1.3-3.5-3V3.5C2 1.6 3.6 0 5.5 0H22v19h-1.5c-.8 0-1.5.7-1.5 1.5s.7 1.5 1.5 1.5H22v2zM5.5 19c-.8 0-1.5.7-1.5 1.5S4.7 22 5.5 22h11.8c-.2-.5-.3-1-.3-1.5s.1-1 .3-1.5H5.5zm0-17C4.7 2 4 2.7 4 3.5v13.8c.5-.2 1-.3 1.5-.3H20V2h-3v10.9l-4-2.7-4 2.7V2H5.5zM13 7.8l2 1.3V2h-4v7.1l2-1.3z"/></svg>