<svg width="445" height="296" viewBox="0 0 445 296" fill="none" xmlns="http://www.w3.org/2000/svg">
<mask id="mask0_207_295" style="mask-type:alpha" maskUnits="userSpaceOnUse" x="0" y="0" width="445" height="296">
<rect width="445" height="296" rx="12" fill="url(#paint0_linear_207_295)"/>
</mask>
<g mask="url(#mask0_207_295)">
<path opacity="0.4" d="M247 356.5C253.627 356.5 259.032 351.124 258.692 344.505C257.325 317.94 251.428 291.773 241.226 267.143C229.491 238.814 212.292 213.073 190.609 191.391C168.927 169.708 143.186 152.509 114.857 140.774C86.527 129.04 56.1636 123 25.5 123C-5.16367 123 -35.5271 129.04 -63.8566 140.774C-92.1861 152.509 -117.927 169.708 -139.609 191.391C-161.292 213.073 -178.491 238.814 -190.226 267.143C-200.428 291.773 -206.325 317.94 -207.692 344.505C-208.032 351.124 -202.627 356.5 -196 356.5L25.5 356.5H247Z" fill="url(#paint1_linear_207_295)"/>
<path opacity="0.4" d="M287 356.5C293.627 356.5 299.027 351.125 298.737 344.504C297.34 312.683 290.393 281.319 278.181 251.836C264.436 218.654 244.291 188.503 218.894 163.106C193.497 137.709 163.346 117.564 130.164 103.819C96.9814 90.0743 61.4165 83 25.5 83C-10.4165 83 -45.9814 90.0743 -79.1639 103.819C-112.346 117.564 -142.497 137.709 -167.894 163.106C-193.291 188.503 -213.436 218.654 -227.181 251.836C-239.393 281.319 -246.34 312.683 -247.737 344.504C-248.027 351.125 -242.627 356.5 -236 356.5L25.5 356.5H287Z" fill="url(#paint2_linear_207_295)"/>
</g>
<defs>
<linearGradient id="paint0_linear_207_295" x1="222.5" y1="0" x2="222.5" y2="296" gradientUnits="userSpaceOnUse">
<stop stop-color="#1C4CF7"/>
<stop offset="1" stop-color="#B7F9FD"/>
</linearGradient>
<linearGradient id="paint1_linear_207_295" x1="25.5" y1="123" x2="25.5" y2="590" gradientUnits="userSpaceOnUse">
<stop stop-color="#1FE4FF" stop-opacity="0.65"/>
<stop offset="0.613" stop-color="#4CE4F9" stop-opacity="0.63"/>
</linearGradient>
<linearGradient id="paint2_linear_207_295" x1="25.5" y1="83" x2="25.5" y2="630" gradientUnits="userSpaceOnUse">
<stop stop-color="#1FE4FF" stop-opacity="0.65"/>
<stop offset="0.613" stop-color="#4CE4F9" stop-opacity="0.63"/>
</linearGradient>
</defs>
</svg>
