<?xml version="1.0" standalone="no"?>
<svg xmlns:xlink="http://www.w3.org/1999/xlink" id="wave" style="transform:rotate(0deg); transition: 0.3s" viewBox="0 0 1440 100" version="1.1" xmlns="http://www.w3.org/2000/svg"><defs><linearGradient id="sw-gradient-0" x1="0" x2="0" y1="1" y2="0"><stop stop-color="rgba(243, 106, 62, 1)" offset="0%"/><stop stop-color="rgba(255, 179, 11, 1)" offset="100%"/></linearGradient></defs><path style="transform:translate(0, 0px); opacity:1" fill="url(#sw-gradient-0)" d="M0,0L30,11.7C60,23,120,47,180,46.7C240,47,300,23,360,11.7C420,0,480,0,540,11.7C600,23,660,47,720,61.7C780,77,840,83,900,71.7C960,60,1020,30,1080,25C1140,20,1200,40,1260,40C1320,40,1380,20,1440,23.3C1500,27,1560,53,1620,53.3C1680,53,1740,27,1800,20C1860,13,1920,27,1980,28.3C2040,30,2100,20,2160,16.7C2220,13,2280,17,2340,23.3C2400,30,2460,40,2520,43.3C2580,47,2640,43,2700,41.7C2760,40,2820,40,2880,35C2940,30,3000,20,3060,21.7C3120,23,3180,37,3240,43.3C3300,50,3360,50,3420,45C3480,40,3540,30,3600,21.7C3660,13,3720,7,3780,16.7C3840,27,3900,53,3960,53.3C4020,53,4080,27,4140,18.3C4200,10,4260,20,4290,25L4320,30L4320,100L4290,100C4260,100,4200,100,4140,100C4080,100,4020,100,3960,100C3900,100,3840,100,3780,100C3720,100,3660,100,3600,100C3540,100,3480,100,3420,100C3360,100,3300,100,3240,100C3180,100,3120,100,3060,100C3000,100,2940,100,2880,100C2820,100,2760,100,2700,100C2640,100,2580,100,2520,100C2460,100,2400,100,2340,100C2280,100,2220,100,2160,100C2100,100,2040,100,1980,100C1920,100,1860,100,1800,100C1740,100,1680,100,1620,100C1560,100,1500,100,1440,100C1380,100,1320,100,1260,100C1200,100,1140,100,1080,100C1020,100,960,100,900,100C840,100,780,100,720,100C660,100,600,100,540,100C480,100,420,100,360,100C300,100,240,100,180,100C120,100,60,100,30,100L0,100Z"/></svg>