<?xml version="1.0" standalone="no"?>
<svg xmlns:xlink="http://www.w3.org/1999/xlink" id="wave" style="transform:rotate(0deg); transition: 0.3s" viewBox="0 0 1440 100" version="1.1" xmlns="http://www.w3.org/2000/svg"><defs><linearGradient id="sw-gradient-0" x1="0" x2="0" y1="1" y2="0"><stop stop-color="rgba(255, 255, 255, 1)" offset="0%"/><stop stop-color="rgba(255, 255, 255, 1)" offset="100%"/></linearGradient></defs><path style="transform:translate(0, 0px); opacity:1" fill="url(#sw-gradient-0)" d="M0,80L12,81.7C24,83,48,87,72,75C96,63,120,37,144,36.7C168,37,192,63,216,75C240,87,264,83,288,78.3C312,73,336,67,360,65C384,63,408,67,432,68.3C456,70,480,70,504,73.3C528,77,552,83,576,71.7C600,60,624,30,648,18.3C672,7,696,13,720,25C744,37,768,53,792,53.3C816,53,840,37,864,35C888,33,912,47,936,45C960,43,984,27,1008,18.3C1032,10,1056,10,1080,13.3C1104,17,1128,23,1152,26.7C1176,30,1200,30,1224,28.3C1248,27,1272,23,1296,21.7C1320,20,1344,20,1368,26.7C1392,33,1416,47,1440,58.3C1464,70,1488,80,1512,76.7C1536,73,1560,57,1584,53.3C1608,50,1632,60,1656,60C1680,60,1704,50,1716,45L1728,40L1728,100L1716,100C1704,100,1680,100,1656,100C1632,100,1608,100,1584,100C1560,100,1536,100,1512,100C1488,100,1464,100,1440,100C1416,100,1392,100,1368,100C1344,100,1320,100,1296,100C1272,100,1248,100,1224,100C1200,100,1176,100,1152,100C1128,100,1104,100,1080,100C1056,100,1032,100,1008,100C984,100,960,100,936,100C912,100,888,100,864,100C840,100,816,100,792,100C768,100,744,100,720,100C696,100,672,100,648,100C624,100,600,100,576,100C552,100,528,100,504,100C480,100,456,100,432,100C408,100,384,100,360,100C336,100,312,100,288,100C264,100,240,100,216,100C192,100,168,100,144,100C120,100,96,100,72,100C48,100,24,100,12,100L0,100Z"/></svg>