<svg width="20" height="14" viewBox="0 0 20 14" fill="none" xmlns="http://www.w3.org/2000/svg">
<path d="M19.4333 3.02085C19.4333 3.02085 19.2452 1.64843 18.6663 1.04582C17.9331 0.252709 17.1135 0.248823 16.7375 0.202168C14.0455 -3.8743e-07 10.0038 0 10.0038 0H9.99624C9.99624 0 5.95452 -3.8743e-07 3.2625 0.202168C2.88652 0.248823 2.06689 0.252709 1.33374 1.04582C0.754732 1.64843 0.57051 3.02085 0.57051 3.02085C0.57051 3.02085 0.375 4.63426 0.375 6.24383V7.75233C0.375 9.3618 0.566748 10.9753 0.566748 10.9753C0.566748 10.9753 0.754733 12.3477 1.32998 12.9503C2.06314 13.7434 3.02564 13.7161 3.45425 13.8017C4.99579 13.9534 10 14 10 14C10 14 14.0455 13.9922 16.7375 13.7939C17.1135 13.7473 17.9331 13.7434 18.6663 12.9503C19.2452 12.3477 19.4333 10.9753 19.4333 10.9753C19.4333 10.9753 19.625 9.36574 19.625 7.75233V6.24383C19.625 4.63426 19.4333 3.02085 19.4333 3.02085ZM8.01112 9.58344V3.98886L13.2108 6.79586L8.01112 9.58344Z" fill="white"/>
</svg>
