<?xml version="1.0" standalone="no"?>
<!DOCTYPE svg PUBLIC "-//W3C//DTD SVG 1.1//EN" "http://www.w3.org/Graphics/SVG/1.1/DTD/svg11.dtd">
<svg xmlns="http://www.w3.org/2000/svg">
<defs >
<font id="Comme" horiz-adv-x="1211" ><font-face
    font-family="Comme ExtraBold"
    units-per-em="2048"
    panose-1="0 0 0 0 0 0 0 0 0 0"
    ascent="1957"
    descent="-501"
    alphabetic="0" />
<glyph unicode=" " horiz-adv-x="619" />
<glyph unicode="!" horiz-adv-x="766" d="M285 485L213 1319V1569H542V1319L478 485H285ZM379 -7Q310 -7 262 43T214 161Q214 231 262 279T379 328Q448 328 494 280T541 161Q541 93 495 43T379 -7Z" />
<glyph unicode="&quot;" horiz-adv-x="874" d="M590 906L493 1559H799L750 906H590ZM184 906L87 1559H392L344 906H184Z" />
<glyph unicode="#" horiz-adv-x="1108" d="M152 2L230 440H63L83 573H253L317 944H126L144 1082H340L405 1461H583L516 1082H731L795 1461H977L910 1082H1056L1036 944H886L825 573H975L958 440H801L721 2H542L620 440H405L328 2H152ZM431 573H643L706 944H494L431 573Z" />
<glyph unicode="$" horiz-adv-x="1228" d="M537 -279V58H698L711 -279H537ZM527 1436L525 1772H690V1436H527ZM632 -20Q485 -20 376 18T195 119T93 254L326 409H359Q388 330 459 291T602 252Q674 252 725 286T777 395Q777 434 765 462T714 517T598 575L373 666Q295
698 235 745T141 867T107 1053Q107 1166 148 1246T261 1378T426 1454T623 1478Q771 1478 875 1436T1043 1328T1127 1191L871 1076H846Q823 1152 767 1188T647 1225Q605 1225 569 1210T509 1163T486 1083Q486 1043 503 1016T559 967T662 920L831 851Q935 810 1010
759T1126 628T1167 416Q1167 310 1128 229T1016 93T847 9T632 -20Z" />
<glyph unicode="%" horiz-adv-x="2251" d="M591 0L1446 1529H1691L842 0H591ZM531 720Q405 720 312 775T169 925T118 1136Q118 1253 169 1346T313 1494T531 1549Q657 1549 753 1496T904 1348T958 1136Q958 1020 903 926T752 776T531 720ZM536 917Q592 917 635
947T703 1028T728 1141Q728 1237 674 1298T536 1359Q479 1359 434 1330T363 1252T337 1141Q337 1078 363 1028T434 947T536 917ZM1755 -39Q1629 -39 1533 16T1383 167T1329 379Q1329 495 1384 588T1535 735T1755 789Q1881 789 1977 736T2128 591T2182 379Q2182
262 2127 167T1976 17T1755 -39ZM1760 160Q1816 160 1859 190T1927 270T1952 382Q1952 478 1898 539T1760 601Q1703 601 1658 572T1587 493T1561 382Q1561 320 1587 270T1658 190T1760 160Z" />
<glyph unicode="&amp;" horiz-adv-x="1414" d="M1176 -42L1029 127Q946 62 846 24T618 -15Q532 -15 440 11T267 91T136 228T86 424Q86 520 120 594T205 724T309 820T398 889Q373 909 336 953T269 1059T239 1191Q239 1320 300 1401T457 1520T658 1558Q723 1558
794 1542T926 1490T1026 1394T1064 1246Q1064 1163 1022 1089T910 956T755 860L1058 513Q1110 583 1155 657T1241 806L1442 663Q1417 622 1381 563T1304 442T1221 326L1393 128L1176 -42ZM617 227Q682 227 743 250T865 317L548 686Q518 662 482 629T419 551T393
442Q393 367 424 320T506 250T617 227ZM634 1018Q666 1035 698 1070T751 1149T772 1233Q772 1293 740 1314T660 1335Q619 1335 585 1308T550 1214Q550 1185 557 1156T582 1092T634 1018Z" />
<glyph unicode="&apos;" horiz-adv-x="642" d="M240 904L144 1557H449L401 904H240Z" />
<glyph unicode="(" horiz-adv-x="914" d="M720 -320H430Q376 -263 325 -160T231 76T164 352T139 638Q139 780 164 925T231 1203T325 1438T430 1598H720V1555Q676 1520 626 1451T532 1271T461 1005T433 638Q433 428 460 270T531 0T625 -183T720 -291V-320Z" />
<glyph unicode=")" horiz-adv-x="947" d="M162 -320V-291Q206 -255 256 -184T349 0T421 270T449 638Q449 848 421 1004T350 1271T256 1450T162 1555V1598H451Q504 1541 556 1438T650 1203T717 926T742 638Q742 497 717 353T650 76T557 -159T451 -320H162Z" />
<glyph unicode="*" horiz-adv-x="1051" d="M360 472L125 603L367 923L23 1004L96 1261L433 1113L399 1524H655L623 1113L963 1261L1038 1004L689 923L930 603L701 470L527 805L360 472Z" />
<glyph unicode="+" horiz-adv-x="1000" d="M374 174V561H8V791H375V1171H626V791H993V561H625V174H374Z" />
<glyph unicode="," horiz-adv-x="682" d="M184 -351L221 282H522V102Q509 57 497 12T473 -79T449 -169T424 -260T398 -351H184Z" />
<glyph unicode="-" horiz-adv-x="964" d="M142 423V645H831V423H142Z" />
<glyph unicode="." horiz-adv-x="738" d="M362 -6Q293 -6 241 33T189 157Q189 243 240 284T362 326Q434 326 485 285T536 157Q536 75 485 35T362 -6Z" />
<glyph unicode="/" horiz-adv-x="1023" d="M55 -185L706 1560H928L273 -185H55Z" />
<glyph unicode="0" horiz-adv-x="1383" d="M692 -20Q503 -20 366 71T154 331T79 730Q79 959 153 1126T365 1385T692 1476Q881 1476 1018 1385T1229 1127T1304 730Q1304 500 1230 332T1019 72T692 -20ZM692 256Q755 256 801 313T872 476T897 730Q897 839 883 926T843
1074T778 1167T692 1199Q631 1199 584 1142T511 980T485 730Q485 620 499 532T541 383T606 289T692 256Z" />
<glyph unicode="1" horiz-adv-x="1383" d="M193 0V256H564V1131Q510 1107 445 1084T314 1045T193 1021V1264Q245 1280 303 1300T421 1345T532 1399T622 1456H960V256H1286V0H193Z" />
<glyph unicode="2" horiz-adv-x="1383" d="M244 0L186 244L728 777Q772 821 801 861T844 940T858 1019Q858 1060 845 1094T807 1152T748 1190T672 1203Q572 1203 475 1152T310 1021H284L113 1200Q168 1267 249 1330T438 1435T675 1476Q828 1476 930 1435T1092
1327T1178 1177T1204 1012Q1204 945 1178 875T1093 725T933 550L620 254H1194L1184 0H244Z" />
<glyph unicode="3" horiz-adv-x="1224" d="M555 -20Q447 -20 352 6T182 80T56 188L199 378H226Q253 351 297 322T399 272T524 252Q629 252 676 302T724 433Q724 494 701 531T635 587T533 613T399 620H307L286 835L395 837Q474 837 532 845T629 875T687 938T706
1042Q706 1097 684 1131T619 1182T514 1199Q440 1199 377 1170T253 1080L232 1086L70 1265Q108 1313 173 1361T331 1443T540 1476Q690 1476 810 1438T1001 1315T1072 1095Q1072 1028 1051 958T968 832T784 754Q909 738 981 685T1084 560T1114 418Q1114 296 1065
212T933 77T753 3T555 -20Z" />
<glyph unicode="4" horiz-adv-x="1383" d="M695 0V323H108L91 544L631 1456H1083V564H1301L1286 323H1083V0H695ZM371 559H695V1108L371 559Z" />
<glyph unicode="5" horiz-adv-x="1383" d="M697 -20Q565 -20 466 6T294 83T168 209L343 410H363Q395 355 444 323T549 276T655 261Q729 261 778 289T852 368T877 483Q877 547 855 598T787 681T674 712Q596 712 551 682T490 590L209 641L273 1456H1150L1116 1204H571L528
887Q570 922 624 940T766 959Q883 959 971 918T1117 808T1204 655T1233 486Q1233 347 1169 232T985 49T697 -20Z" />
<glyph unicode="6" horiz-adv-x="1383" d="M687 -20Q554 -20 451 15T275 116T166 271T128 468Q128 555 147 625T200 759T280 889L672 1456H1081V1424Q971 1282 863 1138T639 857Q674 874 716 886T806 898Q883 898 961 873T1104 793T1208 654T1247 448Q1247 310
1181 205T989 40T687 -20ZM688 233Q746 233 788 260T852 339T875 459Q875 532 853 586T788 668T688 697Q647 697 612 681T552 634T514 559T500 459Q500 390 523 340T588 261T688 233Z" />
<glyph unicode="7" horiz-adv-x="1383" d="M319 0L810 1192H194L185 1456H1206L1212 1185L721 0H319Z" />
<glyph unicode="8" horiz-adv-x="1383" d="M696 -20Q520 -20 395 29T204 170T137 392Q137 536 202 637T381 779Q281 814 222 895T163 1111Q163 1230 233 1311T423 1434T693 1476Q845 1476 964 1435T1153 1312T1222 1111Q1222 981 1168 900T1017 780Q1125 739 1185
639T1246 392Q1246 262 1182 170T995 29T696 -20ZM696 210Q784 210 821 258T859 406Q859 510 815 585T696 686Q646 669 609 629T550 532T528 405Q528 306 569 258T696 210ZM696 838Q774 873 816 941T859 1091Q859 1166 816 1208T696 1251Q619 1251 573 1208T526
1091Q526 1008 572 941T696 838Z" />
<glyph unicode="9" horiz-adv-x="1383" d="M325 0V32L608 420L751 595Q716 580 674 569T588 558Q512 558 434 583T291 663T187 804T148 1009Q148 1148 215 1253T407 1417T707 1476Q840 1476 944 1441T1120 1340T1230 1185T1267 988Q1267 902 1248 831T1195 697T1114
567L718 0H325ZM706 759Q748 759 782 775T841 822T879 897T893 997Q893 1066 871 1116T806 1195T705 1223Q648 1223 606 1196T541 1117T518 997Q518 888 568 824T706 759Z" />
<glyph unicode=":" horiz-adv-x="709" d="M362 785Q293 785 241 824T188 948Q188 1034 239 1075T362 1117Q434 1117 485 1076T537 948Q537 866 486 826T362 785ZM362 -6Q293 -6 241 33T188 157Q188 243 239 284T362 326Q434 326 485 285T537 157Q537 75 486 35T362 -6Z" />
<glyph unicode=";" horiz-adv-x="766" d="M202 -351L239 282H540V102Q527 57 515 12T490 -79T466 -169T441 -260T416 -351H202ZM384 785Q315 785 263 824T210 948Q210 1033 261 1075T384 1117Q457 1117 508 1075T559 948Q559 866 508 826T384 785Z" />
<glyph unicode="&lt;" horiz-adv-x="1000" d="M834 190L166 606V862L834 1293V999L410 738L834 493V190Z" />
<glyph unicode="=" horiz-adv-x="1000" d="M104 334V557H896V334H104ZM104 768V990H896V768H104Z" />
<glyph unicode="&gt;" horiz-adv-x="1000" d="M183 190V493L607 738L183 999V1293L852 862V606L183 190Z" />
<glyph unicode="?" horiz-adv-x="1080" d="M377 481Q373 591 394 673T450 817T519 928T577 1022T601 1116Q601 1167 569 1201T463 1236Q420 1236 375 1227T286 1201T201 1163L114 1412Q167 1465 237 1496T380 1541T512 1556Q625 1556 721 1514T877 1388T936 1182Q936
1085 902 1017T814 895T700 784T586 657T499 481H377ZM442 -20Q367 -20 323 24T279 143Q279 217 323 260T442 304Q515 304 557 261T600 143Q600 69 558 25T442 -20Z" />
<glyph unicode="@" horiz-adv-x="2030" d="M1008 -122Q755 -122 562 -26T260 255T152 702Q152 889 221 1050T414 1334T707 1524T1077 1593Q1252 1593 1403 1540T1669 1386T1847 1149T1911 843Q1911 703 1872 598T1770 421T1629 315T1476 279Q1415 279 1365 305T1280
382T1231 504Q1193 398 1118 334T943 269Q816 269 736 322T619 464T581 659Q581 760 614 857T712 1034T871 1160T1086 1207Q1161 1207 1234 1193T1369 1157T1465 1116Q1451 1008 1435 909T1408 723T1397 573Q1397 517 1419 487T1476 457Q1522 457 1565 500T1637
630T1666 851Q1666 952 1631 1046T1523 1216T1337 1336T1070 1381Q914 1381 792 1325T586 1171T459 952T415 698Q415 528 485 389T688 167T1011 84Q1146 84 1278 110T1516 195L1581 31Q1514 -21 1421 -55T1222 -105T1008 -122ZM961 455Q1020 455 1060 486T1127
589T1169 778L1206 1014Q1182 1018 1152 1020T1102 1023Q1020 1023 961 969T871 826T839 640Q839 544 870 500T961 455Z" />
<glyph unicode="A" horiz-adv-x="1549" d="M56 0L534 1456H1022L1494 0H1103L985 359H558L446 0H56ZM629 595H920L777 1143L629 595Z" />
<glyph unicode="B" horiz-adv-x="1447" d="M612 2Q519 2 408 6T170 20V1452Q242 1455 321 1458T476 1463T613 1466T710 1467Q849 1467 962 1450T1157 1391T1282 1277T1326 1094Q1326 1019 1294 956T1202 847T1055 781Q1216 755 1290 672T1364 434Q1364 329 1332
249T1218 114T989 31T612 2ZM647 251Q735 251 798 259T901 291T959 355T978 462Q978 547 947 587T854 639T703 651H558V254Q581 253 603 252T647 251ZM558 876H709Q774 876 820 892T892 946T918 1043Q918 1124 891 1163T805 1216T651 1229Q630 1229 606 1228T558
1226V876Z" />
<glyph unicode="C" horiz-adv-x="1599" d="M854 -20Q620 -20 454 67T201 323T114 733Q114 969 201 1135T453 1389T852 1478Q988 1478 1089 1447T1262 1365T1381 1253T1454 1132T1491 1023L1206 924H1178Q1161 1007 1125 1072T1028 1176T872 1214Q809 1214 748
1195T638 1124T558 978T528 733Q528 549 572 442T692 288T864 242Q960 242 1023 279T1124 381T1178 530H1206L1491 430Q1479 380 1455 320T1385 201T1269 91T1096 10T854 -20Z" />
<glyph unicode="D" horiz-adv-x="1557" d="M491 -12Q418 -12 338 -8T170 5V1455Q263 1462 348 1464T511 1467Q767 1467 945 1429T1232 1308T1392 1090T1442 759Q1442 587 1396 446T1242 203T951 44T491 -12ZM597 265Q730 265 820 298T965 395T1044 549T1068 754Q1068
843 1054 924T994 1070T855 1172T603 1210Q593 1210 582 1210T558 1207V267Q568 266 578 266T597 265Z" />
<glyph unicode="E" horiz-adv-x="1363" d="M170 0V1456H1216L1196 1200H557V873H1179V617H557V264H1236L1232 0H170Z" />
<glyph unicode="F" horiz-adv-x="1257" d="M170 0V1456H1182L1165 1189H558V843H1137V586H558V0H170Z" />
<glyph unicode="G" horiz-adv-x="1599" d="M841 -20Q619 -20 456 65T203 316T114 726Q114 967 203 1134T455 1390T842 1478Q1018 1478 1140 1431T1340 1302T1456 1117L1197 994H1173Q1148 1049 1112 1099T1019 1181T878 1213Q762 1213 684 1163T567 1006T528 727Q528
580 559 485T642 336T762 262T903 241Q975 241 1033 252T1133 279V560L830 581L839 798H1451V84Q1384 58 1289 34T1079 -5T841 -20Z" />
<glyph unicode="H" horiz-adv-x="1596" d="M170 0V1456H558V873H1038V1456H1426V0H1038V619H558V0H170Z" />
<glyph unicode="I" horiz-adv-x="1055" d="M117 -6V201H337V1248H117V1456H938V1248H724V201H938V-6H117Z" />
<glyph unicode="J" horiz-adv-x="818" d="M73 -588L-62 -290L135 -193Q178 -172 203 -145T240 -69T255 66T259 290V1456H646V82Q646 -31 634 -116T581 -268T461 -393T244 -513L73 -588Z" />
<glyph unicode="K" horiz-adv-x="1457" d="M170 0V1456H558V903L977 1456H1400V1450L888 793L1458 6V0H1025L605 582L558 529V0H170Z" />
<glyph unicode="L" horiz-adv-x="1209" d="M170 0V1456H558V243H1190L1169 0H170Z" />
<glyph unicode="M" horiz-adv-x="1909" d="M152 -6V618L174 1456H566L959 670L1351 1456H1734L1757 626V-6H1392V561L1385 898L1065 239H834L521 897L513 558V-6H152Z" />
<glyph unicode="N" horiz-adv-x="1642" d="M170 0V1456H535L1126 535L1109 912V1456H1471V0H1093L525 878L542 522V0H170Z" />
<glyph unicode="O" horiz-adv-x="1662" d="M833 -22Q605 -22 445 65T199 318T114 723Q114 962 198 1130T443 1388T832 1478Q1061 1478 1221 1389T1464 1131T1548 725Q1548 485 1465 319T1222 65T833 -22ZM833 255Q932 255 998 309T1099 467T1133 722Q1133 872
1099 978T999 1142T833 1199Q736 1199 668 1142T565 979T529 722Q529 571 564 467T667 309T833 255Z" />
<glyph unicode="P" horiz-adv-x="1463" d="M170 0V1452Q280 1459 378 1463T562 1467Q804 1467 965 1440T1221 1356T1355 1212T1395 1005Q1395 883 1359 787T1242 623T1027 522T695 487Q663 487 629 488T558 491V0H170ZM644 736Q800 736 881 770T993 861T1024 987Q1024
1036 1011 1079T958 1155T841 1206T636 1225Q619 1225 600 1224T558 1222V739Q581 737 602 737T644 736Z" />
<glyph unicode="Q" horiz-adv-x="1665" d="M1249 -540Q1207 -505 1156 -453T1051 -339T946 -213T853 -90T782 15T746 88L1089 130Q1118 85 1152 38T1224 -57T1306 -154T1396 -248T1492 -337L1249 -540ZM833 -22Q605 -22 445 65T199 318T114 723Q114 962 198 1130T443
1388T832 1478Q1061 1478 1221 1389T1464 1131T1548 725Q1548 485 1465 319T1222 65T833 -22ZM833 255Q932 255 998 309T1099 467T1133 722Q1133 872 1099 978T999 1142T833 1199Q736 1199 668 1142T565 979T529 722Q529 571 564 467T667 309T833 255Z" />
<glyph unicode="R" horiz-adv-x="1503" d="M171 0V1452Q256 1457 360 1460T565 1465T742 1467Q975 1467 1112 1432T1309 1302T1369 1033Q1369 912 1330 837T1230 720T1104 658L1448 16V0H1026L718 602H559V0H171ZM559 835H755Q849 835 906 853T989 916T1016 1040Q1016
1111 986 1150T899 1205T760 1221Q714 1221 663 1217T559 1209V835Z" />
<glyph unicode="S" horiz-adv-x="1263" d="M632 -20Q485 -20 376 18T195 119T93 254L326 409H359Q388 330 459 291T602 252Q674 252 725 286T777 395Q777 434 765 462T714 517T598 575L373 666Q295 698 235 745T141 867T107 1053Q107 1166 148 1246T261 1378T426
1454T623 1478Q771 1478 875 1436T1043 1328T1127 1191L871 1076H846Q823 1152 767 1188T647 1225Q605 1225 569 1210T509 1163T486 1083Q486 1043 503 1016T559 967T662 920L831 851Q935 810 1010 759T1126 628T1167 416Q1167 310 1128 229T1016 93T847 9T632
-20Z" />
<glyph unicode="T" horiz-adv-x="1285" d="M450 0V1214H44V1456H1241V1214H837V0H450Z" />
<glyph unicode="U" horiz-adv-x="1531" d="M761 -20Q558 -20 420 46T212 235T142 532V1456H529V556Q529 396 589 326T761 256Q878 256 940 327T1002 557V1456H1389V533Q1389 360 1317 237T1105 47T761 -20Z" />
<glyph unicode="V" horiz-adv-x="1377" d="M450 -6L4 1456H379Q416 1319 454 1182T532 909T608 635T681 358Q760 633 840 907T1000 1456H1373L889 -6H450Z" />
<glyph unicode="W" horiz-adv-x="2050" d="M395 0L47 1456H421L605 509L865 1451H1171L1432 503L1628 1456H2002L1624 0H1274L1017 963L748 0H395Z" />
<glyph unicode="X" horiz-adv-x="1426" d="M-12 -6L501 769L43 1456H465L739 1044L998 1456H1414L942 740L1438 -6H1017L702 467L389 -6H-12Z" />
<glyph unicode="Y" horiz-adv-x="1347" d="M479 0V571L-3 1456H406L671 937L943 1456H1350L866 575V0H479Z" />
<glyph unicode="Z" horiz-adv-x="1269" d="M108 0V199L739 1212H133L116 1456H1158L1157 1240L565 243H1175L1190 0H108Z" />
<glyph unicode="[" horiz-adv-x="844" d="M232 -310V1635H678V1399H509V-72H678V-310H232Z" />
<glyph unicode="\" horiz-adv-x="937" d="M565 20L93 1509H357L826 20H565Z" />
<glyph unicode="]" horiz-adv-x="967" d="M232 -310V-72H400V1399H232V1635H678V-310H232Z" />
<glyph unicode="^" horiz-adv-x="1510" d="M109 271L659 1456H815L1401 271H1039L745 909L471 271H109Z" />
<glyph unicode="_" horiz-adv-x="1005" d="M0 -289V-87H1005V-289H0Z" />
<glyph unicode="`" horiz-adv-x="1084" d="M424 1207L83 1616H452L625 1207H424Z" />
<glyph unicode="a" horiz-adv-x="1163" d="M417 -17Q270 -17 177 64T83 305Q83 401 126 464T240 562T393 612T556 627H702V698Q702 780 656 814T531 848Q460 848 370 825T189 765L122 981Q201 1019 281 1046T442 1086T596 1100Q726 1100 830 1053T997 902T1059
631V0H791L753 119Q717 82 670 51T561 2T417 -17ZM538 178Q594 178 636 200T700 247V465H640Q581 465 527 452T440 406T407 310Q407 240 447 209T538 178Z" />
<glyph unicode="b" horiz-adv-x="1282" d="M759 -20Q645 -20 575 29T470 136L461 0H136V1540L499 1560V1151L489 951Q518 1000 559 1033T654 1084T775 1102Q919 1102 1013 1029T1155 830T1202 549Q1202 383 1153 255T1006 53T759 -20ZM673 212Q715 212 751 244T810
351T833 550Q833 678 814 747T762 842T687 869Q640 869 597 845T526 755T498 565V292Q514 271 535 253T589 224T673 212Z" />
<glyph unicode="c" horiz-adv-x="1136" d="M643 -20Q469 -20 343 48T148 242T79 541Q79 714 148 840T344 1034T646 1102Q750 1102 829 1075T968 990T1071 839L874 737H861Q822 806 771 832T657 856Q599 856 550 827T473 729T444 541Q444 420 472 352T547 256T654
226Q717 224 767 249T858 345H871L1068 243Q1025 150 966 93T827 8T643 -20Z" />
<glyph unicode="d" horiz-adv-x="1283" d="M513 -20Q369 -20 274 53T131 251T83 533Q83 699 131 827T276 1029T521 1102Q621 1101 686 1064T789 979L785 1137V1540L1146 1560V0H820L813 155Q774 79 701 30T513 -20ZM608 213Q666 213 712 239T783 311V791Q759 822
722 846T620 871Q589 871 559 858T504 810T464 708T448 533Q448 404 470 335T529 240T608 213Z" />
<glyph unicode="e" horiz-adv-x="1203" d="M664 -20Q486 -20 355 48T151 243T79 542Q79 715 146 840T336 1034T626 1102Q799 1102 903 1035T1056 848T1110 573Q1110 536 1107 508T1102 463T1097 441H442Q451 370 487 319T579 240T706 212Q788 212 863 236T1001
300H1019L1097 116Q1035 55 919 18T664 -20ZM435 634H804Q804 767 761 820T639 873Q555 873 498 821T435 634Z" />
<glyph unicode="f" horiz-adv-x="844" d="M178 0V875H34L39 1055L178 1077V1158Q178 1300 232 1378T377 1489T573 1521Q694 1521 761 1509T852 1490L842 1274Q792 1280 762 1283T705 1286Q654 1286 618 1274T564 1233T545 1158V1082H809V875H545V0H178Z" />
<glyph unicode="g" horiz-adv-x="1259" d="M585 -513Q478 -513 380 -503T192 -467L218 -236H247Q316 -257 385 -269T515 -281Q600 -281 667 -256T772 -175T810 -23Q810 -8 809 14T799 97Q760 56 692 28T515 -1Q447 -1 371 21T228 104T120 275T78 564Q78 710 118
812T224 979T371 1072T529 1102Q624 1102 685 1069T783 991L785 1082H1140V-15Q1140 -147 1096 -241T975 -396T798 -484T585 -513ZM616 212Q639 212 662 216T706 227T747 245T781 268V798Q765 815 749 828T715 850T675 864T625 869Q597 869 566 859T507 817T462
725T445 563Q445 469 457 402T492 294T546 232T616 212Z" />
<glyph unicode="h" horiz-adv-x="1277" d="M136 0V1540L503 1560V1159L497 919Q539 1005 614 1053T809 1102Q990 1102 1074 987T1159 673V0H792V625Q792 769 759 819T661 869Q627 869 599 856T549 813T515 736T503 622V0H136Z" />
<glyph unicode="i" horiz-adv-x="619" d="M131 0V1082H499V0H131ZM568 1274Q479 1274 427 1323T374 1456Q374 1536 426 1583T568 1630Q658 1630 709 1583T761 1456Q761 1372 710 1323T568 1274Z" />
<glyph unicode="j" horiz-adv-x="710" d="M37 -573L-93 -311L1 -268Q86 -228 127 -195T180 -118T192 1V1082H559V-32Q559 -147 530 -223T444 -351T308 -444T127 -532L37 -573ZM375 1274Q286 1274 234 1323T181 1456Q181 1536 233 1583T375 1630Q465 1630 516 1583T568
1456Q568 1372 517 1323T375 1274Z" />
<glyph unicode="k" horiz-adv-x="1230" d="M136 0V1540L503 1560V813L498 679L817 1082H1197V1064L822 584L1211 31V0H845L548 451L503 409V0H136Z" />
<glyph unicode="l" horiz-adv-x="766" d="M580 -11Q421 -11 325 26T185 146T141 363V1540L509 1560V354Q509 318 518 292T561 249T663 226Q675 225 687 224T712 222L699 -6Q649 -10 624 -10T580 -11Z" />
<glyph unicode="m" horiz-adv-x="1918" d="M126 0V1082H442L461 906Q501 988 577 1045T779 1102Q845 1102 907 1084T1021 1022T1106 901Q1145 984 1223 1043T1433 1102Q1615 1102 1708 988T1801 675V0H1434V624Q1434 719 1420 772T1376 847T1303 869Q1261 869
1226 841T1169 766T1148 663V0H780V622Q780 720 766 773T722 848T649 869Q607 869 573 846T517 772T493 636V0H126Z" />
<glyph unicode="n" horiz-adv-x="1270" d="M130 0V1082H445L463 920Q505 998 582 1050T785 1102Q967 1102 1060 987T1153 672V0H786V625Q786 721 772 774T728 848T655 869Q621 869 593 856T543 813T509 737T497 622V0H130Z" />
<glyph unicode="o" horiz-adv-x="1258" d="M630 -22Q459 -22 336 50T146 249T79 545Q79 710 146 835T336 1031T630 1102Q799 1102 922 1032T1112 836T1179 545Q1179 377 1113 250T923 50T630 -22ZM630 212Q687 212 728 246T791 353T813 545Q813 661 792 732T729
836T630 869Q542 869 494 795T445 545Q445 426 467 353T531 246T630 212Z" />
<glyph unicode="p" horiz-adv-x="1276" d="M131 -477V1082H456L465 916Q501 998 575 1050T765 1102Q909 1102 1004 1029T1146 831T1194 550Q1194 383 1146 255T1001 53T755 -20Q657 -20 592 17T488 103L492 -55V-477H131ZM656 212Q687 212 717 224T773 272T813
375T828 550Q828 678 807 747T749 842T671 869Q629 869 595 855T534 816T493 757V292Q518 260 555 236T656 212Z" />
<glyph unicode="q" horiz-adv-x="1276" d="M785 -477V-52L789 100Q763 67 725 40T637 -3T522 -20Q374 -20 277 53T132 254T84 550Q84 707 131 831T275 1029T515 1102Q631 1102 703 1051T813 924L821 1082H1146V-477H785ZM621 212Q684 212 722 236T784 291V771Q759
817 713 843T608 869Q567 869 531 843T472 748T449 550Q449 442 464 375T504 273T559 225T621 212Z" />
<glyph unicode="r" horiz-adv-x="882" d="M120 0V1082H441L459 909Q507 1012 579 1049T731 1087Q761 1087 791 1084T850 1075L828 810Q803 815 780 817T741 819Q679 819 621 797T525 729T487 608V0H120Z" />
<glyph unicode="s" horiz-adv-x="1022" d="M545 -20Q379 -20 249 37T52 210L219 350H249Q286 277 360 244T499 211Q559 211 589 236T619 301Q619 319 611 335T585 366T533 392L386 449Q285 488 221 533T125 639T93 780Q93 928 207 1015T516 1102Q607 1102 691
1083T844 1019T957 896L798 759H783Q749 815 696 841T588 867Q554 867 529 858T490 832T476 790Q476 767 493 745T568 700L759 614Q835 582 880 537T946 439T966 329Q966 236 917 157T774 29T545 -20Z" />
<glyph unicode="t" horiz-adv-x="901" d="M639 -10Q492 -10 403 18T269 101T208 237T193 425V873H31L39 1065L203 1085L222 1395L555 1421V1082H843V873H555V412Q555 354 568 317T614 262T706 240Q747 239 787 237T868 234L858 -2Q803 -4 748 -6T639 -10Z" />
<glyph unicode="u" horiz-adv-x="1271" d="M487 -20Q305 -20 211 95T117 409V1082H484V456Q484 361 499 308T543 234T617 213Q656 213 684 225T735 257T773 297V1082H1141V0H824L806 163Q767 91 692 36T487 -20Z" />
<glyph unicode="v" horiz-adv-x="1102" d="M374 0L3 1082H379Q427 912 476 743T570 401Q611 571 651 741T731 1082H1098L738 0H374Z" />
<glyph unicode="w" horiz-adv-x="1622" d="M286 -6L14 1082H352L475 354L668 1082H993L1160 371L1299 1082H1608L1328 -6H986L826 710L611 -6H286Z" />
<glyph unicode="x" horiz-adv-x="1100" d="M-6 -6L364 543L12 1082H394L573 811L750 1082H1088L748 544L1111 -6H723L537 278L337 -6H-6Z" />
<glyph unicode="y" horiz-adv-x="1136" d="M465 -455L175 -340L396 155L-32 1082H323L577 491L815 1082H1154L465 -455Z" />
<glyph unicode="z" horiz-adv-x="955" d="M64 0V150L514 867H63L69 1082H900V918L469 224H928L921 0H64Z" />
<glyph unicode="{" horiz-adv-x="994" d="M867 -328Q816 -328 755 -325T634 -309T524 -269T443 -197T413 -82V370Q413 405 401 444T343 512T192 539V779Q297 779 343 806T401 873T413 948V1399Q413 1469 443 1514T523 1587T633 1626T754 1642T866 1646V1431Q807
1429 765 1423T702 1391T680 1305V929Q680 896 675 856T651 776T591 705T478 658Q550 644 591 613T650 542T674 462T680 389V12Q680 -47 701 -72T765 -104T867 -114V-328Z" />
<glyph unicode="|" horiz-adv-x="741" d="M272 -433V1563H480V-433H272Z" />
<glyph unicode="}" horiz-adv-x="944" d="M127 -328V-114Q187 -111 228 -105T291 -73T312 12V389Q312 437 323 492T378 594T515 658Q443 673 402 704T342 776T318 857T312 929V1305Q312 1365 291 1390T228 1422T128 1431V1646Q179 1646 240 1643T361 1627T470
1587T550 1515T580 1399V948Q580 913 591 874T649 807T800 779V539Q706 540 659 516T596 453T580 370V-82Q580 -152 550 -197T470 -269T360 -308T239 -324T127 -328Z" />
<glyph unicode="~" horiz-adv-x="1000" d="M699 486Q634 486 573 515T420 606Q395 621 367 637T306 653Q255 653 227 612T186 490L56 561Q76 696 138 776T309 856Q370 856 419 832T536 760Q581 729 620 709T693 689Q730 689 765 721T829 847L945 777Q929 692 903
626T828 523T699 486Z" />
<glyph unicode="&#xa0;" horiz-adv-x="619" />
<glyph unicode="&#xa1;" horiz-adv-x="766" d="M469 749L541 -85V-335H212V-85L275 749H469ZM374 1241Q443 1241 491 1191T540 1073Q540 1003 492 955T374 906Q306 906 259 954T212 1073Q212 1141 259 1191T374 1241Z" />
<glyph unicode="&#xa2;" horiz-adv-x="1131" d="M565 1034V1362H714L695 1034H565ZM555 -297L564 56H694L692 -297H555ZM643 -20Q469 -20 343 48T148 242T79 541Q79 714 148 840T344 1034T646 1102Q750 1102 829 1075T968 990T1071 839L874 737H861Q822 806 771
832T657 856Q599 856 550 827T473 729T444 541Q444 420 472 352T547 256T654 226Q717 224 767 249T858 345H871L1068 243Q1025 150 966 93T827 8T643 -20Z" />
<glyph unicode="&#xa3;" horiz-adv-x="1223" d="M106 0L95 231L273 253V665H86V874H273V982Q273 1116 298 1222T379 1403T525 1517T746 1556Q860 1556 946 1530T1087 1473T1158 1429L1043 1212H1021Q967 1238 919 1252T824 1266Q767 1266 726 1242T663 1168T641
1044V874H946V665H641V255H1139L1134 0H106Z" />
<glyph unicode="&#xa4;" horiz-adv-x="1108" d="M979 229L798 403Q748 365 688 344T561 322Q425 322 320 400L148 230L35 339L214 515Q184 564 166 623T147 747Q147 811 165 868T214 979L34 1155L148 1268L323 1095Q373 1130 434 1152T561 1175Q629 1175 687 1155T798
1094L979 1268L1085 1155L908 979Q938 930 956 871T975 747Q975 621 909 515L1084 342L979 229ZM561 488Q631 488 688 522T780 615T815 747Q815 820 780 879T688 973T561 1008Q494 1008 437 973T345 879T310 747Q310 674 344 616T436 523T561 488Z" />
<glyph unicode="&#xa5;" horiz-adv-x="1347" d="M181 535V678H1138V535H181ZM181 238V381H1138V238H181ZM479 0V571L-3 1456H406L671 937L943 1456H1350L866 575V0H479Z" />
<glyph unicode="&#xa6;" horiz-adv-x="741" d="M272 788V1563H480V788H272ZM272 -433V342H480V-433H272Z" />
<glyph unicode="&#xa7;" horiz-adv-x="1021" d="M518 -20Q424 -20 333 3T170 65V306Q201 287 255 265T372 227T493 211Q532 211 560 222T602 257T617 315Q617 339 603 360T547 406T427 467Q342 504 283 540T194 622T163 733Q163 801 207 858T312 962Q231 1017
190 1081T149 1231Q149 1328 186 1391T283 1488T412 1536T543 1550Q614 1550 705 1525T874 1446L812 1260Q763 1288 696 1305T567 1322Q531 1322 502 1315T456 1292T440 1249Q440 1226 452 1206T515 1157T678 1078Q762 1042 810 1002T879 914T900 810Q900 728 864
674T778 577Q835 532 862 475T889 355Q889 219 836 137T698 17T518 -20ZM650 649Q661 658 668 668T680 690T684 715Q684 734 674 753T641 791T578 830Q550 845 517 859T460 883T429 896Q420 891 409 880T390 853T382 819Q382 796 397 780T442 749T510 715Q543 702
572 688T622 663T650 649Z" />
<glyph unicode="&#xa8;" horiz-adv-x="1111" d="M808 1248Q733 1248 689 1291T645 1409Q645 1485 689 1529T808 1573Q882 1573 924 1529T966 1409Q966 1335 924 1292T808 1248ZM285 1248Q211 1248 168 1291T125 1409Q125 1485 168 1529T285 1573Q359 1573 401
1529T443 1409Q443 1335 401 1292T285 1248Z" />
<glyph unicode="&#xa9;" horiz-adv-x="1795" d="M893 -56Q730 -56 588 4T337 171T168 421T107 729Q107 894 168 1036T337 1285T587 1452T893 1512Q1056 1512 1198 1452T1449 1285T1618 1036T1679 729Q1679 563 1619 421T1450 172T1199 4T893 -56ZM915 252Q795
252 686 305T507 467T438 738Q438 902 506 1010T684 1171T914 1225Q989 1225 1062 1205T1199 1145L1150 1017Q1095 1046 1039 1061T929 1077Q846 1077 779 1040T673 928T633 739Q633 625 673 550T780 438T929 401Q982 401 1038 415T1151 460L1199 331Q1135 292
1063 272T915 252ZM893 104Q1020 104 1130 152T1325 285T1456 484T1503 729Q1503 860 1456 973T1325 1171T1131 1304T893 1352Q766 1352 656 1305T461 1172T330 973T282 729Q282 598 329 485T461 286T655 152T893 104Z" />
<glyph unicode="&#xaa;" horiz-adv-x="999" d="M359 602Q232 602 152 672T71 880Q71 962 108 1016T206 1100T338 1143T478 1156H604V1218Q604 1287 564 1316T456 1346Q395 1346 318 1326T162 1275L105 1461Q173 1494 242 1516T379 1551T512 1563Q625 1563 715
1523T858 1393T911 1159V617H680L647 719Q616 688 576 662T483 619T359 602ZM463 770Q510 770 546 789T602 829V1016H550Q499 1016 453 1005T379 966T350 884Q350 824 384 797T463 770Z" />
<glyph unicode="&#xab;" horiz-adv-x="1251" d="M389 128L125 573L391 1022H670L417 576L666 128H389ZM855 128L592 573L857 1022H1136L885 576L1133 128H855Z" />
<glyph unicode="&#xac;" horiz-adv-x="1000" d="M739 249V634H41V856H957V249H739Z" />
<glyph unicode="&#xae;" horiz-adv-x="1802" d="M901 -56Q738 -56 596 4T345 172T176 421T115 729Q115 894 176 1036T345 1285T595 1452T901 1512Q1064 1512 1206 1452T1457 1285T1626 1036T1687 729Q1687 563 1626 421T1457 172T1207 5T901 -56ZM901 104Q1028
104 1138 152T1332 285T1463 484T1511 729Q1511 860 1464 973T1333 1171T1139 1304T901 1352Q775 1352 665 1304T470 1171T339 973T292 729Q292 598 339 485T470 286T664 152T901 104ZM601 324V1186H881Q984 1186 1064 1169T1190 1100T1236 944Q1236 855 1193 802T1034
717L1283 324H1078L849 707H776V324H601ZM775 823H854Q960 823 1010 843T1061 937Q1061 1017 1025 1035T894 1053H775V823Z" />
<glyph unicode="&#xaf;" horiz-adv-x="1034" d="M155 1279V1450H875V1279H155Z" />
<glyph unicode="&#xb0;" horiz-adv-x="826" d="M423 901Q319 901 248 946T142 1062T106 1213Q106 1295 142 1363T249 1472T423 1514Q524 1514 594 1473T701 1363T738 1213Q738 1135 702 1063T596 946T423 901ZM423 1059Q477 1059 520 1098T564 1212Q564 1284 520
1322T424 1360Q367 1360 323 1322T279 1212Q279 1137 322 1098T423 1059Z" />
<glyph unicode="&#xb1;" horiz-adv-x="1000" d="M378 331V659H24V893H378V1233H617V893H972V659H617V331H378ZM26 0V205H965V0H26Z" />
<glyph unicode="&#xb2;" horiz-adv-x="848" d="M157 555V716Q204 758 242 793T317 865T398 951Q446 1003 482 1058T518 1177Q518 1237 487 1269T396 1302Q343 1302 295 1278T209 1212L127 1347Q193 1415 272 1446T440 1478Q514 1478 579 1444T686 1346T728 1189Q728
1107 697 1035T630 920Q598 880 563 846T493 780T424 717H737L717 555H157Z" />
<glyph unicode="&#xb3;" horiz-adv-x="883" d="M395 551Q322 551 248 570T110 625L173 790Q213 757 271 738T387 719Q445 719 497 748T549 842Q549 898 515 932T405 966H275V1119H398Q474 1119 506 1144T538 1214Q538 1263 497 1286T400 1310Q350 1310 292 1295T180
1248L120 1387Q186 1428 270 1451T438 1475Q515 1475 581 1452T687 1376T727 1238Q727 1177 697 1123T589 1048Q665 1034 705 971T745 833Q745 738 696 676T568 582T395 551Z" />
<glyph unicode="&#xb4;" horiz-adv-x="798" d="M400 1207L574 1616H942L601 1207H400Z" />
<glyph unicode="&#xb5;" horiz-adv-x="1270" d="M124 -330V1082H490V456Q490 361 505 308T549 234T623 213Q662 213 691 225T742 257T780 297V1082H1147V0H831L813 163Q780 105 725 60T581 15Q532 15 490 29V-330H124Z" />
<glyph unicode="&#xb6;" horiz-adv-x="1250" d="M520 -257V678Q377 678 284 730T144 868T98 1053Q98 1157 128 1233T225 1358T399 1432T665 1456H1079V-257H898V1303H701V-257H520Z" />
<glyph unicode="&#xb7;" horiz-adv-x="595" d="M499 445Q418 445 371 494T324 628Q324 709 371 756T499 804Q578 804 624 757T670 628Q670 543 624 494T499 445Z" />
<glyph unicode="&#xb8;" horiz-adv-x="762" d="M452 -443Q367 -443 281 -407L325 -284Q355 -294 381 -298T430 -303Q487 -303 513 -278T540 -221Q539 -189 519 -172T453 -155Q445 -155 438 -155T421 -156V-84Q484 -60 541 -60Q616 -60 661 -104T707 -231Q707 -331
633 -387T452 -443Z" />
<glyph unicode="&#xb9;" horiz-adv-x="714" d="M126 551V727H257V1242Q235 1226 210 1212T160 1187T109 1167V1341Q139 1355 181 1379T260 1425T308 1457H469V727H606V551H126Z" />
<glyph unicode="&#xba;" horiz-adv-x="1082" d="M541 600Q394 600 288 661T125 833T67 1088Q67 1228 125 1336T289 1505T541 1566Q687 1566 793 1506T956 1337T1014 1088Q1014 943 957 833T794 662T541 600ZM541 801Q590 801 625 830T680 922T700 1087Q700 1188
681 1249T627 1338T541 1366Q465 1366 424 1302T383 1087Q383 985 402 922T456 830T541 801Z" />
<glyph unicode="&#xbb;" horiz-adv-x="1251" d="M581 128L829 576L577 1022H856L1122 573L858 128H581ZM114 128L362 576L111 1022H390L655 573L392 128H114Z" />
<glyph unicode="&#xbc;" horiz-adv-x="2020" d="M126 551V727H257V1242Q235 1226 210 1212T160 1187T109 1167V1341Q139 1355 181 1379T260 1425T308 1457H469V727H606V551H126ZM394 0L1401 1509H1622L623 0H394ZM1644 -29V162H1237V336L1634 879H1843V328H1973L1956
162H1844V-29H1644ZM1432 328H1644V627L1432 328Z" />
<glyph unicode="&#xbd;" horiz-adv-x="2071" d="M126 551V727H257V1242Q235 1226 210 1212T160 1187T109 1167V1341Q139 1355 181 1379T260 1425T308 1457H469V727H606V551H126ZM394 0L1401 1509H1622L623 0H394ZM1380 0V161Q1427 203 1465 238T1540 310T1621
396Q1669 448 1705 503T1741 622Q1741 682 1710 714T1619 747Q1566 747 1518 723T1432 657L1350 792Q1416 860 1495 891T1663 923Q1737 923 1802 889T1909 791T1951 634Q1951 552 1920 480T1853 365Q1821 325 1786 291T1716 225T1647 162H1960L1940 0H1380Z" />
<glyph unicode="&#xbe;" horiz-adv-x="2189" d="M395 551Q322 551 248 570T110 625L173 790Q213 757 271 738T387 719Q445 719 497 748T549 842Q549 898 515 932T405 966H275V1119H398Q474 1119 506 1144T538 1214Q538 1263 497 1286T400 1310Q350 1310 292 1295T180
1248L120 1387Q186 1428 270 1451T438 1475Q515 1475 581 1452T687 1376T727 1238Q727 1177 697 1123T589 1048Q665 1034 705 971T745 833Q745 738 696 676T568 582T395 551ZM563 0L1570 1509H1791L792 0H563ZM1813 -29V162H1406V336L1803 879H2012V328H2142L2125
162H2013V-29H1813ZM1601 328H1813V627L1601 328Z" />
<glyph unicode="&#xbf;" horiz-adv-x="1080" d="M616 769Q620 659 598 577T542 433T474 322T415 228T391 134Q391 83 423 49T529 14Q573 14 618 23T707 49T791 87L878 -162Q827 -214 757 -245T613 -291T481 -306Q369 -306 272 -264T116 -138T56 68Q56 165 90 233T179
355T293 466T407 593T494 769H616ZM550 1270Q627 1270 670 1226T714 1107Q714 1033 671 990T550 946Q478 946 436 989T393 1107Q393 1181 435 1225T550 1270Z" />
<glyph unicode="&#xc0;" horiz-adv-x="1549" d="M56 0L534 1456H1022L1494 0H1103L985 359H558L446 0H56ZM629 595H920L777 1143L629 595ZM679 1582L338 1991H707L880 1582H679Z" />
<glyph unicode="&#xc1;" horiz-adv-x="1549" d="M56 0L534 1456H1022L1494 0H1103L985 359H558L446 0H56ZM629 595H920L777 1143L629 595ZM672 1581L846 1990H1214L873 1581H672Z" />
<glyph unicode="&#xc2;" horiz-adv-x="1549" d="M56 0L534 1456H1022L1494 0H1103L985 359H558L446 0H56ZM629 595H920L777 1143L629 595ZM407 1580L620 1990H929L1142 1580H866L775 1799L684 1580H407Z" />
<glyph unicode="&#xc3;" horiz-adv-x="1549" d="M56 0L534 1456H1022L1494 0H1103L985 359H558L446 0H56ZM629 595H920L777 1143L629 595ZM425 1635Q425 1681 434 1733T468 1833T533 1910T638 1940Q708 1940 760 1920T851 1879T918 1858Q938 1858 953 1875T979
1939H1123Q1123 1897 1114 1845T1081 1745T1019 1666T921 1635Q865 1635 814 1659T721 1709T644 1734Q618 1734 600 1713T569 1635H425Z" />
<glyph unicode="&#xc4;" horiz-adv-x="1549" d="M56 0L534 1456H1022L1494 0H1103L985 359H558L446 0H56ZM629 595H920L777 1143L629 595ZM1037 1622Q962 1622 918 1665T874 1783Q874 1859 918 1903T1037 1947Q1111 1947 1153 1903T1195 1783Q1195 1709 1153 1666T1037
1622ZM514 1622Q440 1622 397 1665T354 1783Q354 1859 397 1903T514 1947Q588 1947 630 1903T672 1783Q672 1709 630 1666T514 1622Z" />
<glyph unicode="&#xc5;" horiz-adv-x="1549" d="M56 0L534 1456H1022L1494 0H1103L985 359H558L446 0H56ZM629 595H920L777 1143L629 595ZM775 1570Q667 1570 607 1638T547 1793Q547 1882 606 1948T775 2015Q885 2015 945 1948T1006 1793Q1006 1706 945 1638T775
1570ZM775 1686Q821 1686 845 1718T869 1792Q869 1832 845 1865T775 1898Q731 1898 708 1865T685 1792Q685 1749 706 1718T775 1686Z" />
<glyph unicode="&#xc6;" horiz-adv-x="2063" d="M16 0L916 1456H1917L1896 1212H1267V858H1878V612H1267V253H1940L1931 0H972V354H602L395 0H16ZM707 577H972V1039L707 577Z" />
<glyph unicode="&#xc7;" horiz-adv-x="1599" d="M854 -20Q620 -20 454 67T201 323T114 733Q114 969 201 1135T453 1389T852 1478Q988 1478 1089 1447T1262 1365T1381 1253T1454 1132T1491 1023L1206 924H1178Q1161 1007 1125 1072T1028 1176T872 1214Q809 1214
748 1195T638 1124T558 978T528 733Q528 549 572 442T692 288T864 242Q960 242 1023 279T1124 381T1178 530H1206L1491 430Q1479 380 1455 320T1385 201T1269 91T1096 10T854 -20ZM758 -443Q673 -443 587 -407L631 -284Q661 -294 687 -298T736 -303Q793 -303 819
-278T846 -221Q845 -189 825 -172T759 -155Q751 -155 744 -155T727 -156V-84Q790 -60 847 -60Q922 -60 967 -104T1013 -231Q1013 -331 939 -387T758 -443Z" />
<glyph unicode="&#xc8;" horiz-adv-x="1363" d="M170 0V1456H1216L1196 1200H557V873H1179V617H557V264H1236L1232 0H170ZM592 1582L251 1991H620L793 1582H592Z" />
<glyph unicode="&#xc9;" horiz-adv-x="1363" d="M170 0V1456H1216L1196 1200H557V873H1179V617H557V264H1236L1232 0H170ZM585 1581L759 1990H1127L786 1581H585Z" />
<glyph unicode="&#xca;" horiz-adv-x="1363" d="M170 0V1456H1216L1196 1200H557V873H1179V617H557V264H1236L1232 0H170ZM320 1580L533 1990H842L1055 1580H779L688 1799L597 1580H320Z" />
<glyph unicode="&#xcb;" horiz-adv-x="1363" d="M170 0V1456H1216L1196 1200H557V873H1179V617H557V264H1236L1232 0H170ZM950 1622Q875 1622 831 1665T787 1783Q787 1859 831 1903T950 1947Q1024 1947 1066 1903T1108 1783Q1108 1709 1066 1666T950 1622ZM427
1622Q353 1622 310 1665T267 1783Q267 1859 310 1903T427 1947Q501 1947 543 1903T585 1783Q585 1709 543 1666T427 1622Z" />
<glyph unicode="&#xcc;" horiz-adv-x="1055" d="M117 -6V201H337V1248H117V1456H938V1248H724V201H938V-6H117ZM432 1582L91 1991H460L633 1582H432Z" />
<glyph unicode="&#xcd;" horiz-adv-x="1055" d="M117 -6V201H337V1248H117V1456H938V1248H724V201H938V-6H117ZM425 1581L599 1990H967L626 1581H425Z" />
<glyph unicode="&#xce;" horiz-adv-x="1055" d="M117 -6V201H337V1248H117V1456H938V1248H724V201H938V-6H117ZM160 1580L373 1990H682L895 1580H619L528 1799L437 1580H160Z" />
<glyph unicode="&#xcf;" horiz-adv-x="1055" d="M117 -6V201H337V1248H117V1456H938V1248H724V201H938V-6H117ZM790 1622Q715 1622 671 1665T627 1783Q627 1859 671 1903T790 1947Q864 1947 906 1903T948 1783Q948 1709 906 1666T790 1622ZM267 1622Q193 1622
150 1665T107 1783Q107 1859 150 1903T267 1947Q341 1947 383 1903T425 1783Q425 1709 383 1666T267 1622Z" />
<glyph unicode="&#xd0;" horiz-adv-x="1557" d="M41 639V862H731V639H41ZM491 -12Q418 -12 338 -8T170 5V1455Q263 1462 348 1464T511 1467Q767 1467 945 1429T1232 1308T1392 1090T1442 759Q1442 587 1396 446T1242 203T951 44T491 -12ZM597 265Q730 265 820
298T965 395T1044 549T1068 754Q1068 843 1054 924T994 1070T855 1172T603 1210Q593 1210 582 1210T558 1207V267Q568 266 578 266T597 265Z" />
<glyph unicode="&#xd1;" horiz-adv-x="1642" d="M170 0V1456H535L1126 535L1109 912V1456H1471V0H1093L525 878L542 522V0H170ZM472 1635Q472 1681 481 1733T515 1833T580 1910T685 1940Q755 1940 807 1920T898 1879T965 1858Q985 1858 1000 1875T1026 1939H1170Q1170
1897 1161 1845T1128 1745T1066 1666T968 1635Q912 1635 861 1659T768 1709T691 1734Q665 1734 647 1713T616 1635H472Z" />
<glyph unicode="&#xd2;" horiz-adv-x="1662" d="M833 -22Q605 -22 445 65T199 318T114 723Q114 962 198 1130T443 1388T832 1478Q1061 1478 1221 1389T1464 1131T1548 725Q1548 485 1465 319T1222 65T833 -22ZM833 255Q932 255 998 309T1099 467T1133 722Q1133
872 1099 978T999 1142T833 1199Q736 1199 668 1142T565 979T529 722Q529 571 564 467T667 309T833 255ZM736 1582L395 1991H764L937 1582H736Z" />
<glyph unicode="&#xd3;" horiz-adv-x="1662" d="M833 -22Q605 -22 445 65T199 318T114 723Q114 962 198 1130T443 1388T832 1478Q1061 1478 1221 1389T1464 1131T1548 725Q1548 485 1465 319T1222 65T833 -22ZM833 255Q932 255 998 309T1099 467T1133 722Q1133
872 1099 978T999 1142T833 1199Q736 1199 668 1142T565 979T529 722Q529 571 564 467T667 309T833 255ZM729 1581L903 1990H1271L930 1581H729Z" />
<glyph unicode="&#xd4;" horiz-adv-x="1662" d="M833 -22Q605 -22 445 65T199 318T114 723Q114 962 198 1130T443 1388T832 1478Q1061 1478 1221 1389T1464 1131T1548 725Q1548 485 1465 319T1222 65T833 -22ZM833 255Q932 255 998 309T1099 467T1133 722Q1133
872 1099 978T999 1142T833 1199Q736 1199 668 1142T565 979T529 722Q529 571 564 467T667 309T833 255ZM464 1580L677 1990H986L1199 1580H923L832 1799L741 1580H464Z" />
<glyph unicode="&#xd5;" horiz-adv-x="1662" d="M833 -22Q605 -22 445 65T199 318T114 723Q114 962 198 1130T443 1388T832 1478Q1061 1478 1221 1389T1464 1131T1548 725Q1548 485 1465 319T1222 65T833 -22ZM833 255Q932 255 998 309T1099 467T1133 722Q1133
872 1099 978T999 1142T833 1199Q736 1199 668 1142T565 979T529 722Q529 571 564 467T667 309T833 255ZM482 1635Q482 1681 491 1733T525 1833T590 1910T695 1940Q765 1940 817 1920T908 1879T975 1858Q995 1858 1010 1875T1036 1939H1180Q1180 1897 1171 1845T1138
1745T1076 1666T978 1635Q922 1635 871 1659T778 1709T701 1734Q675 1734 657 1713T626 1635H482Z" />
<glyph unicode="&#xd6;" horiz-adv-x="1662" d="M833 -22Q605 -22 445 65T199 318T114 723Q114 962 198 1130T443 1388T832 1478Q1061 1478 1221 1389T1464 1131T1548 725Q1548 485 1465 319T1222 65T833 -22ZM833 255Q932 255 998 309T1099 467T1133 722Q1133
872 1099 978T999 1142T833 1199Q736 1199 668 1142T565 979T529 722Q529 571 564 467T667 309T833 255ZM1094 1622Q1019 1622 975 1665T931 1783Q931 1859 975 1903T1094 1947Q1168 1947 1210 1903T1252 1783Q1252 1709 1210 1666T1094 1622ZM571 1622Q497 1622
454 1665T411 1783Q411 1859 454 1903T571 1947Q645 1947 687 1903T729 1783Q729 1709 687 1666T571 1622Z" />
<glyph unicode="&#xd7;" horiz-adv-x="1000" d="M242 232L91 399L343 657L88 921L238 1080L501 818L761 1081L913 922L659 656L913 400L758 236L502 493L242 232Z" />
<glyph unicode="&#xd8;" horiz-adv-x="1666" d="M541 -257L400 -205L493 42Q310 121 212 294T114 723Q114 962 198 1130T443 1387T832 1476Q941 1476 1030 1456L1135 1733L1283 1676L1181 1407Q1360 1326 1454 1152T1548 725Q1548 485 1465 319T1222 65T833 -22Q781
-22 733 -18T638 -4L541 -257ZM617 366L927 1183Q906 1191 882 1195T833 1199Q736 1199 668 1142T565 979T529 722Q529 604 551 515T617 366ZM833 255Q932 255 998 309T1099 467T1133 722Q1133 836 1113 925T1053 1076L743 269Q786 255 833 255Z" />
<glyph unicode="&#xd9;" horiz-adv-x="1531" d="M761 -20Q558 -20 420 46T212 235T142 532V1456H529V556Q529 396 589 326T761 256Q878 256 940 327T1002 557V1456H1389V533Q1389 360 1317 237T1105 47T761 -20ZM670 1582L329 1991H698L871 1582H670Z" />
<glyph unicode="&#xda;" horiz-adv-x="1531" d="M761 -20Q558 -20 420 46T212 235T142 532V1456H529V556Q529 396 589 326T761 256Q878 256 940 327T1002 557V1456H1389V533Q1389 360 1317 237T1105 47T761 -20ZM663 1581L837 1990H1205L864 1581H663Z" />
<glyph unicode="&#xdb;" horiz-adv-x="1531" d="M761 -20Q558 -20 420 46T212 235T142 532V1456H529V556Q529 396 589 326T761 256Q878 256 940 327T1002 557V1456H1389V533Q1389 360 1317 237T1105 47T761 -20ZM398 1580L611 1990H920L1133 1580H857L766 1799L675
1580H398Z" />
<glyph unicode="&#xdc;" horiz-adv-x="1531" d="M761 -20Q558 -20 420 46T212 235T142 532V1456H529V556Q529 396 589 326T761 256Q878 256 940 327T1002 557V1456H1389V533Q1389 360 1317 237T1105 47T761 -20ZM1028 1622Q953 1622 909 1665T865 1783Q865 1859
909 1903T1028 1947Q1102 1947 1144 1903T1186 1783Q1186 1709 1144 1666T1028 1622ZM505 1622Q431 1622 388 1665T345 1783Q345 1859 388 1903T505 1947Q579 1947 621 1903T663 1783Q663 1709 621 1666T505 1622Z" />
<glyph unicode="&#xdd;" horiz-adv-x="1347" d="M479 0V571L-3 1456H406L671 937L943 1456H1350L866 575V0H479ZM571 1581L745 1990H1113L772 1581H571Z" />
<glyph unicode="&#xde;" horiz-adv-x="1459" d="M169 0V1458H557V1278H645Q922 1278 1084 1231T1316 1084T1386 830Q1386 666 1321 551T1105 376T693 315H557V0H169ZM557 564H638Q792 564 873 597T984 686T1014 812Q1014 862 1002 903T954 973T850 1019T670 1035H557V564Z"
/>
<glyph unicode="&#xdf;" horiz-adv-x="1340" d="M914 -20Q844 -20 754 -4T567 51L633 272Q660 257 708 242T803 226Q837 226 862 237T903 272T918 337Q918 392 890 430T822 498T741 558T673 628T645 725Q645 791 670 835T728 917T786 998T812 1102Q812 1166 772
1191T669 1216Q570 1216 528 1144T486 949V-1H119V992Q119 1141 187 1247T376 1410T647 1468Q785 1468 898 1429T1080 1309T1148 1105Q1148 1018 1115 959T1039 861T963 798T930 756Q930 742 968 724T1063 677T1175 604T1269 492T1308 328Q1308 161 1213 71T914
-20Z" />
<glyph unicode="&#xe0;" horiz-adv-x="1163" d="M417 -17Q270 -17 177 64T83 305Q83 401 126 464T240 562T393 612T556 627H702V698Q702 780 656 814T531 848Q460 848 370 825T189 765L122 981Q201 1019 281 1046T442 1086T596 1100Q726 1100 830 1053T997 902T1059
631V0H791L753 119Q717 82 670 51T561 2T417 -17ZM538 178Q594 178 636 200T700 247V465H640Q581 465 527 452T440 406T407 310Q407 240 447 209T538 178ZM486 1208L145 1617H514L687 1208H486Z" />
<glyph unicode="&#xe1;" horiz-adv-x="1163" d="M417 -17Q270 -17 177 64T83 305Q83 401 126 464T240 562T393 612T556 627H702V698Q702 780 656 814T531 848Q460 848 370 825T189 765L122 981Q201 1019 281 1046T442 1086T596 1100Q726 1100 830 1053T997 902T1059
631V0H791L753 119Q717 82 670 51T561 2T417 -17ZM538 178Q594 178 636 200T700 247V465H640Q581 465 527 452T440 406T407 310Q407 240 447 209T538 178ZM479 1207L653 1616H1021L680 1207H479Z" />
<glyph unicode="&#xe2;" horiz-adv-x="1163" d="M417 -17Q270 -17 177 64T83 305Q83 401 126 464T240 562T393 612T556 627H702V698Q702 780 656 814T531 848Q460 848 370 825T189 765L122 981Q201 1019 281 1046T442 1086T596 1100Q726 1100 830 1053T997 902T1059
631V0H791L753 119Q717 82 670 51T561 2T417 -17ZM538 178Q594 178 636 200T700 247V465H640Q581 465 527 452T440 406T407 310Q407 240 447 209T538 178ZM214 1206L427 1616H736L949 1206H673L582 1425L491 1206H214Z" />
<glyph unicode="&#xe3;" horiz-adv-x="1163" d="M417 -17Q270 -17 177 64T83 305Q83 401 126 464T240 562T393 612T556 627H702V698Q702 780 656 814T531 848Q460 848 370 825T189 765L122 981Q201 1019 281 1046T442 1086T596 1100Q726 1100 830 1053T997 902T1059
631V0H791L753 119Q717 82 670 51T561 2T417 -17ZM538 178Q594 178 636 200T700 247V465H640Q581 465 527 452T440 406T407 310Q407 240 447 209T538 178ZM232 1261Q232 1307 241 1359T275 1459T340 1536T445 1566Q515 1566 567 1546T658 1505T725 1484Q745 1484
760 1501T786 1565H930Q930 1523 921 1471T888 1371T826 1292T728 1261Q672 1261 621 1285T528 1335T451 1360Q425 1360 407 1339T376 1261H232Z" />
<glyph unicode="&#xe4;" horiz-adv-x="1163" d="M417 -17Q270 -17 177 64T83 305Q83 401 126 464T240 562T393 612T556 627H702V698Q702 780 656 814T531 848Q460 848 370 825T189 765L122 981Q201 1019 281 1046T442 1086T596 1100Q726 1100 830 1053T997 902T1059
631V0H791L753 119Q717 82 670 51T561 2T417 -17ZM538 178Q594 178 636 200T700 247V465H640Q581 465 527 452T440 406T407 310Q407 240 447 209T538 178ZM844 1248Q769 1248 725 1291T681 1409Q681 1485 725 1529T844 1573Q918 1573 960 1529T1002 1409Q1002 1335
960 1292T844 1248ZM321 1248Q247 1248 204 1291T161 1409Q161 1485 204 1529T321 1573Q395 1573 437 1529T479 1409Q479 1335 437 1292T321 1248Z" />
<glyph unicode="&#xe5;" horiz-adv-x="1163" d="M417 -17Q270 -17 177 64T83 305Q83 401 126 464T240 562T393 612T556 627H702V698Q702 780 656 814T531 848Q460 848 370 825T189 765L122 981Q201 1019 281 1046T442 1086T596 1100Q726 1100 830 1053T997 902T1059
631V0H791L753 119Q717 82 670 51T561 2T417 -17ZM538 178Q594 178 636 200T700 247V465H640Q581 465 527 452T440 406T407 310Q407 240 447 209T538 178ZM582 1196Q474 1196 414 1264T354 1419Q354 1508 413 1574T582 1641Q692 1641 752 1574T813 1419Q813 1332
752 1264T582 1196ZM582 1312Q628 1312 652 1344T676 1418Q676 1458 652 1491T582 1524Q538 1524 515 1491T492 1418Q492 1375 513 1344T582 1312Z" />
<glyph unicode="&#xe6;" horiz-adv-x="1757" d="M1232 -20Q1117 -20 1043 2T922 60T836 137Q794 89 732 55T590 2T413 -16Q311 -16 233 19T112 125T68 305Q68 401 111 464T225 563T379 615T543 630Q566 630 593 630T650 630T705 628V698Q705 780 650 814T518 848Q446
848 357 825T175 764L108 978Q226 1037 347 1068T582 1100Q663 1100 727 1080T835 1023T896 935Q931 985 978 1022T1093 1080T1248 1102Q1366 1102 1448 1066T1580 972T1652 846T1675 716Q1675 614 1611 553T1429 461T1148 424Q1118 423 1086 423T1020 423Q1032
328 1070 283T1162 225T1273 212Q1377 212 1460 241T1607 310L1664 116Q1602 55 1486 18T1232 -20ZM519 179Q573 179 621 193T704 229T756 272Q745 296 735 333T718 407T711 465Q689 466 663 466T625 467Q564 467 511 454T426 406T393 309Q393 264 411 235T459
193T519 179ZM1022 616Q1049 616 1073 616T1118 616Q1250 621 1319 636T1414 679T1440 746Q1440 781 1426 811T1371 861T1255 880Q1207 880 1155 855T1065 772T1022 616Z" />
<glyph unicode="&#xe7;" horiz-adv-x="1136" d="M643 -20Q469 -20 343 48T148 242T79 541Q79 714 148 840T344 1034T646 1102Q750 1102 829 1075T968 990T1071 839L874 737H861Q822 806 771 832T657 856Q599 856 550 827T473 729T444 541Q444 420 472 352T547
256T654 226Q717 224 767 249T858 345H871L1068 243Q1025 150 966 93T827 8T643 -20ZM526 -443Q441 -443 355 -407L399 -284Q429 -294 455 -298T504 -303Q561 -303 587 -278T614 -221Q613 -189 593 -172T527 -155Q519 -155 512 -155T495 -156V-84Q558 -60 615 -60Q690
-60 735 -104T781 -231Q781 -331 707 -387T526 -443Z" />
<glyph unicode="&#xe8;" horiz-adv-x="1203" d="M664 -20Q486 -20 355 48T151 243T79 542Q79 715 146 840T336 1034T626 1102Q799 1102 903 1035T1056 848T1110 573Q1110 536 1107 508T1102 463T1097 441H442Q451 370 487 319T579 240T706 212Q788 212 863 236T1001
300H1019L1097 116Q1035 55 919 18T664 -20ZM435 634H804Q804 767 761 820T639 873Q555 873 498 821T435 634ZM532 1208L191 1617H560L733 1208H532Z" />
<glyph unicode="&#xe9;" horiz-adv-x="1203" d="M664 -20Q486 -20 355 48T151 243T79 542Q79 715 146 840T336 1034T626 1102Q799 1102 903 1035T1056 848T1110 573Q1110 536 1107 508T1102 463T1097 441H442Q451 370 487 319T579 240T706 212Q788 212 863 236T1001
300H1019L1097 116Q1035 55 919 18T664 -20ZM435 634H804Q804 767 761 820T639 873Q555 873 498 821T435 634ZM525 1207L699 1616H1067L726 1207H525Z" />
<glyph unicode="&#xea;" horiz-adv-x="1203" d="M664 -20Q486 -20 355 48T151 243T79 542Q79 715 146 840T336 1034T626 1102Q799 1102 903 1035T1056 848T1110 573Q1110 536 1107 508T1102 463T1097 441H442Q451 370 487 319T579 240T706 212Q788 212 863 236T1001
300H1019L1097 116Q1035 55 919 18T664 -20ZM435 634H804Q804 767 761 820T639 873Q555 873 498 821T435 634ZM260 1206L473 1616H782L995 1206H719L628 1425L537 1206H260Z" />
<glyph unicode="&#xeb;" horiz-adv-x="1203" d="M664 -20Q486 -20 355 48T151 243T79 542Q79 715 146 840T336 1034T626 1102Q799 1102 903 1035T1056 848T1110 573Q1110 536 1107 508T1102 463T1097 441H442Q451 370 487 319T579 240T706 212Q788 212 863 236T1001
300H1019L1097 116Q1035 55 919 18T664 -20ZM435 634H804Q804 767 761 820T639 873Q555 873 498 821T435 634ZM890 1248Q815 1248 771 1291T727 1409Q727 1485 771 1529T890 1573Q964 1573 1006 1529T1048 1409Q1048 1335 1006 1292T890 1248ZM367 1248Q293 1248
250 1291T207 1409Q207 1485 250 1529T367 1573Q441 1573 483 1529T525 1409Q525 1335 483 1292T367 1248Z" />
<glyph unicode="&#xec;" horiz-adv-x="619" d="M131 0V1082H499V0H131ZM216 1208L-125 1617H244L417 1208H216Z" />
<glyph unicode="&#xed;" horiz-adv-x="619" d="M131 0V1082H499V0H131ZM209 1207L383 1616H751L410 1207H209Z" />
<glyph unicode="&#xee;" horiz-adv-x="619" d="M131 0V1082H499V0H131ZM-56 1206L157 1616H466L679 1206H403L312 1425L221 1206H-56Z" />
<glyph unicode="&#xef;" horiz-adv-x="619" d="M131 0V1082H499V0H131ZM524 1248Q449 1248 405 1291T361 1409Q361 1485 405 1529T524 1573Q598 1573 640 1529T682 1409Q682 1335 640 1292T524 1248ZM101 1248Q27 1248 -16 1291T-59 1409Q-59 1485 -16 1529T101
1573Q175 1573 217 1529T259 1409Q259 1335 217 1292T101 1248Z" />
<glyph unicode="&#xf0;" horiz-adv-x="1229" d="M621 -24Q503 -24 405 12T234 113T123 270T83 474Q83 617 140 723T302 888T553 948Q567 948 597 944T659 931T713 910Q686 954 646 1002T559 1099T466 1190L226 1099L132 1289L306 1359L89 1564H422L539 1454L832
1570L945 1378L709 1289Q796 1204 877 1120T1020 943T1118 741T1149 496Q1145 340 1086 223T911 41T621 -24ZM625 227Q732 227 790 294T848 476Q848 552 822 610T744 701T620 735Q547 735 497 704T421 615T395 482Q395 406 422 349T501 259T625 227Z" />
<glyph unicode="&#xf1;" horiz-adv-x="1270" d="M130 0V1082H445L463 920Q505 998 582 1050T785 1102Q967 1102 1060 987T1153 672V0H786V625Q786 721 772 774T728 848T655 869Q621 869 593 856T543 813T509 737T497 622V0H130ZM286 1261Q286 1307 295 1359T329
1459T394 1536T499 1566Q569 1566 621 1546T712 1505T779 1484Q799 1484 814 1501T840 1565H984Q984 1523 975 1471T942 1371T880 1292T782 1261Q726 1261 675 1285T582 1335T505 1360Q479 1360 461 1339T430 1261H286Z" />
<glyph unicode="&#xf2;" horiz-adv-x="1258" d="M630 -22Q459 -22 336 50T146 249T79 545Q79 710 146 835T336 1031T630 1102Q799 1102 922 1032T1112 836T1179 545Q1179 377 1113 250T923 50T630 -22ZM630 212Q687 212 728 246T791 353T813 545Q813 661 792 732T729
836T630 869Q542 869 494 795T445 545Q445 426 467 353T531 246T630 212ZM534 1208L193 1617H562L735 1208H534Z" />
<glyph unicode="&#xf3;" horiz-adv-x="1258" d="M630 -22Q459 -22 336 50T146 249T79 545Q79 710 146 835T336 1031T630 1102Q799 1102 922 1032T1112 836T1179 545Q1179 377 1113 250T923 50T630 -22ZM630 212Q687 212 728 246T791 353T813 545Q813 661 792 732T729
836T630 869Q542 869 494 795T445 545Q445 426 467 353T531 246T630 212ZM527 1207L701 1616H1069L728 1207H527Z" />
<glyph unicode="&#xf4;" horiz-adv-x="1258" d="M630 -22Q459 -22 336 50T146 249T79 545Q79 710 146 835T336 1031T630 1102Q799 1102 922 1032T1112 836T1179 545Q1179 377 1113 250T923 50T630 -22ZM630 212Q687 212 728 246T791 353T813 545Q813 661 792 732T729
836T630 869Q542 869 494 795T445 545Q445 426 467 353T531 246T630 212ZM262 1206L475 1616H784L997 1206H721L630 1425L539 1206H262Z" />
<glyph unicode="&#xf5;" horiz-adv-x="1258" d="M630 -22Q459 -22 336 50T146 249T79 545Q79 710 146 835T336 1031T630 1102Q799 1102 922 1032T1112 836T1179 545Q1179 377 1113 250T923 50T630 -22ZM630 212Q687 212 728 246T791 353T813 545Q813 661 792 732T729
836T630 869Q542 869 494 795T445 545Q445 426 467 353T531 246T630 212ZM280 1261Q280 1307 289 1359T323 1459T388 1536T493 1566Q563 1566 615 1546T706 1505T773 1484Q793 1484 808 1501T834 1565H978Q978 1523 969 1471T936 1371T874 1292T776 1261Q720 1261
669 1285T576 1335T499 1360Q473 1360 455 1339T424 1261H280Z" />
<glyph unicode="&#xf6;" horiz-adv-x="1258" d="M630 -22Q459 -22 336 50T146 249T79 545Q79 710 146 835T336 1031T630 1102Q799 1102 922 1032T1112 836T1179 545Q1179 377 1113 250T923 50T630 -22ZM630 212Q687 212 728 246T791 353T813 545Q813 661 792 732T729
836T630 869Q542 869 494 795T445 545Q445 426 467 353T531 246T630 212ZM892 1248Q817 1248 773 1291T729 1409Q729 1485 773 1529T892 1573Q966 1573 1008 1529T1050 1409Q1050 1335 1008 1292T892 1248ZM369 1248Q295 1248 252 1291T209 1409Q209 1485 252 1529T369
1573Q443 1573 485 1529T527 1409Q527 1335 485 1292T369 1248Z" />
<glyph unicode="&#xf7;" horiz-adv-x="1000" d="M46 489V705H954V489H46ZM353 18V318H647V18H353ZM353 885V1170H657V885H353Z" />
<glyph unicode="&#xf8;" horiz-adv-x="1256" d="M312 -178L234 -126L972 1262L1055 1210L312 -178ZM630 -22Q459 -22 336 50T146 249T79 545Q79 710 146 835T336 1031T630 1102Q799 1102 922 1032T1112 836T1179 545Q1179 377 1113 250T923 50T630 -22ZM630 212Q687
212 728 246T791 353T813 545Q813 661 792 732T729 836T630 869Q542 869 494 795T445 545Q445 426 467 353T531 246T630 212Z" />
<glyph unicode="&#xf9;" horiz-adv-x="1271" d="M487 -20Q305 -20 211 95T117 409V1082H484V456Q484 361 499 308T543 234T617 213Q656 213 684 225T735 257T773 297V1082H1141V0H824L806 163Q767 91 692 36T487 -20ZM540 1208L199 1617H568L741 1208H540Z" />
<glyph unicode="&#xfa;" horiz-adv-x="1271" d="M487 -20Q305 -20 211 95T117 409V1082H484V456Q484 361 499 308T543 234T617 213Q656 213 684 225T735 257T773 297V1082H1141V0H824L806 163Q767 91 692 36T487 -20ZM533 1207L707 1616H1075L734 1207H533Z" />
<glyph unicode="&#xfb;" horiz-adv-x="1271" d="M487 -20Q305 -20 211 95T117 409V1082H484V456Q484 361 499 308T543 234T617 213Q656 213 684 225T735 257T773 297V1082H1141V0H824L806 163Q767 91 692 36T487 -20ZM268 1206L481 1616H790L1003 1206H727L636
1425L545 1206H268Z" />
<glyph unicode="&#xfc;" horiz-adv-x="1271" d="M487 -20Q305 -20 211 95T117 409V1082H484V456Q484 361 499 308T543 234T617 213Q656 213 684 225T735 257T773 297V1082H1141V0H824L806 163Q767 91 692 36T487 -20ZM898 1248Q823 1248 779 1291T735 1409Q735
1485 779 1529T898 1573Q972 1573 1014 1529T1056 1409Q1056 1335 1014 1292T898 1248ZM375 1248Q301 1248 258 1291T215 1409Q215 1485 258 1529T375 1573Q449 1573 491 1529T533 1409Q533 1335 491 1292T375 1248Z" />
<glyph unicode="&#xfd;" horiz-adv-x="1136" d="M465 -455L175 -340L396 155L-32 1082H323L577 491L815 1082H1154L465 -455ZM466 1207L640 1616H1008L667 1207H466Z" />
<glyph unicode="&#xfe;" horiz-adv-x="1290" d="M141 -425V588H503V-425H141ZM765 -20Q650 -20 580 29T476 136L466 0H141V1540L504 1560V1151L495 951Q523 1000 564 1033T659 1084T780 1102Q924 1102 1018 1029T1160 830T1207 549Q1207 383 1159 255T1012 53T765
-20ZM679 212Q720 212 756 244T815 351T838 550Q838 678 819 747T767 842T692 869Q646 869 603 845T532 755T504 565V292Q520 271 540 253T594 224T679 212Z" />
<glyph unicode="&#xff;" horiz-adv-x="1136" d="M465 -455L175 -340L396 155L-32 1082H323L577 491L815 1082H1154L465 -455ZM831 1248Q756 1248 712 1291T668 1409Q668 1485 712 1529T831 1573Q905 1573 947 1529T989 1409Q989 1335 947 1292T831 1248ZM308 1248Q234
1248 191 1291T148 1409Q148 1485 191 1529T308 1573Q382 1573 424 1529T466 1409Q466 1335 424 1292T308 1248Z" />
<glyph unicode="&#x2013;" horiz-adv-x="1165" d="M139 437V667H1026V437H139Z" />
<glyph unicode="&#x2014;" horiz-adv-x="2244" d="M60 447V660H2184V447H60Z" />
<glyph unicode="&#x2018;" horiz-adv-x="531" d="M112 1033L237 1557H452L417 1033H112Z" />
<glyph unicode="&#x2019;" horiz-adv-x="531" d="M112 1033L148 1557H452L328 1033H112Z" />
<glyph unicode="&#x201a;" horiz-adv-x="527" d="M104 -383L139 140H443L319 -383H104Z" />
<glyph unicode="&#x201c;" horiz-adv-x="978" d="M542 1033L666 1557H881L845 1033H542ZM112 1033L237 1557H452L417 1033H112Z" />
<glyph unicode="&#x201d;" horiz-adv-x="978" d="M542 1033L577 1557H881L756 1033H542ZM112 1033L148 1557H452L328 1033H112Z" />
<glyph unicode="&#x201e;" horiz-adv-x="971" d="M522 -383L557 140H860L737 -383H522ZM104 -383L140 140H443L319 -383H104Z" />
<glyph unicode="&#x2022;" horiz-adv-x="966" d="M471 345Q368 345 288 391T163 516T117 693Q117 791 164 870T294 997T477 1045Q580 1045 659 1000T784 876T830 698Q830 600 783 520T655 393T471 345Z" />
<glyph unicode="&#x2039;" horiz-adv-x="847" d="M399 111L128 562L407 1026H736L474 559L731 111H399Z" />
<glyph unicode="&#x203a;" horiz-adv-x="874" d="M128 111L386 562L124 1034H453L734 565L461 111H128Z" />
</font>
</defs>
</svg>
