<?xml version="1.0" standalone="no"?>
<!DOCTYPE svg PUBLIC "-//W3C//DTD SVG 1.1//EN" "http://www.w3.org/Graphics/SVG/1.1/DTD/svg11.dtd">
<svg xmlns="http://www.w3.org/2000/svg">
<defs >
<font id="Comme" horiz-adv-x="1154" ><font-face
    font-family="Comme Medium"
    units-per-em="2048"
    panose-1="0 0 0 0 0 0 0 0 0 0"
    ascent="1957"
    descent="-501"
    alphabetic="0" />
<glyph unicode=" " horiz-adv-x="550" />
<glyph unicode="!" horiz-adv-x="728" d="M305 446L243 1330V1493H463V1330L408 446H305ZM356 -12Q293 -12 259 29T225 123Q225 174 259 214T356 255Q419 255 452 215T486 123Q486 71 453 30T356 -12Z" />
<glyph unicode="&quot;" horiz-adv-x="746" d="M499 974L429 1536H647L607 974H499ZM174 974L102 1536H321L280 974H174Z" />
<glyph unicode="#" horiz-adv-x="1146" d="M164 -13L252 441H65L79 548H273L356 977H161L176 1083H376L467 1528H595L504 1083H780L871 1528H996L905 1083H1097L1080 977H885L802 548H1005L990 441H781L692 -13H567L655 441H379L291 -13H164ZM400 548H675L759
977H483L400 548Z" />
<glyph unicode="$" horiz-adv-x="1224" d="M544 -292V47H687L679 -292H544ZM542 1429L553 1767H690V1429H542ZM607 -20Q484 -20 385 10T216 88T107 192L246 308H264Q324 235 415 200T599 164Q719 164 800 215T882 387Q882 448 860 486T783 557T628 631L420 717Q325
757 257 799T151 906T114 1075Q114 1191 155 1268T268 1391T431 1456T621 1476Q731 1476 821 1449T981 1374T1092 1264L950 1158H933Q885 1226 802 1262T621 1299Q550 1299 489 1281T392 1219T356 1099Q356 1050 374 1017T435 956T555 898L752 819Q867 772 949
723T1074 598T1118 391Q1118 279 1076 201T961 74T797 3T607 -20Z" />
<glyph unicode="%" horiz-adv-x="1780" d="M358 0L1196 1480H1356L528 0H358ZM410 716Q293 716 221 768T114 909T80 1109Q80 1220 115 1308T222 1448T410 1500Q528 1500 603 1449T715 1310T751 1109Q751 999 715 910T603 768T410 716ZM413 844Q484 844 524 879T582
975T599 1111Q599 1226 559 1300T413 1374Q342 1374 301 1340T242 1246T225 1111Q225 1035 242 974T300 879T413 844ZM1306 -13Q1189 -13 1114 39T1004 181T968 381Q968 491 1004 579T1116 719T1306 771Q1424 771 1499 720T1611 581T1647 381Q1647 270 1611 181T1499
40T1306 -13ZM1309 115Q1380 115 1420 150T1478 246T1495 382Q1495 498 1455 571T1309 645Q1238 645 1197 611T1138 517T1121 382Q1121 306 1138 246T1196 150T1309 115Z" />
<glyph unicode="&amp;" horiz-adv-x="1418" d="M1196 -27L1013 160Q928 81 819 31T568 -19Q468 -19 381 10T229 94T128 227T92 401Q92 483 116 545T183 656T280 743T397 816Q343 871 305 927T246 1043T226 1167Q226 1273 278 1347T418 1461T615 1501Q688 1501
754 1482T872 1425T954 1328T984 1189Q984 1089 935 1015T809 887T646 787L1013 412Q1066 482 1119 571T1231 773L1366 682Q1338 629 1303 563T1225 425T1131 288L1323 92L1196 -27ZM586 148Q671 148 746 178T897 283L498 693Q439 659 393 621T321 532T295 412Q295
328 330 269T431 179T586 148ZM551 898Q613 931 667 971T756 1064T791 1182Q791 1264 746 1306T615 1348Q534 1348 477 1302T419 1175Q419 1133 431 1092T472 1004T551 898Z" />
<glyph unicode="&apos;" horiz-adv-x="472" d="M174 944L113 1516H325L292 944H174Z" />
<glyph unicode="(" horiz-adv-x="810" d="M661 -257H461Q401 -168 352 -61T267 167T213 414T194 667Q194 795 213 921T267 1168T351 1396T461 1593H661V1556Q602 1467 555 1369T474 1162T422 930T404 667Q404 529 422 405T473 171T554 -37T661 -225V-257Z" />
<glyph unicode=")" horiz-adv-x="819" d="M145 -257V-225Q205 -136 252 -38T333 171T384 405T402 667Q402 807 385 930T334 1162T253 1369T145 1556V1593H346Q406 1504 455 1396T540 1168T594 922T613 667Q613 541 594 414T540 167T456 -60T346 -257H145Z" />
<glyph unicode="*" horiz-adv-x="973" d="M311 559L148 656L382 970L40 1048L92 1229L429 1087L395 1477H585L550 1087L889 1229L940 1048L594 970L832 656L672 558L486 895L311 559Z" />
<glyph unicode="+" horiz-adv-x="1000" d="M403 214V599H42V787H403V1165H600V787H958V599H600V214H403Z" />
<glyph unicode="," horiz-adv-x="642" d="M191 -317L231 250H444V137Q432 92 420 47T396 -44T372 -135T349 -226T325 -317H191Z" />
<glyph unicode="-" horiz-adv-x="888" d="M164 499V661H719V499H164Z" />
<glyph unicode="." horiz-adv-x="660" d="M330 -10Q270 -10 238 24T206 123Q206 188 238 221T330 255Q389 255 421 222T453 123Q453 58 421 24T330 -10Z" />
<glyph unicode="/" horiz-adv-x="983" d="M110 -155L732 1560H903L278 -155H110Z" />
<glyph unicode="0" horiz-adv-x="1291" d="M649 -20Q472 -20 354 69T177 322T118 711Q118 943 179 1115T359 1381T649 1476Q821 1476 937 1382T1113 1116T1173 711Q1173 486 1116 323T942 70T649 -20ZM649 165Q739 165 801 222T898 401T932 716Q932 862 913 969T857
1148T768 1255T649 1291Q560 1291 495 1224T395 1029T359 715Q359 571 379 467T437 297T529 198T649 165Z" />
<glyph unicode="1" horiz-adv-x="1291" d="M197 0V165H581V1248Q526 1220 454 1193T315 1146T205 1120V1290Q243 1299 298 1317T412 1359T524 1407T609 1456H820V165H1161V0H197Z" />
<glyph unicode="2" horiz-adv-x="1291" d="M192 0L156 180L696 712Q761 774 801 823T861 923T881 1045Q881 1109 860 1155T801 1232T715 1278T614 1293Q519 1293 428 1254T278 1146H257L148 1271Q200 1331 272 1377T432 1449T617 1476Q725 1476 814 1447T967 1361T1065
1226T1100 1047Q1100 955 1074 882T989 734T831 566L423 177H1084L1075 0H192Z" />
<glyph unicode="3" horiz-adv-x="1241" d="M603 -20Q518 -20 431 2T270 75T145 205L261 317H278Q315 262 368 229T480 180T593 164Q709 164 783 223T857 402Q857 481 832 533T758 616T638 658T476 671H417L393 837H476Q541 837 603 845T715 879T795 953T825 1082Q825
1148 800 1194T724 1266T597 1291Q499 1291 422 1254T284 1128L264 1129L144 1238Q191 1326 268 1378T434 1453T604 1476Q741 1476 841 1431T995 1302T1049 1096Q1049 1018 1022 951T935 836T775 766Q884 748 953 695T1057 563T1091 393Q1091 300 1056 225T956
94T802 10T603 -20Z" />
<glyph unicode="4" horiz-adv-x="1291" d="M757 0V360H163L123 524L728 1456H991V530H1175L1162 360H991V0H757ZM330 527H756V1203L330 527Z" />
<glyph unicode="5" horiz-adv-x="1291" d="M645 -20Q527 -20 435 11T278 93T177 200L300 327H317Q354 273 402 237T507 184T632 167Q733 167 797 210T894 324T926 475Q926 553 897 622T810 733T667 776Q589 776 527 745T425 652L243 683L294 1456H1072L1049 1284H497L452
849Q502 893 564 917T712 942Q824 942 907 903T1047 796T1132 646T1160 475Q1160 349 1103 236T930 51T645 -20Z" />
<glyph unicode="6" horiz-adv-x="1291" d="M660 -20Q541 -20 448 17T290 121T193 272T160 455Q160 557 183 640T251 802T357 965L710 1456H958V1432Q842 1275 726 1118T493 805Q537 840 598 867T739 894Q823 894 898 864T1032 776T1124 635T1158 446Q1158 314
1098 209T926 42T660 -20ZM658 151Q746 151 806 192T899 300T931 449Q931 534 899 599T808 702T662 740Q615 740 567 724T478 673T411 582T386 445Q386 365 417 298T510 191T658 151Z" />
<glyph unicode="7" horiz-adv-x="1291" d="M338 0L863 1279H190L174 1456H1108L1109 1289L578 0H338Z" />
<glyph unicode="8" horiz-adv-x="1291" d="M647 -20Q504 -20 391 24T213 155T147 372Q147 523 223 622T434 768Q322 806 250 892T177 1114Q177 1232 238 1312T405 1434T647 1476Q782 1476 887 1435T1052 1313T1113 1114Q1113 979 1045 896T864 769Q992 725 1067
621T1143 372Q1143 242 1079 155T902 24T647 -20ZM647 142Q784 142 848 202T913 388Q913 509 838 587T647 694Q570 675 509 635T412 532T377 387Q377 266 445 204T647 142ZM647 825Q767 857 828 930T889 1110Q889 1210 823 1264T647 1319Q537 1319 469 1264T401
1110Q401 1003 464 930T647 825Z" />
<glyph unicode="9" horiz-adv-x="1291" d="M345 0V24L654 419L816 626Q769 596 712 579T598 562Q512 562 435 592T297 681T202 823T167 1014Q167 1146 230 1250T406 1415T673 1476Q793 1476 886 1439T1043 1336T1141 1184T1175 1002Q1175 900 1149 816T1076 655T965
494L593 0H345ZM664 716Q712 716 762 732T854 783T923 875T949 1012Q949 1093 917 1159T823 1266T674 1306Q587 1306 524 1266T428 1160T395 1011Q395 884 463 800T664 716Z" />
<glyph unicode=":" horiz-adv-x="671" d="M335 821Q271 821 234 860T197 956Q197 1014 233 1054T335 1094Q400 1094 435 1054T470 956Q470 899 435 860T335 821ZM335 -9Q271 -9 234 30T197 126Q197 184 233 224T335 264Q400 264 435 224T470 126Q470 69 435 30T335 -9Z" />
<glyph unicode=";" horiz-adv-x="728" d="M237 -317L277 250H490V137Q478 92 467 47T443 -44T419 -135T395 -226T371 -317H237ZM376 820Q312 820 275 859T238 955Q238 1014 274 1053T376 1093Q440 1093 475 1054T511 955Q511 898 476 859T376 820Z" />
<glyph unicode="&lt;" horiz-adv-x="1000" d="M866 156L134 598V777L864 1212V1002L313 693L866 371V156Z" />
<glyph unicode="=" horiz-adv-x="1000" d="M94 403V574H906V403H94ZM94 803V973H906V803H94Z" />
<glyph unicode="&gt;" horiz-adv-x="1000" d="M206 156V371L759 693L208 1002V1212L937 777V598L206 156Z" />
<glyph unicode="?" horiz-adv-x="962" d="M342 443Q346 542 372 621T436 766T509 891T569 1006T594 1122Q594 1213 548 1261T414 1309Q365 1309 318 1296T232 1263T166 1227L116 1392Q157 1427 210 1451T322 1489T442 1502Q539 1502 622 1465T756 1351T808 1150Q808
1057 780 991T708 870T613 757T515 625T435 443H342ZM389 -15Q324 -15 291 23T258 114Q258 167 291 205T389 243Q452 243 484 205T516 114Q516 60 484 23T389 -15Z" />
<glyph unicode="@" horiz-adv-x="1962" d="M962 -177Q721 -177 538 -80T252 200T148 637Q148 824 213 983T397 1262T677 1447T1029 1513Q1194 1513 1336 1461T1585 1313T1751 1080T1811 775Q1811 641 1776 540T1684 372T1557 270T1421 236Q1373 236 1323 262T1235
337T1181 453Q1144 363 1073 296T897 229Q793 229 723 278T616 410T580 595Q580 691 610 783T697 950T840 1069T1036 1114Q1094 1114 1155 1103T1273 1074T1371 1035Q1357 931 1342 835T1316 656T1305 509Q1305 449 1338 412T1421 374Q1475 374 1527 420T1613 557T1647
783Q1647 902 1609 1007T1493 1192T1298 1318T1022 1364Q861 1364 733 1307T515 1150T378 916T330 633Q330 441 404 292T619 57T965 -28Q1091 -28 1216 -2T1443 88L1492 -35Q1428 -81 1342 -112T1159 -160T962 -177ZM914 366Q986 366 1029 410T1097 532T1139 717L1180
967Q1149 974 1112 979T1052 984Q965 984 898 932T794 792T756 595Q756 489 794 428T914 366Z" />
<glyph unicode="A" horiz-adv-x="1452" d="M61 0L589 1456H860L1390 0H1148L992 429H456L303 0H61ZM507 597H942L725 1237L507 597Z" />
<glyph unicode="B" horiz-adv-x="1391" d="M571 -6Q489 -6 395 -2T195 11V1438Q259 1445 321 1450T442 1458T552 1463T644 1465Q829 1465 943 1435T1119 1354T1202 1236T1224 1097Q1224 1029 1199 969T1118 862T970 788Q1131 752 1202 662T1273 432Q1273 319 1236
236T1117 99T901 20T571 -6ZM604 164Q746 164 831 183T959 237T1016 323T1031 436Q1031 535 993 593T874 675T668 700H437V171Q483 167 525 166T604 164ZM437 857H678Q764 857 834 874T946 939T988 1075Q988 1156 955 1206T846 1279T636 1302Q593 1302 543 1300T437
1292V857Z" />
<glyph unicode="C" horiz-adv-x="1475" d="M814 -20Q610 -20 459 68T226 323T143 730Q143 967 225 1134T459 1390T814 1478Q902 1478 981 1459T1126 1405T1243 1320T1329 1209T1378 1079L1202 1016H1183Q1165 1097 1117 1160T995 1260T828 1296Q734 1296 655 1264T517
1163T427 987T395 730Q395 535 449 409T600 222T827 160Q920 160 994 197T1118 297T1186 441H1205L1381 378Q1367 309 1333 248T1247 138T1129 53T984 -1T814 -20Z" />
<glyph unicode="D" horiz-adv-x="1514" d="M505 -11Q434 -11 357 -6T195 9V1439Q298 1451 390 1457T563 1463Q802 1463 959 1416T1206 1276T1333 1051T1371 748Q1371 580 1327 441T1184 200T917 44T505 -11ZM569 161Q737 161 846 203T1019 323T1107 507T1133 743Q1133
866 1112 967T1033 1142T872 1256T599 1296Q562 1296 522 1294T437 1287V168Q473 165 506 163T569 161Z" />
<glyph unicode="E" horiz-adv-x="1322" d="M195 0V1456H1175L1165 1283H437V839H1117V664H437V177H1192L1182 0H195Z" />
<glyph unicode="F" horiz-adv-x="1216" d="M195 0V1456H1173L1161 1277H437V811H1070V641H437V0H195Z" />
<glyph unicode="G" horiz-adv-x="1508" d="M827 -20Q603 -20 451 73T221 335T143 734Q143 963 227 1129T468 1386T847 1476Q974 1476 1075 1446T1250 1362T1366 1241L1229 1130H1210Q1181 1171 1133 1209T1018 1271T860 1295Q706 1295 603 1228T448 1036T395 734Q395
593 423 486T509 307T656 197T868 160Q959 160 1029 173T1150 201V604L828 625L837 776H1362V76Q1290 48 1207 26T1028 -8T827 -20Z" />
<glyph unicode="H" horiz-adv-x="1555" d="M198 -1V1456H440V837H1114V1456H1358V-1H1114V659H440V-1H198Z" />
<glyph unicode="I" horiz-adv-x="993" d="M172 -2V139H373V1316H172V1456H813V1316H616V139H813V-2H172Z" />
<glyph unicode="J" horiz-adv-x="802" d="M166 -456L87 -272L229 -209Q269 -192 292 -173T325 -124T339 -41T342 95V1456H585V42Q585 -63 574 -133T531 -251T437 -337T275 -413L166 -456Z" />
<glyph unicode="K" horiz-adv-x="1354" d="M195 0V1456H437V797L1056 1456H1320V1439L745 826L1363 16V0H1092L567 695L437 566V0H195Z" />
<glyph unicode="L" horiz-adv-x="1129" d="M195 0V1456H437V170H1123L1113 0H195Z" />
<glyph unicode="M" horiz-adv-x="1838" d="M175 -2V518L199 1456H470L922 465L1375 1456H1640L1663 521V-2H1435V502L1428 1119L1006 190H830L411 1127L403 499V-2H175Z" />
<glyph unicode="N" horiz-adv-x="1553" d="M195 0V1456H432L1149 321L1137 729V1456H1359V0H1112L404 1115L421 685V0H195Z" />
<glyph unicode="O" horiz-adv-x="1631" d="M818 -20Q593 -20 444 69T220 325T146 721Q146 955 221 1124T447 1385T819 1476Q1038 1476 1186 1385T1409 1124T1485 720Q1485 493 1412 327T1190 70T818 -20ZM817 164Q968 164 1059 233T1191 427T1233 720Q1233 894
1191 1022T1058 1220T818 1291Q671 1291 578 1221T442 1023T398 720Q398 552 439 427T573 233T817 164Z" />
<glyph unicode="P" horiz-adv-x="1346" d="M195 0V1438Q315 1451 418 1457T609 1464Q794 1464 919 1439T1119 1361T1226 1231T1258 1049Q1258 947 1230 863T1132 719T941 625T631 592Q587 592 539 594T437 600V0H195ZM619 757Q792 757 881 792T1000 891T1031 1041Q1031
1101 1016 1149T958 1231T839 1283T637 1301Q594 1301 544 1299T437 1290V765Q489 761 534 759T619 757Z" />
<glyph unicode="Q" horiz-adv-x="1614" d="M1186 -466Q1172 -455 1140 -415T1066 -320T979 -203T896 -88T832 5T804 51L1015 82Q1023 68 1054 25T1127 -76T1212 -190T1290 -291T1341 -347L1186 -466ZM818 -20Q593 -20 444 69T220 325T146 721Q146 955 221 1124T447
1385T819 1476Q1038 1476 1186 1385T1409 1124T1485 720Q1485 493 1412 327T1190 70T818 -20ZM817 164Q968 164 1059 233T1191 427T1233 720Q1233 894 1191 1022T1058 1220T818 1291Q671 1291 578 1221T442 1023T398 720Q398 552 439 427T573 233T817 164Z" />
<glyph unicode="R" horiz-adv-x="1390" d="M198 0V1438Q287 1447 373 1453T539 1462T685 1465Q901 1465 1030 1426T1216 1298T1273 1062Q1273 950 1236 873T1131 749T973 678L1321 19V0H1060L734 640H440V0H198ZM440 806H680Q826 806 906 831T1019 912T1051 1060Q1051
1142 1021 1195T912 1274T690 1300Q637 1300 574 1297T440 1286V806Z" />
<glyph unicode="S" horiz-adv-x="1232" d="M607 -20Q484 -20 385 10T216 88T107 192L246 308H264Q324 235 415 200T599 164Q719 164 800 215T882 387Q882 448 860 486T783 557T628 631L420 717Q325 757 257 799T151 906T114 1075Q114 1191 155 1268T268 1391T431
1456T621 1476Q731 1476 821 1449T981 1374T1092 1264L950 1158H933Q885 1226 802 1262T621 1299Q550 1299 489 1281T392 1219T356 1099Q356 1050 374 1017T435 956T555 898L752 819Q867 772 949 723T1074 598T1118 391Q1118 279 1076 201T961 74T797 3T607 -20Z"
/>
<glyph unicode="T" horiz-adv-x="1183" d="M469 -1V1286H15V1456H1168V1286H712V-1H469Z" />
<glyph unicode="U" horiz-adv-x="1474" d="M734 -20Q537 -20 411 49T224 245T163 540V1457H406V549Q406 358 482 262T734 165Q906 165 985 261T1064 550V1457H1307V537Q1307 373 1245 247T1057 51T734 -20Z" />
<glyph unicode="V" horiz-adv-x="1426" d="M581 -2L59 1456H300Q352 1306 403 1157T505 859T607 559T707 256Q807 559 911 857T1119 1456H1367L825 -2H581Z" />
<glyph unicode="W" horiz-adv-x="1997" d="M447 0L70 1456H294L575 321L896 1433H1109L1429 310L1693 1456H1927L1549 0H1321L1004 1134L673 0H447Z" />
<glyph unicode="X" horiz-adv-x="1325" d="M31 -2L521 746L50 1456H317L672 922L1015 1456H1274L798 732L1287 -2H1018L649 553L281 -2H31Z" />
<glyph unicode="Y" horiz-adv-x="1360" d="M560 0V530L56 1456H296L680 747L1056 1456H1304L802 529V0H560Z" />
<glyph unicode="Z" horiz-adv-x="1210" d="M96 0V150L864 1286H126L120 1456H1126L1131 1303L377 170H1141L1140 0H96Z" />
<glyph unicode="[" horiz-adv-x="848" d="M221 -255V1591H679V1436H428V-98H679V-255H221Z" />
<glyph unicode="\" horiz-adv-x="937" d="M617 -8L96 1486H269L788 -8H617Z" />
<glyph unicode="]" horiz-adv-x="877" d="M221 -255V-98H473V1436H221V1591H679V-255H221Z" />
<glyph unicode="^" horiz-adv-x="1349" d="M96 291L618 1456H720L1253 291H1028L672 1105L320 291H96Z" />
<glyph unicode="_" horiz-adv-x="931" d="M0 -269V-122H931V-269H0Z" />
<glyph unicode="`" horiz-adv-x="968" d="M410 1209L93 1593H360L549 1209H410Z" />
<glyph unicode="a" horiz-adv-x="1131" d="M451 -19Q298 -19 202 59T105 297Q105 375 135 432T222 528T361 584T547 603H767V715Q767 833 711 885T546 938Q470 938 376 914T200 841L144 998Q205 1034 275 1057T419 1093T566 1105Q690 1105 786 1064T936 931T991
686V0H810L791 129Q750 82 700 49T589 -1T451 -19ZM502 126Q588 126 655 161T766 251V476H593Q495 476 434 457T345 399T316 297Q316 203 371 165T502 126Z" />
<glyph unicode="b" horiz-adv-x="1235" d="M671 -20Q562 -20 485 21T363 120L352 0H160V1540L387 1560V1119L380 899Q414 979 464 1024T576 1087T700 1105Q846 1105 940 1033T1081 834T1127 545Q1127 376 1075 249T921 51T671 -20ZM641 139Q726 139 782 186T867
324T895 544Q895 670 872 759T797 897T658 945Q567 945 505 901T413 771T382 561V260Q411 222 449 195T535 153T641 139Z" />
<glyph unicode="c" horiz-adv-x="1101" d="M618 -20Q462 -20 348 49T171 244T108 543Q108 716 171 841T348 1036T619 1105Q734 1105 812 1073T940 986T1018 867L884 792H871Q833 861 777 901T628 941Q536 941 472 896T374 762T340 543Q340 413 373 324T470 190T627
144Q719 144 775 183T869 290H882L1017 218Q989 154 940 100T812 13T618 -20Z" />
<glyph unicode="d" horiz-adv-x="1244" d="M566 -20Q416 -20 314 52T161 250T109 541Q109 710 162 836T319 1032T568 1103Q671 1103 740 1071T854 989L849 1149V1540L1081 1560V0H882L872 127Q818 56 737 18T566 -20ZM604 140Q683 140 747 167T854 250V832Q816
885 752 915T607 945Q543 945 494 921T410 847T359 721T341 543Q341 409 370 320T459 185T604 140Z" />
<glyph unicode="e" horiz-adv-x="1158" d="M645 -20Q490 -20 369 47T179 240T110 539Q110 717 177 843T359 1037T618 1105Q762 1105 858 1044T1005 872T1056 608Q1056 588 1054 562T1049 515T1046 492H340Q348 371 392 293T509 177T672 139Q763 139 831 165T965
230H979L1030 94Q964 45 865 13T645 -20ZM340 629H863Q861 784 804 865T628 947Q509 947 431 865T340 629Z" />
<glyph unicode="f" horiz-adv-x="782" d="M236 0V947H59L64 1062L236 1078V1161Q236 1307 277 1384T392 1490T567 1518Q652 1518 703 1509T761 1498L750 1350Q734 1353 699 1356T637 1359Q572 1359 534 1343T481 1283T465 1161V1082H736V947H465V0H236Z" />
<glyph unicode="g" horiz-adv-x="1219" d="M565 -493Q470 -493 381 -479T221 -440L238 -276H263Q327 -300 403 -314T546 -329Q644 -329 714 -299T821 -198T859 -3Q859 18 858 40T855 94Q800 36 723 11T565 -14Q464 -14 380 21T234 126T138 302T104 551Q104 684
139 787T237 961T385 1068T571 1105Q672 1105 743 1068T858 977L864 1082H1070V35Q1070 -100 1039 -199T945 -363T788 -461T565 -493ZM603 139Q640 139 676 146T743 165T802 197T848 241V827Q826 857 800 879T744 915T678 937T603 945Q541 945 492 921T407 848T354
725T335 551Q335 451 352 375T402 246T485 166T603 139Z" />
<glyph unicode="h" horiz-adv-x="1230" d="M159 0V1540L388 1560V1150L382 890Q434 1006 523 1055T727 1105Q904 1105 995 991T1086 671V0H856V652Q856 804 811 874T662 945Q586 945 534 918T449 844T402 734T387 602V0H159Z" />
<glyph unicode="i" horiz-adv-x="550" d="M170 0V1082H398V0H170ZM283 1316Q215 1316 177 1352T139 1453Q139 1515 177 1550T283 1586Q351 1586 389 1551T427 1453Q427 1388 389 1352T283 1316Z" />
<glyph unicode="j" horiz-adv-x="624" d="M47 -440L-8 -267L65 -245Q143 -222 177 -196T220 -122T229 14V1082H457V-17Q457 -120 437 -188T375 -301T268 -373T116 -422L47 -440ZM343 1316Q275 1316 237 1352T199 1453Q199 1515 237 1550T343 1586Q411 1586 449
1551T487 1453Q487 1388 449 1352T343 1316Z" />
<glyph unicode="k" horiz-adv-x="1131" d="M159 0V1540L388 1560V777L382 584L832 1082H1082V1060L655 589L1109 27V0H871L489 491L388 402V0H159Z" />
<glyph unicode="l" horiz-adv-x="673" d="M500 -9Q388 -9 315 19T206 119T170 323V1540L397 1560V323Q397 253 407 219T448 171T541 153Q556 152 570 151T600 149L587 -8Q560 -8 540 -8T500 -9Z" />
<glyph unicode="m" horiz-adv-x="1857" d="M155 0V1082H347L366 879Q414 992 498 1048T694 1105Q772 1105 835 1077T944 996T1013 864Q1063 982 1152 1043T1362 1105Q1532 1105 1622 998T1713 691V0H1485V639Q1485 722 1471 791T1418 903T1303 945Q1242 945 1184
905T1087 791T1048 613V0H820V613Q820 731 801 804T741 911T634 945Q563 945 510 907T425 799T383 638V0H155Z" />
<glyph unicode="n" horiz-adv-x="1224" d="M155 0V1082H348L366 883Q414 993 502 1049T720 1105Q903 1105 991 988T1079 657V0H851V655Q851 748 833 812T774 911T659 945Q588 945 536 921T451 852T401 747T384 615V0H155Z" />
<glyph unicode="o" horiz-adv-x="1226" d="M613 -20Q453 -20 340 50T168 248T108 543Q108 713 167 839T339 1035T613 1105Q775 1105 887 1035T1059 839T1118 543Q1118 375 1059 248T887 51T613 -20ZM613 139Q707 139 767 189T856 330T886 542Q886 666 857 756T768
895T613 945Q473 945 407 836T340 542Q340 420 369 330T459 189T613 139Z" />
<glyph unicode="p" horiz-adv-x="1236" d="M160 -463V1082H356L370 873Q410 986 494 1045T697 1105Q844 1105 939 1033T1080 835T1126 542Q1126 378 1073 251T918 52T673 -20Q574 -20 501 11T381 92L386 -64V-463H160ZM637 139Q701 139 749 164T829 239T878 366T895
544Q895 670 871 759T794 897T654 945Q564 945 506 904T417 791T382 620V260Q426 202 490 171T637 139Z" />
<glyph unicode="q" horiz-adv-x="1230" d="M850 -463V-30L853 91Q816 52 769 27T672 -9T571 -20Q419 -20 317 51T162 251T109 546Q109 711 163 837T321 1034T570 1105Q678 1105 753 1062T872 953L879 1082H1076V-463H850ZM608 139Q689 139 752 168T854 248V818Q811
882 747 913T602 945Q517 945 459 900T371 766T341 546Q341 442 358 365T410 238T493 164T608 139Z" />
<glyph unicode="r" horiz-adv-x="808" d="M159 0V1082H349L367 870Q422 996 501 1044T670 1093Q694 1093 715 1092T759 1086L743 912Q729 913 716 914T690 915Q594 915 526 876T423 769T387 613V0H159Z" />
<glyph unicode="s" horiz-adv-x="993" d="M515 -20Q376 -20 260 27T77 166L190 270H208Q266 195 348 166T504 137Q597 137 647 179T697 305Q697 336 686 361T639 410T534 455L405 498Q282 538 219 583T133 683T110 806Q110 945 218 1025T510 1105Q599 1105 671
1085T799 1027T890 935L776 840H765Q729 887 668 915T529 944Q463 944 422 928T360 881T340 808Q340 761 368 731T495 668L633 618Q749 579 808 532T887 432T908 318Q908 206 857 131T717 18T515 -20Z" />
<glyph unicode="t" horiz-adv-x="824" d="M599 -8Q476 -8 401 12T288 75T236 187T222 357V946H53L59 1070L228 1082L252 1379L448 1394V1082H736V946H448V353Q448 275 458 233T505 173T616 153Q646 152 676 151T738 148L729 -7Q697 -7 665 -7T599 -8Z" />
<glyph unicode="u" horiz-adv-x="1227" d="M529 -20Q340 -20 243 88T145 405V1082H373V420Q373 327 393 264T459 170T580 138Q654 138 705 160T790 213T843 269V1082H1070V0H874L862 142Q811 73 731 27T529 -20Z" />
<glyph unicode="v" horiz-adv-x="1086" d="M433 0L47 1082H281Q348 876 416 670T554 259Q619 465 684 671T814 1082H1043L663 0H433Z" />
<glyph unicode="w" horiz-adv-x="1537" d="M311 -2L22 1082H234L427 267L663 1082H886L1128 269L1313 1082H1515L1234 -2H1025L776 858L515 -2H311Z" />
<glyph unicode="x" horiz-adv-x="1068" d="M37 -2L415 547L58 1082H306L552 713L799 1082H1020L662 549L1029 -2H781L524 384L261 -2H37Z" />
<glyph unicode="y" horiz-adv-x="1132" d="M480 -424L290 -366L466 72L21 1082H253L578 305L885 1082H1101L480 -424Z" />
<glyph unicode="z" horiz-adv-x="998" d="M92 0V125L652 931H110L108 1082H892V949L345 158H901L904 0H92Z" />
<glyph unicode="{" horiz-adv-x="895" d="M767 -256Q688 -256 628 -249T523 -224T452 -170T411 -79T397 60V329Q397 419 388 475T336 557T192 583V754Q292 754 335 780T388 862T397 1008V1278Q397 1360 410 1416T451 1508T523 1561T627 1587T767 1594V1445Q697
1445 661 1431T613 1374T600 1241V942Q600 886 592 841T563 761T502 703T401 669Q463 658 502 635T562 578T592 498T600 395V98Q600 8 612 -35T661 -92T767 -106V-256Z" />
<glyph unicode="|" horiz-adv-x="700" d="M265 -432V1563H431V-432H265Z" />
<glyph unicode="}" horiz-adv-x="883" d="M126 -256V-106Q197 -106 232 -93T280 -36T293 98V395Q293 471 308 527T367 618T492 669Q430 680 391 703T331 760T301 840T293 942V1241Q293 1331 281 1374T233 1431T126 1445V1594Q205 1594 265 1587T370 1562T442 1508T483
1417T496 1278V1008Q496 919 505 863T558 780T701 754V583Q603 583 560 558T507 478T496 329V60Q496 -22 483 -78T442 -170T370 -223T266 -249T126 -256Z" />
<glyph unicode="~" horiz-adv-x="1000" d="M719 483Q665 483 610 505T485 566Q427 594 380 615T288 637Q229 637 183 591T109 474L40 562Q69 662 130 727T290 792Q347 792 396 772T516 714Q577 683 627 660T718 637Q770 637 817 679T891 795L960 713Q940 643 909
592T832 512T719 483Z" />
<glyph unicode="&#xa0;" horiz-adv-x="550" />
<glyph unicode="&#xa1;" horiz-adv-x="728" d="M405 692L467 -192V-355H247V-192L303 692H405ZM355 1150Q418 1150 451 1109T485 1015Q485 964 452 924T355 883Q292 883 259 923T225 1015Q225 1067 258 1108T355 1150Z" />
<glyph unicode="&#xa2;" horiz-adv-x="1090" d="M545 1053L554 1381H677L670 1053H545ZM543 -306L545 40H678L664 -306H543ZM618 -20Q462 -20 348 49T171 244T108 543Q108 716 171 841T348 1036T619 1105Q734 1105 812 1073T940 986T1018 867L884 792H871Q833
861 777 901T628 941Q536 941 472 896T374 762T340 543Q340 413 373 324T470 190T627 144Q719 144 775 183T869 290H882L1017 218Q989 154 940 100T812 13T618 -20Z" />
<glyph unicode="&#xa3;" horiz-adv-x="1164" d="M90 0L79 151L253 171V677H75V827H253V962Q253 1072 274 1169T344 1341T478 1458T687 1501Q783 1501 855 1479T976 1426T1053 1367L973 1222H955Q903 1260 850 1286T724 1313Q648 1313 596 1276T517 1165T490 979V827H848V677H490V173H1055L1045
0H90Z" />
<glyph unicode="&#xa4;" horiz-adv-x="1146" d="M1005 226L824 400Q772 358 709 335T572 311Q427 311 318 400L141 227L63 307L243 483Q206 536 187 598T167 727Q167 794 186 856T243 972L62 1151L141 1230L319 1057Q371 1099 436 1122T572 1146Q644 1146 708
1123T824 1056L1005 1230L1081 1148L901 972Q939 918 958 856T978 727Q978 591 902 483L1080 307L1005 226ZM572 426Q659 426 724 467T825 577T862 727Q862 810 826 879T724 989T572 1031Q487 1031 422 990T321 879T284 727Q284 646 320 577T422 467T572 426Z"
/>
<glyph unicode="&#xa5;" horiz-adv-x="1360" d="M240 515V634H1095V515H240ZM240 252V370H1095V252H240ZM560 0V530L56 1456H296L680 747L1056 1456H1304L802 529V0H560Z" />
<glyph unicode="&#xa6;" horiz-adv-x="700" d="M265 787V1563H431V787H265ZM265 -432V344H431V-432H265Z" />
<glyph unicode="&#xa7;" horiz-adv-x="1061" d="M517 -20Q432 -20 345 1T184 61V231Q235 205 290 184T404 151T522 139Q578 139 617 157T677 211T698 297Q698 332 678 361T599 422T419 495Q324 530 269 569T190 657T166 771Q166 834 194 887T270 981Q212 1026
187 1079T162 1199Q162 1274 189 1330T265 1424T380 1481T525 1500Q612 1500 695 1478T851 1416L805 1274Q759 1298 690 1319T545 1341Q478 1341 437 1325T377 1280T358 1209Q358 1173 374 1148T445 1096T619 1028Q727 991 784 949T864 853T887 727Q887 657 864
607T804 518Q848 476 866 425T885 308Q885 191 834 119T699 13T517 -20ZM681 592Q693 605 701 621T714 656T719 698Q719 730 704 757T651 810T546 858Q494 876 464 887T419 904T399 912Q379 902 366 886T346 848T339 800Q339 764 353 741T402 699T499 659Q556 640
592 627T648 606T681 592Z" />
<glyph unicode="&#xa8;" horiz-adv-x="979" d="M707 1295Q648 1295 617 1329T586 1417Q586 1469 616 1504T707 1539Q767 1539 797 1504T827 1417Q827 1363 797 1329T707 1295ZM251 1295Q191 1295 161 1329T130 1417Q130 1469 160 1504T251 1539Q310 1539 340 1504T370
1417Q370 1363 340 1329T251 1295Z" />
<glyph unicode="&#xa9;" horiz-adv-x="1733" d="M797 -31Q648 -31 511 20T267 170T97 409T34 727Q34 906 96 1047T266 1286T511 1436T797 1487Q947 1487 1085 1436T1332 1287T1506 1047T1570 727Q1570 550 1506 409T1333 170T1085 21T797 -31ZM817 240Q691 240
582 299T407 469T340 729Q340 876 406 986T579 1157T812 1218Q889 1218 961 1197T1099 1133L1054 1033Q999 1070 937 1087T819 1105Q728 1105 652 1060T531 931T485 732Q485 612 530 527T653 396T825 351Q883 351 941 366T1062 419L1101 321Q1038 281 965 261T817
240ZM797 77Q923 77 1039 121T1245 250T1389 455T1442 727Q1442 880 1389 1000T1246 1205T1039 1333T797 1378Q672 1378 557 1334T351 1205T209 1001T156 727Q156 575 208 455T351 250T556 121T797 77Z" />
<glyph unicode="&#xaa;" horiz-adv-x="964" d="M387 601Q256 601 174 668T91 872Q91 940 116 989T191 1071T310 1120T471 1136H660V1231Q660 1334 612 1378T470 1423Q404 1423 323 1403T172 1340L124 1475Q176 1506 236 1526T360 1557T487 1567Q593 1567 675 1531T805
1417T852 1207V617H697L680 728Q645 687 602 659T506 616T387 601ZM431 726Q506 726 564 756T659 834V1027H510Q425 1027 373 1011T297 960T272 872Q272 791 319 759T431 726Z" />
<glyph unicode="&#xab;" horiz-adv-x="1062" d="M374 142L93 556L377 975H570L296 559L563 142H374ZM761 142L480 556L763 975H955L682 559L950 142H761Z" />
<glyph unicode="&#xac;" horiz-adv-x="1000" d="M800 252V663H40V821H952V252H800Z" />
<glyph unicode="&#xae;" horiz-adv-x="1830" d="M914 -31Q767 -31 632 20T390 170T221 409T159 728Q159 907 221 1047T390 1286T632 1435T914 1487Q1060 1487 1196 1436T1439 1286T1608 1048T1671 728Q1671 550 1609 409T1440 170T1197 21T914 -31ZM914 77Q1038
77 1151 121T1354 249T1494 454T1546 728Q1546 880 1495 1000T1354 1205T1152 1334T914 1379Q790 1379 677 1335T476 1206T337 1001T285 728Q285 575 336 455T476 250T677 121T914 77ZM621 302V1202H924Q1035 1202 1106 1179T1212 1104T1247 963Q1247 866 1202
807T1053 729L1285 302H1136L921 717H752V302H621ZM753 819H928Q1033 819 1076 850T1119 958Q1119 1048 1073 1070T914 1093H753V819Z" />
<glyph unicode="&#xaf;" horiz-adv-x="1117" d="M237 1315V1433H855V1315H237Z" />
<glyph unicode="&#xb0;" horiz-adv-x="863" d="M427 893Q341 893 272 932T163 1040T123 1194Q123 1278 163 1345T273 1450T427 1488Q514 1488 583 1450T693 1345T734 1194Q734 1112 695 1044T586 934T427 893ZM427 1009Q500 1009 552 1058T604 1193Q604 1275 552
1324T428 1374Q357 1374 305 1325T252 1193Q252 1108 304 1059T427 1009Z" />
<glyph unicode="&#xb1;" horiz-adv-x="1000" d="M412 249V625H46V781H412V1153H574V781H936V625H574V249H412ZM33 0V146H965V0H33Z" />
<glyph unicode="&#xb2;" horiz-adv-x="801" d="M153 624V744Q204 794 243 829T325 904T427 1009Q476 1066 505 1120T534 1228Q534 1289 498 1327T392 1366Q329 1366 277 1339T183 1264L116 1362Q171 1429 246 1462T416 1495Q487 1495 548 1464T646 1373T684 1226Q684
1141 649 1070T553 935Q516 896 490 871T433 818T354 745H690L679 624H153Z" />
<glyph unicode="&#xb3;" horiz-adv-x="878" d="M411 610Q336 610 264 631T138 692L192 811Q230 777 285 757T407 736Q471 736 522 767T574 869Q574 935 531 969T409 1004H289V1129H406Q491 1129 527 1163T564 1254Q564 1312 520 1340T414 1369Q352 1369 297 1351T196
1298L145 1400Q199 1444 276 1468T436 1492Q507 1492 570 1470T674 1398T714 1267Q714 1197 673 1145T558 1075Q630 1059 678 1002T726 865Q726 779 681 722T564 638T411 610Z" />
<glyph unicode="&#xb4;" horiz-adv-x="748" d="M319 1209L510 1593H768L459 1209H319Z" />
<glyph unicode="&#xb5;" horiz-adv-x="1215" d="M147 -298V1082H375V420Q375 327 395 264T461 170T582 138Q656 138 707 160T792 213T844 269V1082H1072V0H875L863 142Q815 76 740 33T553 -11Q447 -11 375 25V-298H147Z" />
<glyph unicode="&#xb6;" horiz-adv-x="1172" d="M517 -218V742Q376 742 289 792T163 924T123 1096Q123 1171 146 1236T222 1350T364 1428T584 1456H955V-218H813V1324H659V-218H517Z" />
<glyph unicode="&#xb7;" horiz-adv-x="635" d="M375 492Q317 492 281 528T244 625Q244 684 280 719T375 755Q432 755 468 720T505 625Q505 565 469 529T375 492Z" />
<glyph unicode="&#xb8;" horiz-adv-x="704" d="M379 -420Q295 -420 217 -386L251 -291Q282 -304 312 -310T368 -317Q428 -317 467 -289T506 -211Q506 -178 485 -152T403 -126Q393 -126 381 -127T354 -131V-73Q408 -52 462 -52Q534 -52 582 -93T631 -217Q631 -312
558 -366T379 -420Z" />
<glyph unicode="&#xb9;" horiz-adv-x="758" d="M144 610V737H305V1317Q285 1305 252 1289T187 1260T135 1242V1371Q163 1382 204 1402T284 1444T340 1480H464V737H622V610H144Z" />
<glyph unicode="&#xba;" horiz-adv-x="1054" d="M528 599Q389 599 292 660T144 830T93 1083Q93 1230 143 1338T291 1507T528 1567Q666 1567 763 1507T910 1339T961 1083Q961 939 910 830T762 660T528 599ZM528 736Q608 736 659 779T736 900T762 1083Q762 1189
737 1266T660 1386T528 1429Q407 1429 350 1336T292 1083Q292 977 317 900T395 779T528 736Z" />
<glyph unicode="&#xbb;" horiz-adv-x="1062" d="M482 142L750 559L476 975H669L952 557L670 142H482ZM96 142L364 559L92 975H284L566 557L285 142H96Z" />
<glyph unicode="&#xbc;" horiz-adv-x="1800" d="M144 610V737H305V1317Q285 1305 252 1289T187 1260T135 1242V1371Q163 1382 204 1402T284 1444T340 1480H464V737H622V610H144ZM378 0L1317 1486H1476L540 0H378ZM1495 -8V192H1099V319L1486 870H1639V313H1760L1756
192H1638V-8H1495ZM1247 313H1495V685L1247 313Z" />
<glyph unicode="&#xbd;" horiz-adv-x="1876" d="M144 610V737H305V1317Q285 1305 252 1289T187 1260T135 1242V1371Q163 1382 204 1402T284 1444T340 1480H464V737H622V610H144ZM378 0L1317 1486H1476L540 0H378ZM1228 0V120Q1279 170 1318 205T1400 280T1502
385Q1551 442 1580 496T1609 604Q1609 665 1573 703T1467 742Q1404 742 1352 715T1258 640L1191 738Q1246 805 1321 838T1491 871Q1562 871 1623 840T1721 749T1759 602Q1759 517 1724 446T1628 311Q1591 272 1565 247T1508 194T1429 121H1765L1754 0H1228Z" />
<glyph unicode="&#xbe;" horiz-adv-x="1920" d="M411 610Q336 610 264 631T138 692L192 811Q230 777 285 757T407 736Q471 736 522 767T574 869Q574 935 531 969T409 1004H289V1129H406Q491 1129 527 1163T564 1254Q564 1312 520 1340T414 1369Q352 1369 297 1351T196
1298L145 1400Q199 1444 276 1468T436 1492Q507 1492 570 1470T674 1398T714 1267Q714 1197 673 1145T558 1075Q630 1059 678 1002T726 865Q726 779 681 722T564 638T411 610ZM498 0L1437 1486H1596L660 0H498ZM1615 -8V192H1219V319L1606 870H1759V313H1880L1876
192H1758V-8H1615ZM1367 313H1615V685L1367 313Z" />
<glyph unicode="&#xbf;" horiz-adv-x="962" d="M556 765Q552 666 526 587T463 442T390 317T329 202T305 86Q305 -5 351 -53T485 -101Q535 -101 581 -88T667 -55T733 -19L783 -184Q741 -218 689 -243T577 -281T456 -294Q360 -294 277 -257T142 -142T91 58Q91 151
118 217T190 338T285 451T384 583T463 765H556ZM510 1223Q574 1223 607 1185T640 1094Q640 1041 607 1003T510 965Q446 965 414 1003T382 1094Q382 1148 414 1185T510 1223Z" />
<glyph unicode="&#xc0;" horiz-adv-x="1452" d="M61 0L589 1456H860L1390 0H1148L992 429H456L303 0H61ZM507 597H942L725 1237L507 597ZM649 1595L332 1979H599L788 1595H649Z" />
<glyph unicode="&#xc1;" horiz-adv-x="1452" d="M61 0L589 1456H860L1390 0H1148L992 429H456L303 0H61ZM507 597H942L725 1237L507 597ZM651 1583L842 1967H1100L791 1583H651Z" />
<glyph unicode="&#xc2;" horiz-adv-x="1452" d="M61 0L589 1456H860L1390 0H1148L992 429H456L303 0H61ZM507 597H942L725 1237L507 597ZM415 1582L616 1967H838L1038 1582H851L727 1831L601 1582H415Z" />
<glyph unicode="&#xc3;" horiz-adv-x="1452" d="M61 0L589 1456H860L1390 0H1148L992 429H456L303 0H61ZM507 597H942L725 1237L507 597ZM410 1660Q410 1710 421 1753T455 1828T510 1879T589 1897Q652 1897 705 1875T801 1832T873 1810Q896 1810 911 1828T935
1896H1043Q1043 1847 1033 1804T1002 1729T950 1678T878 1660Q825 1660 772 1684T670 1734T586 1759Q560 1759 543 1736T516 1660H410Z" />
<glyph unicode="&#xc4;" horiz-adv-x="1452" d="M61 0L589 1456H860L1390 0H1148L992 429H456L303 0H61ZM507 597H942L725 1237L507 597ZM955 1669Q896 1669 865 1703T834 1791Q834 1843 864 1878T955 1913Q1015 1913 1045 1878T1075 1791Q1075 1737 1045 1703T955
1669ZM499 1669Q439 1669 409 1703T378 1791Q378 1843 408 1878T499 1913Q558 1913 588 1878T618 1791Q618 1737 588 1703T499 1669Z" />
<glyph unicode="&#xc5;" horiz-adv-x="1452" d="M61 0L589 1456H860L1390 0H1148L992 429H456L303 0H61ZM507 597H942L725 1237L507 597ZM726 1586Q636 1586 581 1644T525 1783Q525 1862 580 1919T726 1977Q818 1977 874 1920T930 1783Q930 1703 874 1645T726
1586ZM726 1678Q770 1678 796 1709T823 1782Q823 1822 797 1853T726 1885Q683 1885 658 1854T632 1782Q632 1739 657 1709T726 1678Z" />
<glyph unicode="&#xc6;" horiz-adv-x="1720" d="M-67 0L741 1456H1641L1631 1286H1038V840H1583V670H1038V173H1659L1648 0H828V435H416L182 0H-67ZM492 591H828V1228L492 591Z" />
<glyph unicode="&#xc7;" horiz-adv-x="1475" d="M814 -20Q610 -20 459 68T226 323T143 730Q143 967 225 1134T459 1390T814 1478Q902 1478 981 1459T1126 1405T1243 1320T1329 1209T1378 1079L1202 1016H1183Q1165 1097 1117 1160T995 1260T828 1296Q734 1296
655 1264T517 1163T427 987T395 730Q395 535 449 409T600 222T827 160Q920 160 994 197T1118 297T1186 441H1205L1381 378Q1367 309 1333 248T1247 138T1129 53T984 -1T814 -20ZM710 -420Q626 -420 548 -386L582 -291Q613 -304 643 -310T699 -317Q759 -317 798
-289T837 -211Q837 -178 816 -152T734 -126Q724 -126 712 -127T685 -131V-73Q739 -52 793 -52Q865 -52 913 -93T962 -217Q962 -312 889 -366T710 -420Z" />
<glyph unicode="&#xc8;" horiz-adv-x="1322" d="M195 0V1456H1175L1165 1283H437V839H1117V664H437V177H1192L1182 0H195ZM608 1595L291 1979H558L747 1595H608Z" />
<glyph unicode="&#xc9;" horiz-adv-x="1322" d="M195 0V1456H1175L1165 1283H437V839H1117V664H437V177H1192L1182 0H195ZM610 1583L801 1967H1059L750 1583H610Z" />
<glyph unicode="&#xca;" horiz-adv-x="1322" d="M195 0V1456H1175L1165 1283H437V839H1117V664H437V177H1192L1182 0H195ZM374 1582L575 1967H797L997 1582H810L686 1831L560 1582H374Z" />
<glyph unicode="&#xcb;" horiz-adv-x="1322" d="M195 0V1456H1175L1165 1283H437V839H1117V664H437V177H1192L1182 0H195ZM914 1669Q855 1669 824 1703T793 1791Q793 1843 823 1878T914 1913Q974 1913 1004 1878T1034 1791Q1034 1737 1004 1703T914 1669ZM458
1669Q398 1669 368 1703T337 1791Q337 1843 367 1878T458 1913Q517 1913 547 1878T577 1791Q577 1737 547 1703T458 1669Z" />
<glyph unicode="&#xcc;" horiz-adv-x="993" d="M172 -2V139H373V1316H172V1456H813V1316H616V139H813V-2H172ZM420 1595L103 1979H370L559 1595H420Z" />
<glyph unicode="&#xcd;" horiz-adv-x="993" d="M172 -2V139H373V1316H172V1456H813V1316H616V139H813V-2H172ZM422 1583L613 1967H871L562 1583H422Z" />
<glyph unicode="&#xce;" horiz-adv-x="993" d="M172 -2V139H373V1316H172V1456H813V1316H616V139H813V-2H172ZM186 1582L387 1967H609L809 1582H622L498 1831L372 1582H186Z" />
<glyph unicode="&#xcf;" horiz-adv-x="993" d="M172 -2V139H373V1316H172V1456H813V1316H616V139H813V-2H172ZM726 1669Q667 1669 636 1703T605 1791Q605 1843 635 1878T726 1913Q786 1913 816 1878T846 1791Q846 1737 816 1703T726 1669ZM270 1669Q210 1669 180
1703T149 1791Q149 1843 179 1878T270 1913Q329 1913 359 1878T389 1791Q389 1737 359 1703T270 1669Z" />
<glyph unicode="&#xd0;" horiz-adv-x="1514" d="M61 674V835H615V674H61ZM505 -11Q434 -11 357 -6T195 9V1439Q298 1451 390 1457T563 1463Q802 1463 959 1416T1206 1276T1333 1051T1371 748Q1371 580 1327 441T1184 200T917 44T505 -11ZM569 161Q737 161 846
203T1019 323T1107 507T1133 743Q1133 866 1112 967T1033 1142T872 1256T599 1296Q562 1296 522 1294T437 1287V168Q473 165 506 163T569 161Z" />
<glyph unicode="&#xd1;" horiz-adv-x="1553" d="M195 0V1456H432L1149 321L1137 729V1456H1359V0H1112L404 1115L421 685V0H195ZM460 1660Q460 1710 471 1753T505 1828T560 1879T639 1897Q702 1897 755 1875T851 1832T923 1810Q946 1810 961 1828T985 1896H1093Q1093
1847 1083 1804T1052 1729T1000 1678T928 1660Q875 1660 822 1684T720 1734T636 1759Q610 1759 593 1736T566 1660H460Z" />
<glyph unicode="&#xd2;" horiz-adv-x="1631" d="M818 -20Q593 -20 444 69T220 325T146 721Q146 955 221 1124T447 1385T819 1476Q1038 1476 1186 1385T1409 1124T1485 720Q1485 493 1412 327T1190 70T818 -20ZM817 164Q968 164 1059 233T1191 427T1233 720Q1233
894 1191 1022T1058 1220T818 1291Q671 1291 578 1221T442 1023T398 720Q398 552 439 427T573 233T817 164ZM738 1595L421 1979H688L877 1595H738Z" />
<glyph unicode="&#xd3;" horiz-adv-x="1631" d="M818 -20Q593 -20 444 69T220 325T146 721Q146 955 221 1124T447 1385T819 1476Q1038 1476 1186 1385T1409 1124T1485 720Q1485 493 1412 327T1190 70T818 -20ZM817 164Q968 164 1059 233T1191 427T1233 720Q1233
894 1191 1022T1058 1220T818 1291Q671 1291 578 1221T442 1023T398 720Q398 552 439 427T573 233T817 164ZM740 1583L931 1967H1189L880 1583H740Z" />
<glyph unicode="&#xd4;" horiz-adv-x="1631" d="M818 -20Q593 -20 444 69T220 325T146 721Q146 955 221 1124T447 1385T819 1476Q1038 1476 1186 1385T1409 1124T1485 720Q1485 493 1412 327T1190 70T818 -20ZM817 164Q968 164 1059 233T1191 427T1233 720Q1233
894 1191 1022T1058 1220T818 1291Q671 1291 578 1221T442 1023T398 720Q398 552 439 427T573 233T817 164ZM504 1582L705 1967H927L1127 1582H940L816 1831L690 1582H504Z" />
<glyph unicode="&#xd5;" horiz-adv-x="1631" d="M818 -20Q593 -20 444 69T220 325T146 721Q146 955 221 1124T447 1385T819 1476Q1038 1476 1186 1385T1409 1124T1485 720Q1485 493 1412 327T1190 70T818 -20ZM817 164Q968 164 1059 233T1191 427T1233 720Q1233
894 1191 1022T1058 1220T818 1291Q671 1291 578 1221T442 1023T398 720Q398 552 439 427T573 233T817 164ZM499 1660Q499 1710 510 1753T544 1828T599 1879T678 1897Q741 1897 794 1875T890 1832T962 1810Q985 1810 1000 1828T1024 1896H1132Q1132 1847 1122 1804T1091
1729T1039 1678T967 1660Q914 1660 861 1684T759 1734T675 1759Q649 1759 632 1736T605 1660H499Z" />
<glyph unicode="&#xd6;" horiz-adv-x="1631" d="M818 -20Q593 -20 444 69T220 325T146 721Q146 955 221 1124T447 1385T819 1476Q1038 1476 1186 1385T1409 1124T1485 720Q1485 493 1412 327T1190 70T818 -20ZM817 164Q968 164 1059 233T1191 427T1233 720Q1233
894 1191 1022T1058 1220T818 1291Q671 1291 578 1221T442 1023T398 720Q398 552 439 427T573 233T817 164ZM1044 1669Q985 1669 954 1703T923 1791Q923 1843 953 1878T1044 1913Q1104 1913 1134 1878T1164 1791Q1164 1737 1134 1703T1044 1669ZM588 1669Q528 1669
498 1703T467 1791Q467 1843 497 1878T588 1913Q647 1913 677 1878T707 1791Q707 1737 677 1703T588 1669Z" />
<glyph unicode="&#xd7;" horiz-adv-x="1000" d="M245 293L113 430L369 688L114 947L243 1078L501 820L758 1077L890 943L635 685L889 431L759 297L504 552L245 293Z" />
<glyph unicode="&#xd8;" horiz-adv-x="1632" d="M527 -252L416 -212L510 36Q327 114 237 291T146 721Q146 955 221 1124T447 1385T819 1476Q945 1476 1043 1445L1140 1701L1256 1656L1158 1400Q1320 1313 1402 1139T1485 720Q1485 493 1412 327T1190 70T818 -20Q765
-20 716 -15T623 0L527 -252ZM585 235L975 1266Q941 1278 902 1284T818 1291Q671 1291 578 1221T442 1023T398 720Q398 551 441 425T585 235ZM817 164Q968 164 1059 233T1191 427T1233 720Q1233 880 1197 1002T1080 1196L692 180Q746 164 817 164Z" />
<glyph unicode="&#xd9;" horiz-adv-x="1474" d="M734 -20Q537 -20 411 49T224 245T163 540V1457H406V549Q406 358 482 262T734 165Q906 165 985 261T1064 550V1457H1307V537Q1307 373 1245 247T1057 51T734 -20ZM660 1595L343 1979H610L799 1595H660Z" />
<glyph unicode="&#xda;" horiz-adv-x="1474" d="M734 -20Q537 -20 411 49T224 245T163 540V1457H406V549Q406 358 482 262T734 165Q906 165 985 261T1064 550V1457H1307V537Q1307 373 1245 247T1057 51T734 -20ZM662 1583L853 1967H1111L802 1583H662Z" />
<glyph unicode="&#xdb;" horiz-adv-x="1474" d="M734 -20Q537 -20 411 49T224 245T163 540V1457H406V549Q406 358 482 262T734 165Q906 165 985 261T1064 550V1457H1307V537Q1307 373 1245 247T1057 51T734 -20ZM426 1582L627 1967H849L1049 1582H862L738 1831L612
1582H426Z" />
<glyph unicode="&#xdc;" horiz-adv-x="1474" d="M734 -20Q537 -20 411 49T224 245T163 540V1457H406V549Q406 358 482 262T734 165Q906 165 985 261T1064 550V1457H1307V537Q1307 373 1245 247T1057 51T734 -20ZM966 1669Q907 1669 876 1703T845 1791Q845 1843
875 1878T966 1913Q1026 1913 1056 1878T1086 1791Q1086 1737 1056 1703T966 1669ZM510 1669Q450 1669 420 1703T389 1791Q389 1843 419 1878T510 1913Q569 1913 599 1878T629 1791Q629 1737 599 1703T510 1669Z" />
<glyph unicode="&#xdd;" horiz-adv-x="1360" d="M560 0V530L56 1456H296L680 747L1056 1456H1304L802 529V0H560ZM605 1583L796 1967H1054L745 1583H605Z" />
<glyph unicode="&#xde;" horiz-adv-x="1276" d="M185 0V1484H428V1205H586Q766 1205 887 1170T1071 1053T1133 834Q1133 698 1082 605T914 464T598 416H428V0H185ZM428 583H579Q702 583 770 608T867 687T895 826Q895 885 878 925T825 991T732 1028T593 1040H428V583Z" />
<glyph unicode="&#xdf;" horiz-adv-x="1297" d="M868 -20Q781 -20 688 1T524 55L575 211Q612 191 680 171T819 150Q874 150 909 170T962 226T979 305Q979 367 944 415T857 505T754 588T667 677T631 783Q631 846 660 892T727 982T794 1076T823 1199Q823 1275 775
1318T638 1361Q511 1361 446 1286T381 1046V1H153V1058Q153 1205 209 1311T372 1474T628 1531Q748 1531 840 1492T984 1378T1036 1200Q1036 1118 1005 1056T931 948T857 867T825 803Q825 773 864 743T961 674T1076 585T1173 465T1212 305Q1212 154 1124 67T868
-20Z" />
<glyph unicode="&#xe0;" horiz-adv-x="1131" d="M451 -19Q298 -19 202 59T105 297Q105 375 135 432T222 528T361 584T547 603H767V715Q767 833 711 885T546 938Q470 938 376 914T200 841L144 998Q205 1034 275 1057T419 1093T566 1105Q690 1105 786 1064T936 931T991
686V0H810L791 129Q750 82 700 49T589 -1T451 -19ZM502 126Q588 126 655 161T766 251V476H593Q495 476 434 457T345 399T316 297Q316 203 371 165T502 126ZM488 1221L171 1605H438L627 1221H488Z" />
<glyph unicode="&#xe1;" horiz-adv-x="1131" d="M451 -19Q298 -19 202 59T105 297Q105 375 135 432T222 528T361 584T547 603H767V715Q767 833 711 885T546 938Q470 938 376 914T200 841L144 998Q205 1034 275 1057T419 1093T566 1105Q690 1105 786 1064T936 931T991
686V0H810L791 129Q750 82 700 49T589 -1T451 -19ZM502 126Q588 126 655 161T766 251V476H593Q495 476 434 457T345 399T316 297Q316 203 371 165T502 126ZM490 1209L681 1593H939L630 1209H490Z" />
<glyph unicode="&#xe2;" horiz-adv-x="1131" d="M451 -19Q298 -19 202 59T105 297Q105 375 135 432T222 528T361 584T547 603H767V715Q767 833 711 885T546 938Q470 938 376 914T200 841L144 998Q205 1034 275 1057T419 1093T566 1105Q690 1105 786 1064T936 931T991
686V0H810L791 129Q750 82 700 49T589 -1T451 -19ZM502 126Q588 126 655 161T766 251V476H593Q495 476 434 457T345 399T316 297Q316 203 371 165T502 126ZM254 1208L455 1593H677L877 1208H690L566 1457L440 1208H254Z" />
<glyph unicode="&#xe3;" horiz-adv-x="1131" d="M451 -19Q298 -19 202 59T105 297Q105 375 135 432T222 528T361 584T547 603H767V715Q767 833 711 885T546 938Q470 938 376 914T200 841L144 998Q205 1034 275 1057T419 1093T566 1105Q690 1105 786 1064T936 931T991
686V0H810L791 129Q750 82 700 49T589 -1T451 -19ZM502 126Q588 126 655 161T766 251V476H593Q495 476 434 457T345 399T316 297Q316 203 371 165T502 126ZM249 1286Q249 1336 260 1379T294 1454T349 1505T428 1523Q491 1523 544 1501T640 1458T712 1436Q735 1436
750 1454T774 1522H882Q882 1473 872 1430T841 1355T789 1304T717 1286Q664 1286 611 1310T509 1360T425 1385Q399 1385 382 1362T355 1286H249Z" />
<glyph unicode="&#xe4;" horiz-adv-x="1131" d="M451 -19Q298 -19 202 59T105 297Q105 375 135 432T222 528T361 584T547 603H767V715Q767 833 711 885T546 938Q470 938 376 914T200 841L144 998Q205 1034 275 1057T419 1093T566 1105Q690 1105 786 1064T936 931T991
686V0H810L791 129Q750 82 700 49T589 -1T451 -19ZM502 126Q588 126 655 161T766 251V476H593Q495 476 434 457T345 399T316 297Q316 203 371 165T502 126ZM794 1295Q735 1295 704 1329T673 1417Q673 1469 703 1504T794 1539Q854 1539 884 1504T914 1417Q914 1363
884 1329T794 1295ZM338 1295Q278 1295 248 1329T217 1417Q217 1469 247 1504T338 1539Q397 1539 427 1504T457 1417Q457 1363 427 1329T338 1295Z" />
<glyph unicode="&#xe5;" horiz-adv-x="1131" d="M451 -19Q298 -19 202 59T105 297Q105 375 135 432T222 528T361 584T547 603H767V715Q767 833 711 885T546 938Q470 938 376 914T200 841L144 998Q205 1034 275 1057T419 1093T566 1105Q690 1105 786 1064T936 931T991
686V0H810L791 129Q750 82 700 49T589 -1T451 -19ZM502 126Q588 126 655 161T766 251V476H593Q495 476 434 457T345 399T316 297Q316 203 371 165T502 126ZM565 1212Q475 1212 420 1270T364 1409Q364 1488 419 1545T565 1603Q657 1603 713 1546T769 1409Q769 1329
713 1271T565 1212ZM565 1304Q609 1304 635 1335T662 1408Q662 1448 636 1479T565 1511Q522 1511 497 1480T471 1408Q471 1365 496 1335T565 1304Z" />
<glyph unicode="&#xe6;" horiz-adv-x="1682" d="M1228 -20Q1130 -20 1054 4T922 76T829 188Q785 112 717 67T568 2T405 -19Q303 -19 226 16T107 123T64 297Q64 376 91 437T173 541T308 605T496 627Q520 627 561 627T647 624T730 617V712Q730 835 675 885T510 936Q436
936 343 913T157 834L88 974Q190 1036 294 1069T523 1102Q611 1102 679 1082T793 1020T861 908Q899 975 953 1018T1074 1081T1221 1102Q1320 1102 1393 1074T1514 998T1585 889T1609 760Q1609 641 1550 577T1386 487T1143 459Q1094 459 1042 461T935 467Q945 341
988 269T1101 168T1255 139Q1352 139 1423 166T1560 233L1614 94Q1548 45 1448 13T1228 -20ZM459 126Q537 126 598 150T703 217T766 315Q757 340 751 368T741 427T736 487Q679 493 620 496T534 499Q436 499 379 475T298 405T274 298Q274 234 303 197T374 143T459
126ZM937 609Q987 606 1030 604T1110 602Q1250 603 1318 623T1408 678T1430 754Q1430 806 1411 850T1348 920T1226 946Q1145 946 1083 910T983 800T937 609Z" />
<glyph unicode="&#xe7;" horiz-adv-x="1101" d="M618 -20Q462 -20 348 49T171 244T108 543Q108 716 171 841T348 1036T619 1105Q734 1105 812 1073T940 986T1018 867L884 792H871Q833 861 777 901T628 941Q536 941 472 896T374 762T340 543Q340 413 373 324T470
190T627 144Q719 144 775 183T869 290H882L1017 218Q989 154 940 100T812 13T618 -20ZM523 -420Q439 -420 361 -386L395 -291Q426 -304 456 -310T512 -317Q572 -317 611 -289T650 -211Q650 -178 629 -152T547 -126Q537 -126 525 -127T498 -131V-73Q552 -52 606
-52Q678 -52 726 -93T775 -217Q775 -312 702 -366T523 -420Z" />
<glyph unicode="&#xe8;" horiz-adv-x="1158" d="M645 -20Q490 -20 369 47T179 240T110 539Q110 717 177 843T359 1037T618 1105Q762 1105 858 1044T1005 872T1056 608Q1056 588 1054 562T1049 515T1046 492H340Q348 371 392 293T509 177T672 139Q763 139 831 165T965
230H979L1030 94Q964 45 865 13T645 -20ZM340 629H863Q861 784 804 865T628 947Q509 947 431 865T340 629ZM546 1221L229 1605H496L685 1221H546Z" />
<glyph unicode="&#xe9;" horiz-adv-x="1158" d="M645 -20Q490 -20 369 47T179 240T110 539Q110 717 177 843T359 1037T618 1105Q762 1105 858 1044T1005 872T1056 608Q1056 588 1054 562T1049 515T1046 492H340Q348 371 392 293T509 177T672 139Q763 139 831 165T965
230H979L1030 94Q964 45 865 13T645 -20ZM340 629H863Q861 784 804 865T628 947Q509 947 431 865T340 629ZM548 1209L739 1593H997L688 1209H548Z" />
<glyph unicode="&#xea;" horiz-adv-x="1158" d="M645 -20Q490 -20 369 47T179 240T110 539Q110 717 177 843T359 1037T618 1105Q762 1105 858 1044T1005 872T1056 608Q1056 588 1054 562T1049 515T1046 492H340Q348 371 392 293T509 177T672 139Q763 139 831 165T965
230H979L1030 94Q964 45 865 13T645 -20ZM340 629H863Q861 784 804 865T628 947Q509 947 431 865T340 629ZM312 1208L513 1593H735L935 1208H748L624 1457L498 1208H312Z" />
<glyph unicode="&#xeb;" horiz-adv-x="1158" d="M645 -20Q490 -20 369 47T179 240T110 539Q110 717 177 843T359 1037T618 1105Q762 1105 858 1044T1005 872T1056 608Q1056 588 1054 562T1049 515T1046 492H340Q348 371 392 293T509 177T672 139Q763 139 831 165T965
230H979L1030 94Q964 45 865 13T645 -20ZM340 629H863Q861 784 804 865T628 947Q509 947 431 865T340 629ZM852 1295Q793 1295 762 1329T731 1417Q731 1469 761 1504T852 1539Q912 1539 942 1504T972 1417Q972 1363 942 1329T852 1295ZM396 1295Q336 1295 306 1329T275
1417Q275 1469 305 1504T396 1539Q455 1539 485 1504T515 1417Q515 1363 485 1329T396 1295Z" />
<glyph unicode="&#xec;" horiz-adv-x="550" d="M170 0V1082H398V0H170ZM206 1221L-111 1605H156L345 1221H206Z" />
<glyph unicode="&#xed;" horiz-adv-x="550" d="M170 0V1082H398V0H170ZM464 1209L655 1593H913L604 1209H464Z" />
<glyph unicode="&#xee;" horiz-adv-x="550" d="M170 0V1082H398V0H170ZM-28 1208L173 1593H395L595 1208H408L284 1457L158 1208H-28Z" />
<glyph unicode="&#xef;" horiz-adv-x="550" d="M170 0V1082H398V0H170ZM462 1295Q403 1295 372 1329T341 1417Q341 1469 371 1504T462 1539Q522 1539 552 1504T582 1417Q582 1363 552 1329T462 1295ZM106 1295Q46 1295 16 1329T-15 1417Q-15 1469 15 1504T106
1539Q165 1539 195 1504T225 1417Q225 1363 195 1329T106 1295Z" />
<glyph unicode="&#xf0;" horiz-adv-x="1219" d="M604 -21Q484 -21 390 18T230 128T131 289T97 485Q97 630 157 738T325 907T574 967Q629 967 672 954T749 922T810 885Q783 931 741 988T641 1111T508 1250L258 1152L197 1287L404 1369L189 1574H421L563 1434L852
1547L917 1413L672 1319Q762 1224 841 1133T981 944T1076 736T1110 492Q1109 343 1053 227T885 45T604 -21ZM610 144Q761 144 839 238T917 491Q917 578 881 652T775 772T604 817Q508 817 440 775T337 657T301 487Q301 396 335 318T438 192T610 144Z" />
<glyph unicode="&#xf1;" horiz-adv-x="1224" d="M155 0V1082H348L366 883Q414 993 502 1049T720 1105Q903 1105 991 988T1079 657V0H851V655Q851 748 833 812T774 911T659 945Q588 945 536 921T451 852T401 747T384 615V0H155ZM295 1286Q295 1336 306 1379T340
1454T395 1505T474 1523Q537 1523 590 1501T686 1458T758 1436Q781 1436 796 1454T820 1522H928Q928 1473 918 1430T887 1355T835 1304T763 1286Q710 1286 657 1310T555 1360T471 1385Q445 1385 428 1362T401 1286H295Z" />
<glyph unicode="&#xf2;" horiz-adv-x="1226" d="M613 -20Q453 -20 340 50T168 248T108 543Q108 713 167 839T339 1035T613 1105Q775 1105 887 1035T1059 839T1118 543Q1118 375 1059 248T887 51T613 -20ZM613 139Q707 139 767 189T856 330T886 542Q886 666 857
756T768 895T613 945Q473 945 407 836T340 542Q340 420 369 330T459 189T613 139ZM536 1221L219 1605H486L675 1221H536Z" />
<glyph unicode="&#xf3;" horiz-adv-x="1226" d="M613 -20Q453 -20 340 50T168 248T108 543Q108 713 167 839T339 1035T613 1105Q775 1105 887 1035T1059 839T1118 543Q1118 375 1059 248T887 51T613 -20ZM613 139Q707 139 767 189T856 330T886 542Q886 666 857
756T768 895T613 945Q473 945 407 836T340 542Q340 420 369 330T459 189T613 139ZM538 1209L729 1593H987L678 1209H538Z" />
<glyph unicode="&#xf4;" horiz-adv-x="1226" d="M613 -20Q453 -20 340 50T168 248T108 543Q108 713 167 839T339 1035T613 1105Q775 1105 887 1035T1059 839T1118 543Q1118 375 1059 248T887 51T613 -20ZM613 139Q707 139 767 189T856 330T886 542Q886 666 857
756T768 895T613 945Q473 945 407 836T340 542Q340 420 369 330T459 189T613 139ZM302 1208L503 1593H725L925 1208H738L614 1457L488 1208H302Z" />
<glyph unicode="&#xf5;" horiz-adv-x="1226" d="M613 -20Q453 -20 340 50T168 248T108 543Q108 713 167 839T339 1035T613 1105Q775 1105 887 1035T1059 839T1118 543Q1118 375 1059 248T887 51T613 -20ZM613 139Q707 139 767 189T856 330T886 542Q886 666 857
756T768 895T613 945Q473 945 407 836T340 542Q340 420 369 330T459 189T613 139ZM297 1286Q297 1336 308 1379T342 1454T397 1505T476 1523Q539 1523 592 1501T688 1458T760 1436Q783 1436 798 1454T822 1522H930Q930 1473 920 1430T889 1355T837 1304T765 1286Q712
1286 659 1310T557 1360T473 1385Q447 1385 430 1362T403 1286H297Z" />
<glyph unicode="&#xf6;" horiz-adv-x="1226" d="M613 -20Q453 -20 340 50T168 248T108 543Q108 713 167 839T339 1035T613 1105Q775 1105 887 1035T1059 839T1118 543Q1118 375 1059 248T887 51T613 -20ZM613 139Q707 139 767 189T856 330T886 542Q886 666 857
756T768 895T613 945Q473 945 407 836T340 542Q340 420 369 330T459 189T613 139ZM842 1295Q783 1295 752 1329T721 1417Q721 1469 751 1504T842 1539Q902 1539 932 1504T962 1417Q962 1363 932 1329T842 1295ZM386 1295Q326 1295 296 1329T265 1417Q265 1469 295
1504T386 1539Q445 1539 475 1504T505 1417Q505 1363 475 1329T386 1295Z" />
<glyph unicode="&#xf7;" horiz-adv-x="1000" d="M63 501V664H938V501H63ZM389 28V263H613V28H389ZM389 889V1118H617V889H389Z" />
<glyph unicode="&#xf8;" horiz-adv-x="1218" d="M271 -167L202 -124L927 1245L1002 1203L271 -167ZM613 -20Q453 -20 340 50T168 248T108 543Q108 713 167 839T339 1035T613 1105Q775 1105 887 1035T1059 839T1118 543Q1118 375 1059 248T887 51T613 -20ZM613
139Q707 139 767 189T856 330T886 542Q886 666 857 756T768 895T613 945Q473 945 407 836T340 542Q340 420 369 330T459 189T613 139Z" />
<glyph unicode="&#xf9;" horiz-adv-x="1227" d="M529 -20Q340 -20 243 88T145 405V1082H373V420Q373 327 393 264T459 170T580 138Q654 138 705 160T790 213T843 269V1082H1070V0H874L862 142Q811 73 731 27T529 -20ZM537 1221L220 1605H487L676 1221H537Z" />
<glyph unicode="&#xfa;" horiz-adv-x="1227" d="M529 -20Q340 -20 243 88T145 405V1082H373V420Q373 327 393 264T459 170T580 138Q654 138 705 160T790 213T843 269V1082H1070V0H874L862 142Q811 73 731 27T529 -20ZM539 1209L730 1593H988L679 1209H539Z" />
<glyph unicode="&#xfb;" horiz-adv-x="1227" d="M529 -20Q340 -20 243 88T145 405V1082H373V420Q373 327 393 264T459 170T580 138Q654 138 705 160T790 213T843 269V1082H1070V0H874L862 142Q811 73 731 27T529 -20ZM303 1208L504 1593H726L926 1208H739L615
1457L489 1208H303Z" />
<glyph unicode="&#xfc;" horiz-adv-x="1227" d="M529 -20Q340 -20 243 88T145 405V1082H373V420Q373 327 393 264T459 170T580 138Q654 138 705 160T790 213T843 269V1082H1070V0H874L862 142Q811 73 731 27T529 -20ZM843 1295Q784 1295 753 1329T722 1417Q722
1469 752 1504T843 1539Q903 1539 933 1504T963 1417Q963 1363 933 1329T843 1295ZM387 1295Q327 1295 297 1329T266 1417Q266 1469 296 1504T387 1539Q446 1539 476 1504T506 1417Q506 1363 476 1329T387 1295Z" />
<glyph unicode="&#xfd;" horiz-adv-x="1132" d="M480 -424L290 -366L466 72L21 1082H253L578 305L885 1082H1101L480 -424ZM491 1209L682 1593H940L631 1209H491Z" />
<glyph unicode="&#xfe;" horiz-adv-x="1246" d="M170 -452V402H388V-452H170ZM680 -20Q572 -20 495 21T372 120L362 0H170V1540L397 1560V1119L389 899Q424 979 474 1024T586 1087T710 1105Q856 1105 950 1033T1091 834T1137 545Q1137 376 1084 249T930 51T680
-20ZM650 139Q736 139 792 186T877 324T905 544Q905 670 882 759T807 897T668 945Q576 945 515 901T422 771T391 561V260Q420 222 458 195T545 153T650 139Z" />
<glyph unicode="&#xff;" horiz-adv-x="1132" d="M480 -424L290 -366L466 72L21 1082H253L578 305L885 1082H1101L480 -424ZM795 1295Q736 1295 705 1329T674 1417Q674 1469 704 1504T795 1539Q855 1539 885 1504T915 1417Q915 1363 885 1329T795 1295ZM339 1295Q279
1295 249 1329T218 1417Q218 1469 248 1504T339 1539Q398 1539 428 1504T458 1417Q458 1363 428 1329T339 1295Z" />
<glyph unicode="&#x2013;" horiz-adv-x="1280" d="M89 502V656H1192V502H89Z" />
<glyph unicode="&#x2014;" horiz-adv-x="2157" d="M60 498V658H2097V498H60Z" />
<glyph unicode="&#x2018;" horiz-adv-x="526" d="M147 1023L260 1516H411L367 1023H147Z" />
<glyph unicode="&#x2019;" horiz-adv-x="526" d="M147 1023L190 1516H411L298 1023H147Z" />
<glyph unicode="&#x201a;" horiz-adv-x="476" d="M100 -330L150 156H360L245 -330H100Z" />
<glyph unicode="&#x201c;" horiz-adv-x="924" d="M519 1023L632 1516H783L740 1023H519ZM147 1023L260 1516H411L367 1023H147Z" />
<glyph unicode="&#x201d;" horiz-adv-x="924" d="M519 1023L563 1516H783L670 1023H519ZM147 1023L190 1516H411L298 1023H147Z" />
<glyph unicode="&#x201e;" horiz-adv-x="817" d="M445 -330L490 156H700L586 -330H445ZM108 -330L155 156H362L251 -330H108Z" />
<glyph unicode="&#x2022;" horiz-adv-x="926" d="M451 392Q364 392 290 432T172 548T127 725Q127 828 172 904T293 1022T458 1064Q546 1064 620 1024T738 909T783 730Q783 627 737 551T616 434T451 392Z" />
<glyph unicode="&#x2039;" horiz-adv-x="683" d="M385 140L105 555L390 977H596L319 557L589 140H385Z" />
<glyph unicode="&#x203a;" horiz-adv-x="793" d="M148 140L421 569L144 1008H349L640 570L353 140H148Z" />
</font>
</defs>
</svg>
