<?xml version="1.0" standalone="no"?>
<!DOCTYPE svg PUBLIC "-//W3C//DTD SVG 1.1//EN" "http://www.w3.org/Graphics/SVG/1.1/DTD/svg11.dtd">
<svg xmlns="http://www.w3.org/2000/svg">
<defs >
<font id="Comme" horiz-adv-x="1192" ><font-face
    font-family="Comme"
    units-per-em="2048"
    panose-1="0 0 0 0 0 0 0 0 0 0"
    ascent="1957"
    descent="-501"
    alphabetic="0" />
<glyph unicode=" " horiz-adv-x="596" />
<glyph unicode="!" horiz-adv-x="753" d="M292 472L223 1323V1544H516V1323L455 472H292ZM371 -9Q304 -9 261 38T218 148Q218 212 261 258T371 304Q438 304 480 258T523 148Q523 86 481 39T371 -9Z" />
<glyph unicode="&quot;" horiz-adv-x="831" d="M560 929L472 1551H748L702 929H560ZM181 929L92 1551H368L323 929H181Z" />
<glyph unicode="#" horiz-adv-x="1121" d="M156 -3L237 440H64L82 565H260L330 955H138L155 1082H352L426 1483H587L512 1082H747L820 1483H983L908 1082H1070L1051 955H886L817 565H985L969 440H794L711 -3H550L632 440H396L316 -3H156ZM421 565H654L724 955H490L421
565Z" />
<glyph unicode="$" horiz-adv-x="1227" d="M539 -283V54H694L700 -283H539ZM532 1434L534 1770H690V1434H532ZM624 -20Q485 -20 379 15T202 109T98 233L299 375H327Q367 298 444 261T601 223Q689 223 750 263T812 392Q812 439 797 470T737 530T608 594L389 683Q305
718 242 763T144 880T109 1060Q109 1174 150 1253T263 1382T428 1454T622 1477Q758 1477 857 1440T1022 1343T1115 1215L897 1103H875Q844 1177 779 1213T638 1250Q587 1250 542 1234T470 1182T443 1088Q443 1045 460 1016T517 964T626 913L805 840Q912 797 990
747T1109 618T1151 408Q1151 300 1111 220T998 86T830 7T624 -20Z" />
<glyph unicode="%" horiz-adv-x="2094" d="M513 0L1363 1513H1579L737 0H513ZM491 719Q368 719 282 773T150 920T105 1127Q105 1242 151 1333T283 1479T491 1533Q614 1533 703 1480T841 1335T889 1127Q889 1013 840 920T702 773T491 719ZM495 893Q556 893 598
924T663 1010T685 1131Q685 1233 636 1298T495 1364Q433 1364 390 1333T323 1250T300 1131Q300 1064 323 1010T389 925T495 893ZM1605 -30Q1482 -30 1393 24T1257 172T1209 380Q1209 494 1257 585T1395 730T1605 783Q1729 783 1818 731T1956 587T2004 380Q2004
265 1955 172T1817 25T1605 -30ZM1610 145Q1671 145 1713 177T1778 262T1800 382Q1800 485 1750 550T1610 616Q1548 616 1504 585T1437 501T1414 382Q1414 315 1437 262T1504 177T1610 145Z" />
<glyph unicode="&amp;" horiz-adv-x="1415" d="M1183 -37L1024 138Q940 68 837 26T601 -16Q511 -16 420 11T254 92T134 228T88 416Q88 508 119 578T198 702T299 795T398 865Q363 896 325 944T261 1054T235 1183Q235 1304 293 1383T444 1500T644 1539Q711 1539
780 1522T908 1468T1002 1372T1037 1227Q1037 1138 993 1064T877 933T719 836L1043 479Q1095 549 1143 628T1238 795L1417 669Q1391 624 1355 563T1277 436T1191 313L1370 116L1183 -37ZM607 201Q678 201 744 226T876 306L531 688Q492 661 452 626T386 544T360
432Q360 354 392 303T481 226T607 201ZM606 978Q648 1000 687 1037T752 1121T778 1216Q778 1283 742 1311T645 1339Q591 1339 549 1306T506 1201Q506 1168 515 1135T545 1063T606 978Z" />
<glyph unicode="&apos;" horiz-adv-x="585" d="M218 917L134 1543H408L365 917H218Z" />
<glyph unicode="(" horiz-adv-x="879" d="M700 -299H440Q384 -231 334 -127T243 106T180 373T157 648Q157 785 180 924T243 1191T334 1424T440 1596H700V1555Q651 1502 602 1423T512 1235T448 980T423 648Q423 462 447 315T512 57T601 -134T700 -269V-299Z" />
<glyph unicode=")" horiz-adv-x="904" d="M156 -299V-269Q206 -215 255 -135T344 57T408 315T433 648Q433 834 409 979T344 1234T255 1423T156 1555V1596H416Q471 1529 522 1424T613 1191T676 924T699 648Q699 512 676 373T614 106T523 -126T416 -299H156Z" />
<glyph unicode="*" horiz-adv-x="1025" d="M344 501L133 621L372 939L29 1019L95 1250L432 1104L398 1508H632L599 1104L938 1250L1005 1019L657 939L897 621L691 499L513 835L344 501Z" />
<glyph unicode="+" horiz-adv-x="1000" d="M384 187V574H19V790H384V1169H617V790H981V574H617V187H384Z" />
<glyph unicode="," horiz-adv-x="669" d="M186 -340L224 271H496V114Q483 69 471 24T447 -67T423 -158T399 -249T374 -340H186Z" />
<glyph unicode="-" horiz-adv-x="939" d="M149 448V650H794V448H149Z" />
<glyph unicode="." horiz-adv-x="712" d="M351 -7Q285 -7 240 30T195 146Q195 225 240 263T351 302Q419 302 463 264T508 146Q508 69 464 31T351 -7Z" />
<glyph unicode="/" horiz-adv-x="1010" d="M73 -175L715 1560H920L275 -175H73Z" />
<glyph unicode="0" horiz-adv-x="1352" d="M678 -20Q493 -20 362 71T161 328T92 724Q92 954 162 1123T363 1384T678 1476Q861 1476 991 1384T1190 1123T1260 724Q1260 495 1192 329T993 71T678 -20ZM678 226Q750 226 801 283T881 451T909 725Q909 847 893 940T847
1098T774 1196T678 1230Q607 1230 554 1170T472 996T443 725Q443 604 459 511T506 354T580 259T678 226Z" />
<glyph unicode="1" horiz-adv-x="1352" d="M194 0V226H570V1170Q515 1145 448 1121T314 1079T197 1054V1273Q244 1286 301 1305T418 1350T529 1402T618 1456H913V226H1244V0H194Z" />
<glyph unicode="2" horiz-adv-x="1352" d="M227 0L176 223L717 755Q768 805 801 848T850 934T866 1028Q866 1076 850 1114T805 1179T737 1219T653 1233Q554 1233 459 1186T299 1063H275L125 1224Q179 1288 257 1346T436 1440T656 1476Q794 1476 891 1439T1050
1338T1140 1193T1169 1024Q1169 948 1143 877T1058 728T899 555L554 228H1157L1148 0H227Z" />
<glyph unicode="3" horiz-adv-x="1230" d="M571 -20Q471 -20 379 5T211 78T86 194L220 358H243Q274 321 321 291T426 242T547 223Q656 223 712 276T768 423Q768 490 745 532T676 596T568 628T425 637H344L322 836L422 837Q496 837 556 845T658 877T723 943T746
1055Q746 1114 723 1152T654 1210T542 1230Q460 1230 392 1198T263 1096L243 1100L95 1256Q136 1317 205 1367T365 1446T561 1476Q707 1476 820 1436T999 1311T1064 1095Q1064 1025 1041 956T957 833T781 758Q901 741 972 688T1075 561T1106 410Q1106 297 1062
216T941 82T769 5T571 -20Z" />
<glyph unicode="4" horiz-adv-x="1352" d="M716 0V335H126L102 537L663 1456H1052V553H1259L1245 335H1052V0H716ZM357 548H715V1140L357 548Z" />
<glyph unicode="5" horiz-adv-x="1352" d="M680 -20Q552 -20 455 8T288 87T171 206L329 382H348Q381 328 430 294T535 245T647 230Q730 230 784 263T866 353T893 480Q893 549 869 606T795 698T672 733Q594 733 543 703T468 611L220 655L280 1456H1124L1094 1231H546L503
874Q547 912 604 932T748 953Q863 953 949 913T1093 804T1180 652T1209 482Q1209 348 1147 234T966 50T680 -20Z" />
<glyph unicode="6" horiz-adv-x="1352" d="M678 -20Q550 -20 450 16T280 118T175 272T139 464Q139 556 159 630T217 774T306 914L685 1456H1040V1427Q928 1280 818 1132T590 840Q628 863 676 880T784 897Q863 897 940 870T1080 788T1180 648T1217 447Q1217 311
1153 206T968 40T678 -20ZM678 206Q746 206 794 238T868 326T894 456Q894 533 868 590T795 679T679 711Q636 711 597 695T528 647T480 567T462 454Q462 382 488 326T562 238T678 206Z" />
<glyph unicode="7" horiz-adv-x="1352" d="M325 0L828 1221H193L181 1456H1173L1178 1220L673 0H325Z" />
<glyph unicode="8" horiz-adv-x="1352" d="M680 -20Q515 -20 394 27T207 165T140 385Q140 532 209 632T399 775Q295 811 232 894T168 1112Q168 1231 235 1312T417 1434T678 1476Q824 1476 938 1435T1119 1312T1186 1112Q1186 980 1127 898T966 776Q1081 734 1146
633T1212 385Q1212 255 1148 165T964 28T680 -20ZM680 187Q784 187 830 239T877 400Q877 510 823 586T680 689Q621 671 576 631T504 532T478 399Q478 293 528 240T680 187ZM680 834Q772 868 820 937T869 1097Q869 1181 819 1227T680 1274Q592 1274 538 1227T484
1097Q484 1006 536 937T680 834Z" />
<glyph unicode="9" horiz-adv-x="1352" d="M332 0V29L623 420L773 605Q734 585 687 572T591 559Q512 559 434 586T293 669T192 810T154 1011Q154 1147 220 1252T407 1417T696 1476Q824 1476 924 1440T1095 1339T1200 1185T1236 993Q1236 901 1215 826T1156 683T1064
543L676 0H332ZM692 745Q736 745 775 761T845 809T894 890T912 1002Q912 1075 886 1131T812 1219T695 1251Q628 1251 579 1219T504 1131T477 1002Q477 887 533 816T692 745Z" />
<glyph unicode=":" horiz-adv-x="696" d="M353 797Q286 797 239 836T191 951Q191 1027 237 1068T353 1109Q423 1109 469 1068T515 951Q515 877 469 837T353 797ZM353 -7Q286 -7 239 32T191 147Q191 223 237 264T353 305Q423 305 469 264T515 147Q515 73 469 33T353 -7Z" />
<glyph unicode=";" horiz-adv-x="753" d="M214 -340L252 271H523V114Q511 69 499 24T474 -67T450 -158T426 -249T401 -340H214ZM381 797Q314 797 267 836T219 950Q219 1027 265 1068T381 1109Q451 1109 497 1068T543 950Q543 877 497 837T381 797Z" />
<glyph unicode="&lt;" horiz-adv-x="1000" d="M845 179L155 603V834L844 1266V1000L378 723L845 452V179Z" />
<glyph unicode="=" horiz-adv-x="1000" d="M101 357V563H899V357H101ZM101 780V984H899V780H101Z" />
<glyph unicode="&gt;" horiz-adv-x="1000" d="M191 179V452L658 723L191 1000V1266L880 834V603L191 179Z" />
<glyph unicode="?" horiz-adv-x="1041" d="M365 468Q364 575 387 656T445 800T515 916T575 1017T599 1118Q599 1182 562 1221T447 1260Q402 1260 356 1250T268 1222T189 1184L115 1405Q164 1452 228 1481T360 1524T489 1538Q596 1538 688 1498T836 1376T893 1171Q893
1076 861 1009T779 886T671 775T562 646T478 468H365ZM424 -18Q353 -18 313 24T272 133Q272 200 312 242T424 284Q494 284 533 242T572 133Q572 66 533 24T424 -18Z" />
<glyph unicode="@" horiz-adv-x="2007" d="M993 -140Q744 -140 554 -44T258 237T151 680Q151 867 218 1028T408 1310T697 1498T1061 1566Q1233 1566 1381 1513T1641 1362T1815 1126T1878 820Q1878 682 1840 578T1741 405T1605 300T1458 265Q1401 265 1351 291T1265
367T1214 487Q1177 386 1103 321T928 256Q808 256 732 307T618 446T581 638Q581 737 613 832T707 1006T861 1130T1069 1176Q1139 1176 1208 1163T1337 1129T1434 1089Q1420 982 1404 884T1377 701T1366 552Q1366 494 1392 462T1458 429Q1506 429 1552 473T1629
606T1660 828Q1660 935 1624 1033T1513 1208T1324 1330T1054 1375Q896 1375 772 1319T562 1164T432 940T387 676Q387 499 458 356T665 130T996 47Q1128 47 1258 73T1492 159L1551 9Q1485 -41 1395 -74T1201 -123T993 -140ZM945 425Q1009 425 1050 461T1117 570T1159
758L1197 998Q1171 1003 1139 1006T1085 1010Q1002 1010 940 956T845 815T811 625Q811 526 845 476T945 425Z" />
<glyph unicode="A" horiz-adv-x="1517" d="M58 0L552 1456H968L1459 0H1118L987 382H524L398 0H58ZM588 596H927L760 1174L588 596Z" />
<glyph unicode="B" horiz-adv-x="1428" d="M598 -1Q509 -1 404 3T178 17V1447Q248 1452 321 1455T465 1461T593 1465T688 1466Q842 1466 956 1445T1144 1379T1255 1263T1292 1095Q1292 1022 1262 960T1174 852T1027 783Q1188 754 1261 669T1334 433Q1334 326 1300
245T1184 109T960 27T598 -1ZM633 222Q739 222 809 234T920 273T978 344T996 453Q996 543 962 589T861 651T691 667H518V226Q548 224 577 223T633 222ZM518 870H699Q771 870 825 886T910 944T941 1054Q941 1135 912 1178T819 1237T646 1253Q618 1253 585 1252T518
1248V870Z" />
<glyph unicode="C" horiz-adv-x="1558" d="M841 -20Q617 -20 456 67T210 323T124 732Q124 968 209 1134T455 1389T839 1478Q959 1478 1053 1451T1217 1378T1335 1275T1412 1158T1453 1042L1205 955H1180Q1162 1037 1122 1102T1017 1204T857 1241Q784 1241 717
1218T598 1137T515 981T484 732Q484 544 531 431T661 266T852 215Q947 215 1014 252T1122 353T1181 500H1206L1454 413Q1442 356 1414 296T1339 180T1223 78T1059 7T841 -20Z" />
<glyph unicode="D" horiz-adv-x="1543" d="M496 -12Q423 -12 344 -7T178 6V1450Q275 1458 362 1462T528 1466Q779 1466 950 1425T1224 1297T1372 1077T1418 755Q1418 585 1373 445T1223 202T939 44T496 -12ZM588 230Q732 230 829 266T983 371T1065 535T1090 750Q1090
851 1074 939T1007 1094T860 1200T602 1239Q583 1239 562 1238T518 1234V234Q536 232 554 231T588 230Z" />
<glyph unicode="E" horiz-adv-x="1349" d="M178 0V1456H1202L1186 1228H517V862H1158V633H517V235H1221L1215 0H178Z" />
<glyph unicode="F" horiz-adv-x="1243" d="M178 0V1456H1179L1164 1218H518V832H1115V604H518V0H178Z" />
<glyph unicode="G" horiz-adv-x="1569" d="M836 -20Q614 -20 454 67T209 322T124 729Q124 966 211 1133T459 1388T844 1477Q1003 1477 1118 1436T1310 1322T1426 1158L1208 1039H1185Q1159 1090 1119 1136T1019 1211T872 1240Q743 1240 657 1185T528 1016T484
729Q484 584 514 485T598 327T727 241T891 214Q970 214 1032 225T1139 253V575L829 596L838 791H1421V81Q1353 55 1262 32T1062 -6T836 -20Z" />
<glyph unicode="H" horiz-adv-x="1582" d="M179 0V1456H519V861H1063V1456H1403V0H1063V632H519V0H179Z" />
<glyph unicode="I" horiz-adv-x="1034" d="M135 -5V180H349V1271H135V1456H896V1271H688V180H896V-5H135Z" />
<glyph unicode="J" horiz-adv-x="813" d="M104 -544L-12 -284L166 -198Q208 -179 232 -155T268 -87T283 30T287 225V1456H626V69Q626 -42 614 -122T565 -262T453 -374T254 -480L104 -544Z" />
<glyph unicode="K" horiz-adv-x="1423" d="M178 0V1456H518V868L1003 1456H1373V1446L840 804L1426 9V0H1047L592 620L518 541V0H178Z" />
<glyph unicode="L" horiz-adv-x="1182" d="M178 0V1456H518V219H1168L1150 0H178Z" />
<glyph unicode="M" horiz-adv-x="1885" d="M160 -5V585L182 1456H534L947 602L1359 1456H1703L1726 591V-5H1406V541L1399 972L1045 223H833L484 974L476 538V-5H160Z" />
<glyph unicode="N" horiz-adv-x="1612" d="M178 0V1456H501L1134 464L1118 851V1456H1434V0H1099L485 957L502 576V0H178Z" />
<glyph unicode="O" horiz-adv-x="1652" d="M828 -21Q601 -21 444 66T206 320T125 722Q125 960 206 1128T445 1387T828 1477Q1053 1477 1209 1387T1446 1128T1527 723Q1527 488 1447 322T1212 67T828 -21ZM828 225Q944 225 1018 284T1129 454T1166 721Q1166 879
1130 993T1018 1168T828 1230Q714 1230 638 1169T524 994T485 721Q485 565 522 454T636 284T828 225Z" />
<glyph unicode="P" horiz-adv-x="1424" d="M178 0V1447Q292 1456 391 1461T578 1466Q801 1466 950 1439T1187 1357T1312 1218T1349 1020Q1349 904 1316 812T1205 655T998 556T674 522Q638 522 599 523T518 527V0H178ZM636 743Q797 743 881 777T995 871T1026 1005Q1026
1058 1012 1103T958 1181T840 1232T636 1250Q611 1250 581 1249T518 1245V748Q550 745 579 744T636 743Z" />
<glyph unicode="Q" horiz-adv-x="1648" d="M1228 -515Q1195 -488 1151 -440T1056 -333T957 -210T867 -90T799 12T765 76L1064 114Q1086 79 1119 34T1192 -63T1275 -166T1361 -262T1442 -340L1228 -515ZM828 -21Q601 -21 444 66T206 320T125 722Q125 960 206 1128T445
1387T828 1477Q1053 1477 1209 1387T1446 1128T1527 723Q1527 488 1447 322T1212 67T828 -21ZM828 225Q944 225 1018 284T1129 454T1166 721Q1166 879 1130 993T1018 1168T828 1230Q714 1230 638 1169T524 994T485 721Q485 565 522 454T636 284T828 225Z" />
<glyph unicode="R" horiz-adv-x="1465" d="M180 0V1447Q266 1454 364 1458T556 1464T723 1466Q950 1466 1084 1430T1278 1301T1337 1043Q1337 925 1298 849T1197 730T1060 665L1406 17V0H1037L723 615H519V0H180ZM519 825H730Q841 825 906 846T999 915T1028 1047Q1028
1121 998 1165T903 1228T737 1247Q688 1247 633 1244T519 1235V825Z" />
<glyph unicode="S" horiz-adv-x="1253" d="M624 -20Q485 -20 379 15T202 109T98 233L299 375H327Q367 298 444 261T601 223Q689 223 750 263T812 392Q812 439 797 470T737 530T608 594L389 683Q305 718 242 763T144 880T109 1060Q109 1174 150 1253T263 1382T428
1454T622 1477Q758 1477 857 1440T1022 1343T1115 1215L897 1103H875Q844 1177 779 1213T638 1250Q587 1250 542 1234T470 1182T443 1088Q443 1045 460 1016T517 964T626 913L805 840Q912 797 990 747T1109 618T1151 408Q1151 300 1111 220T998 86T830 7T624 -20Z"
/>
<glyph unicode="T" horiz-adv-x="1251" d="M456 0V1238H34V1456H1217V1238H795V0H456Z" />
<glyph unicode="U" horiz-adv-x="1512" d="M752 -20Q551 -20 417 47T216 238T149 535V1456H488V554Q488 383 553 305T752 226Q887 226 955 305T1023 555V1456H1362V534Q1362 364 1293 240T1089 48T752 -20Z" />
<glyph unicode="V" horiz-adv-x="1393" d="M494 -5L22 1456H353Q395 1315 437 1174T523 892T608 609T690 324Q776 608 864 890T1040 1456H1371L868 -5H494Z" />
<glyph unicode="W" horiz-adv-x="2032" d="M412 0L55 1456H379L595 446L875 1445H1150L1431 439L1650 1456H1977L1599 0H1290L1013 1020L723 0H412Z" />
<glyph unicode="X" horiz-adv-x="1392" d="M2 -5L508 761L45 1456H416L717 1003L1004 1456H1367L894 737L1388 -5H1017L684 496L353 -5H2Z" />
<glyph unicode="Y" horiz-adv-x="1351" d="M506 0V557L17 1456H369L674 874L981 1456H1335L845 560V0H506Z" />
<glyph unicode="Z" horiz-adv-x="1249" d="M104 0V183L781 1237H131L117 1456H1147L1148 1261L502 219H1164L1173 0H104Z" />
<glyph unicode="[" horiz-adv-x="845" d="M228 -292V1620H678V1411H482V-81H678V-292H228Z" />
<glyph unicode="\" horiz-adv-x="937" d="M582 11L94 1501H328L813 11H582Z" />
<glyph unicode="]" horiz-adv-x="937" d="M228 -292V-81H424V1411H228V1620H678V-292H228Z" />
<glyph unicode="^" horiz-adv-x="1456" d="M105 278L645 1456H783L1352 278H1035L721 974L421 278H105Z" />
<glyph unicode="_" horiz-adv-x="980" d="M0 -282V-99H980V-282H0Z" />
<glyph unicode="`" horiz-adv-x="1045" d="M419 1208L86 1608H421L600 1208H419Z" />
<glyph unicode="a" horiz-adv-x="1152" d="M428 -18Q279 -18 185 62T90 302Q90 392 129 453T234 551T383 603T553 619H724V704Q724 798 674 838T536 878Q463 878 372 855T193 790L129 987Q202 1024 279 1050T434 1089T586 1102Q714 1102 815 1057T976 912T1036
649V0H797L766 122Q728 82 680 51T570 1T428 -18ZM526 161Q592 161 642 187T722 248V469H624Q552 469 496 454T409 404T377 306Q377 228 422 195T526 161Z" />
<glyph unicode="b" horiz-adv-x="1266" d="M730 -20Q617 -20 545 27T434 131L425 0H144V1540L462 1560V1140L453 934Q483 993 527 1030T628 1085T750 1103Q895 1103 989 1030T1130 832T1177 548Q1177 381 1127 253T978 53T730 -20ZM662 188Q719 188 762 225T829
342T854 548Q854 675 834 751T774 860T677 894Q616 894 567 863T488 760T459 564V281Q480 255 506 234T571 200T662 188Z" />
<glyph unicode="c" horiz-adv-x="1124" d="M635 -20Q467 -20 345 48T156 243T89 542Q89 715 156 840T346 1034T637 1103Q745 1103 824 1074T959 989T1053 848L877 755H864Q826 824 773 855T647 884Q578 884 524 850T440 740T409 542Q409 418 439 343T522 234T645
199Q718 197 770 227T862 327H875L1051 235Q1013 151 957 95T822 9T635 -20Z" />
<glyph unicode="d" horiz-adv-x="1270" d="M531 -20Q385 -20 287 52T141 251T92 536Q92 703 141 830T290 1030T537 1102Q638 1102 704 1067T811 982L806 1141V1540L1124 1560V0H841L833 146Q789 71 713 26T531 -20ZM607 189Q672 189 724 215T807 291V805Q778 843
732 869T616 896Q574 896 538 879T473 822T429 712T412 536Q412 406 437 330T506 222T607 189Z" />
<glyph unicode="e" horiz-adv-x="1188" d="M658 -20Q487 -20 359 48T160 242T89 541Q89 716 156 841T343 1035T623 1103Q787 1103 888 1038T1039 856T1092 585Q1092 553 1089 526T1084 480T1080 458H408Q417 370 455 310T556 219T695 188Q780 188 853 213T989
277H1006L1075 109Q1011 52 901 16T658 -20ZM403 632H824Q823 773 775 835T635 898Q540 898 476 836T403 632Z" />
<glyph unicode="f" horiz-adv-x="823" d="M197 0V899H42L47 1057L197 1077V1159Q197 1302 247 1380T382 1489T571 1520Q680 1520 742 1509T822 1493L811 1299Q773 1304 741 1307T682 1310Q627 1310 590 1297T536 1250T518 1159V1082H785V899H518V0H197Z" />
<glyph unicode="g" horiz-adv-x="1246" d="M578 -506Q475 -506 380 -495T202 -458L225 -249H252Q320 -271 391 -284T525 -297Q615 -297 683 -271T788 -183T826 -16Q826 1 825 23T818 96Q773 49 702 22T532 -5Q453 -5 374 21T230 111T126 284T87 560Q87 701 125
804T228 973T375 1071T543 1103Q640 1103 704 1069T808 986L811 1082H1117V2Q1117 -131 1077 -227T965 -385T795 -476T578 -506ZM612 188Q639 188 666 193T719 207T765 229T803 259V808Q785 829 766 845T725 872T676 888T618 894Q578 894 541 879T474 827T426 725T408
559Q408 463 422 393T462 278T526 210T612 188Z" />
<glyph unicode="h" horiz-adv-x="1261" d="M144 0V1540L465 1560V1156L459 909Q504 1005 584 1054T782 1103Q961 1103 1048 989T1135 672V0H813V634Q813 781 776 837T661 894Q613 894 577 876T515 823T477 735T464 615V0H144Z" />
<glyph unicode="i" horiz-adv-x="596" d="M144 0V1082H465V0H144ZM302 1288Q220 1288 173 1332T125 1455Q125 1529 172 1572T302 1615Q385 1615 432 1572T479 1455Q479 1377 432 1333T302 1288Z" />
<glyph unicode="j" horiz-adv-x="681" d="M40 -529L-65 -296L22 -260Q105 -226 143 -196T193 -119T204 5V1082H525V-27Q525 -138 499 -212T421 -335T295 -421T123 -495L40 -529ZM364 1288Q282 1288 235 1332T187 1455Q187 1529 234 1572T364 1615Q447 1615 494
1572T541 1455Q541 1377 494 1333T364 1288Z" />
<glyph unicode="k" horiz-adv-x="1197" d="M144 0V1540L465 1560V801L459 647L822 1082H1159V1063L766 586L1177 30V0H854L528 464L465 407V0H144Z" />
<glyph unicode="l" horiz-adv-x="735" d="M553 -10Q410 -10 321 24T192 137T151 350V1540L472 1560V344Q472 296 481 267T523 223T622 202Q635 201 648 200T675 198L662 -7Q619 -9 596 -9T553 -10Z" />
<glyph unicode="m" horiz-adv-x="1898" d="M136 0V1082H410L429 897Q472 989 551 1046T751 1103Q821 1103 883 1082T995 1013T1075 889Q1118 983 1199 1043T1409 1103Q1587 1103 1679 992T1772 680V0H1451V629Q1451 720 1437 779T1390 866T1303 894Q1255 894 1212
862T1142 774T1115 646V0H793V619Q793 724 777 784T728 869T644 894Q592 894 552 866T486 781T456 637V0H136Z" />
<glyph unicode="n" horiz-adv-x="1255" d="M138 0V1082H413L431 908Q475 996 555 1049T763 1103Q946 1103 1037 988T1128 667V0H808V635Q808 730 792 787T743 869T656 894Q610 894 574 877T512 826T473 741T459 620V0H138Z" />
<glyph unicode="o" horiz-adv-x="1247" d="M624 -21Q457 -21 337 50T153 249T89 544Q89 711 153 836T337 1032T624 1103Q791 1103 910 1033T1094 837T1159 544Q1159 376 1095 249T911 51T624 -21ZM624 188Q694 188 741 227T812 346T837 544Q837 663 813 740T742
856T624 894Q519 894 465 808T410 544Q410 424 434 345T507 227T624 188Z" />
<glyph unicode="p" horiz-adv-x="1263" d="M141 -472V1082H423L433 902Q471 994 548 1048T742 1103Q887 1103 982 1031T1124 833T1171 547Q1171 381 1122 253T973 53T728 -20Q629 -20 561 15T452 99L457 -58V-472H141ZM650 188Q692 188 728 204T791 261T834 372T850
548Q850 675 828 751T764 860T665 894Q607 894 565 871T495 808T456 711V281Q487 241 533 215T650 188Z" />
<glyph unicode="q" horiz-adv-x="1261" d="M807 -472V-45L810 97Q781 62 740 36T649 -5T538 -20Q389 -20 290 52T142 253T92 549Q92 708 142 833T290 1030T533 1103Q647 1103 720 1055T833 934L840 1082H1123V-472H807ZM617 188Q686 188 732 213T807 277V787Q776
839 724 866T606 894Q550 894 507 862T438 754T413 549Q413 442 429 372T473 261T537 205T617 188Z" />
<glyph unicode="r" horiz-adv-x="857" d="M133 0V1082H410L428 896Q479 1007 553 1048T711 1089Q739 1089 766 1086T820 1079L800 844Q778 848 758 849T724 851Q651 851 589 824T491 742T454 610V0H133Z" />
<glyph unicode="s" horiz-adv-x="1012" d="M535 -20Q378 -20 253 33T60 195L209 323H235Q279 250 356 218T501 186Q572 186 608 217T645 302Q645 325 636 344T603 381T533 413L392 465Q284 505 220 550T128 653T99 789Q99 934 211 1018T514 1103Q604 1103 684
1084T829 1022T935 909L791 786H777Q742 839 686 866T568 893Q524 893 493 882T447 849T431 796Q431 765 451 741T544 689L717 615Q806 581 856 536T926 437T947 325Q947 226 897 148T755 25T535 -20Z" />
<glyph unicode="t" horiz-adv-x="875" d="M626 -9Q487 -9 403 16T275 92T218 220T203 402V897H38L46 1067L211 1084L232 1390L519 1412V1082H807V897H519V392Q519 328 531 289T578 232T676 211Q713 210 750 209T825 205L815 -4Q768 -5 721 -6T626 -9Z" />
<glyph unicode="u" horiz-adv-x="1256" d="M501 -20Q317 -20 222 92T126 408V1082H447V444Q447 350 464 294T515 213T605 188Q655 188 691 204T754 243T796 288V1082H1117V0H841L825 156Q782 85 705 33T501 -20Z" />
<glyph unicode="v" horiz-adv-x="1097" d="M394 0L18 1082H346Q401 900 456 719T565 354Q614 536 662 718T759 1082H1080L713 0H394Z" />
<glyph unicode="w" horiz-adv-x="1594" d="M294 -5L17 1082H313L459 325L666 1082H957L1149 337L1304 1082H1577L1297 -5H999L809 759L579 -5H294Z" />
<glyph unicode="x" horiz-adv-x="1089" d="M8 -5L381 544L27 1082H365L566 778L766 1082H1065L719 546L1084 -5H742L533 313L312 -5H8Z" />
<glyph unicode="y" horiz-adv-x="1135" d="M470 -445L213 -349L419 127L-14 1082H300L577 429L838 1082H1136L470 -445Z" />
<glyph unicode="z" horiz-adv-x="969" d="M73 0V142L560 888H79L82 1082H897V928L428 202H919L915 0H73Z" />
<glyph unicode="{" horiz-adv-x="961" d="M834 -304Q773 -304 713 -300T597 -281T500 -236T433 -158T408 -35V356Q408 410 397 455T341 527T192 554V771Q295 771 340 798T397 870T408 968V1359Q408 1433 432 1482T499 1560T596 1604T712 1624T833 1629V1436Q770
1434 730 1425T672 1385T653 1284V933Q653 893 647 851T622 771T562 704T452 662Q521 649 561 621T621 554T647 474T653 391V41Q653 -29 671 -60T730 -100T834 -111V-304Z" />
<glyph unicode="|" horiz-adv-x="727" d="M270 -433V1563H464V-433H270Z" />
<glyph unicode="}" horiz-adv-x="924" d="M127 -304V-111Q190 -109 229 -101T287 -61T306 41V391Q306 448 318 504T374 602T507 662Q439 675 398 704T338 771T312 851T306 933V1284Q306 1354 288 1385T230 1425T127 1436V1629Q188 1629 248 1624T364 1605T461
1561T527 1482T552 1359V968Q552 915 563 870T619 798T767 771V554Q672 554 626 530T566 462T552 356V-35Q552 -109 528 -157T461 -236T363 -280T248 -299T127 -304Z" />
<glyph unicode="~" horiz-adv-x="1000" d="M706 485Q644 485 585 511T442 593Q406 612 371 630T300 648Q246 648 212 605T160 485L51 561Q74 685 135 760T303 835Q362 835 411 812T529 745Q580 714 622 693T701 672Q743 672 782 707T850 830L950 756Q933 676 905
615T830 519T706 485Z" />
<glyph unicode="&#xa0;" horiz-adv-x="596" />
<glyph unicode="&#xa1;" horiz-adv-x="753" d="M448 730L516 -121V-342H224V-121L284 730H448ZM368 1211Q435 1211 478 1164T522 1054Q522 990 479 944T368 898Q301 898 259 944T216 1054Q216 1116 258 1163T368 1211Z" />
<glyph unicode="&#xa2;" horiz-adv-x="1117" d="M558 1040L561 1368H702L687 1040H558ZM551 -300L558 51H689L683 -300H551ZM635 -20Q467 -20 345 48T156 243T89 542Q89 715 156 840T346 1034T637 1103Q745 1103 824 1074T959 989T1053 848L877 755H864Q826 824
773 855T647 884Q578 884 524 850T440 740T409 542Q409 418 439 343T522 234T645 199Q718 197 770 227T862 327H875L1051 235Q1013 151 957 95T822 9T635 -20Z" />
<glyph unicode="&#xa3;" horiz-adv-x="1203" d="M101 0L90 204L266 226V669H82V858H266V975Q266 1101 290 1204T367 1382T509 1497T726 1538Q834 1538 916 1513T1050 1457T1123 1408L1020 1215H999Q946 1245 896 1263T791 1282Q727 1282 683 1253T615 1167T591
1022V858H913V669H591V228H1111L1104 0H101Z" />
<glyph unicode="&#xa4;" horiz-adv-x="1121" d="M988 228L807 402Q756 363 695 341T565 318Q426 318 319 400L146 229L44 328L224 504Q191 555 173 615T154 740Q154 805 172 864T224 977L43 1154L146 1255L322 1082Q372 1120 434 1142T565 1165Q634 1165 694 1144T807
1081L988 1255L1084 1153L906 977Q938 926 957 866T976 740Q976 611 907 504L1083 330L988 228ZM565 467Q640 467 700 503T795 602T831 740Q831 817 796 879T700 978T565 1016Q492 1016 432 979T337 879T301 740Q301 665 336 603T432 504T565 467Z" />
<glyph unicode="&#xa5;" horiz-adv-x="1351" d="M201 528V663H1124V528H201ZM201 243V377H1124V243H201ZM506 0V557L17 1456H369L674 874L981 1456H1335L845 560V0H506Z" />
<glyph unicode="&#xa6;" horiz-adv-x="727" d="M270 788V1563H464V788H270ZM270 -433V343H464V-433H270Z" />
<glyph unicode="&#xa7;" horiz-adv-x="1034" d="M518 -20Q427 -20 337 3T175 64V281Q212 260 266 238T382 202T503 187Q547 187 579 201T627 242T644 309Q644 337 628 360T564 411T424 476Q336 513 279 550T193 634T164 746Q164 812 203 868T298 968Q225 1020
189 1080T153 1220Q153 1310 187 1371T277 1467T401 1518T537 1533Q613 1533 701 1509T866 1436L810 1265Q762 1291 694 1309T560 1328Q513 1328 480 1318T430 1288T413 1236Q413 1208 426 1186T492 1136T658 1061Q750 1025 801 984T874 894T896 782Q896 704 864
652T787 557Q839 513 863 458T888 339Q888 210 836 131T699 16T518 -20ZM660 630Q672 640 679 652T691 678T696 709Q696 733 684 754T644 797T567 839Q531 855 499 868T446 890T419 901Q406 895 394 882T375 852T368 813Q368 785 383 767T429 732T506 696Q547 681
578 667T631 644T660 630Z" />
<glyph unicode="&#xa8;" horiz-adv-x="1067" d="M774 1264Q705 1264 665 1304T625 1412Q625 1480 664 1521T774 1562Q844 1562 882 1521T920 1412Q920 1344 882 1304T774 1264ZM274 1264Q204 1264 166 1304T127 1412Q127 1480 165 1521T274 1562Q343 1562 381
1521T419 1412Q419 1344 381 1304T274 1264Z" />
<glyph unicode="&#xa9;" horiz-adv-x="1774" d="M861 -48Q703 -48 562 9T314 171T145 417T83 728Q83 898 144 1039T313 1285T562 1447T861 1504Q1020 1504 1161 1447T1410 1286T1581 1040T1643 728Q1643 559 1581 417T1411 171T1161 10T861 -48ZM882 248Q760 248
651 303T474 467T405 735Q405 893 473 1002T649 1167T880 1223Q956 1223 1028 1202T1166 1141L1118 1022Q1063 1054 1005 1070T892 1086Q807 1086 737 1047T626 929T584 737Q584 621 625 542T737 424T894 384Q949 384 1006 399T1121 446L1166 328Q1103 288 1030
268T882 248ZM861 95Q988 95 1100 141T1298 273T1434 474T1483 728Q1483 867 1434 982T1299 1183T1100 1314T861 1361Q735 1361 623 1315T424 1183T289 983T240 728Q240 590 289 475T424 274T622 142T861 95Z" />
<glyph unicode="&#xaa;" horiz-adv-x="987" d="M368 602Q240 602 159 671T78 877Q78 955 111 1007T201 1090T329 1135T476 1149H623V1222Q623 1303 580 1337T461 1372Q398 1372 320 1352T165 1297L111 1466Q174 1498 240 1520T373 1553T504 1564Q614 1564 701
1525T840 1401T891 1175V617H686L658 722Q626 688 585 661T491 618T368 602ZM452 755Q509 755 552 778T621 831V1020H537Q474 1020 426 1007T351 964T324 880Q324 813 362 784T452 755Z" />
<glyph unicode="&#xab;" horiz-adv-x="1188" d="M384 133L114 567L386 1006H637L377 570L632 133H384ZM824 133L555 567L826 1006H1076L817 570L1072 133H824Z" />
<glyph unicode="&#xac;" horiz-adv-x="1000" d="M759 250V644H41V844H955V250H759Z" />
<glyph unicode="&#xae;" horiz-adv-x="1811" d="M905 -48Q748 -48 608 9T360 171T191 417T130 729Q130 898 191 1039T360 1285T608 1446T905 1504Q1063 1504 1203 1447T1451 1285T1620 1040T1682 729Q1682 559 1621 417T1452 171T1204 10T905 -48ZM905 95Q1031
95 1142 141T1339 273T1474 474T1523 729Q1523 867 1474 982T1340 1182T1143 1314T905 1361Q780 1361 669 1315T472 1183T339 983T290 729Q290 590 338 475T472 274T668 142T905 95ZM608 317V1191H895Q1001 1191 1078 1172T1197 1101T1240 950Q1240 859 1196 804T1040
721L1284 317H1097L873 710H768V317H608ZM768 822H879Q984 822 1032 846T1080 944Q1080 1027 1041 1046T901 1066H768V822Z" />
<glyph unicode="&#xaf;" horiz-adv-x="1062" d="M182 1291V1444H868V1291H182Z" />
<glyph unicode="&#xb0;" horiz-adv-x="838" d="M424 898Q326 898 256 941T149 1055T112 1207Q112 1289 149 1357T257 1465T424 1505Q521 1505 590 1465T698 1357T737 1207Q737 1127 700 1057T593 942T424 898ZM424 1042Q485 1042 531 1084T577 1206Q577 1281 531
1323T425 1365Q364 1365 317 1323T270 1206Q270 1127 316 1085T424 1042Z" />
<glyph unicode="&#xb1;" horiz-adv-x="1000" d="M389 304V648H31V856H389V1206H603V856H960V648H603V304H389ZM28 0V185H965V0H28Z" />
<glyph unicode="&#xb2;" horiz-adv-x="832" d="M156 578V725Q204 770 242 805T319 878T408 970Q456 1024 489 1079T523 1194Q523 1254 491 1288T395 1323Q338 1323 289 1298T200 1229L123 1352Q186 1420 264 1452T432 1484Q505 1484 569 1451T673 1355T713 1201Q713
1118 681 1047T604 925Q571 885 539 854T473 792T401 726H721L704 578H156Z" />
<glyph unicode="&#xb3;" horiz-adv-x="881" d="M400 571Q327 571 254 590T119 647L179 797Q219 764 276 745T394 725Q454 725 505 754T557 851Q557 910 520 944T406 979H280V1122H401Q480 1122 513 1150T547 1227Q547 1279 505 1304T405 1330Q351 1330 294 1314T185
1265L128 1391Q190 1433 272 1457T437 1481Q512 1481 577 1458T683 1383T723 1248Q723 1184 689 1131T579 1057Q653 1042 696 981T739 844Q739 752 691 691T566 601T400 571Z" />
<glyph unicode="&#xb4;" horiz-adv-x="781" d="M373 1208L553 1608H884L554 1208H373Z" />
<glyph unicode="&#xb5;" horiz-adv-x="1252" d="M132 -319V1082H452V444Q452 350 468 294T520 213T609 188Q660 188 696 204T759 243T801 288V1082H1122V0H846L830 156Q792 95 730 51T572 6Q504 6 452 28V-319H132Z" />
<glyph unicode="&#xb6;" horiz-adv-x="1224" d="M519 -244V699Q377 699 286 751T150 887T106 1067Q106 1162 134 1234T224 1355T388 1430T638 1456H1038V-244H869V1310H687V-244H519Z" />
<glyph unicode="&#xb7;" horiz-adv-x="608" d="M458 461Q384 461 341 505T297 627Q297 701 340 744T458 788Q529 788 572 745T615 627Q615 550 572 506T458 461Z" />
<glyph unicode="&#xb8;" horiz-adv-x="743" d="M428 -435Q343 -435 260 -400L300 -286Q331 -297 358 -302T409 -308Q467 -308 498 -282T529 -218Q528 -185 507 -165T436 -145Q428 -145 419 -145T399 -148V-80Q459 -57 515 -57Q589 -57 635 -100T682 -226Q682 -325
608 -380T428 -435Z" />
<glyph unicode="&#xb9;" horiz-adv-x="729" d="M132 571V730H273V1267Q252 1252 224 1238T169 1212T118 1192V1351Q147 1364 189 1386T268 1431T319 1465H467V730H611V571H132Z" />
<glyph unicode="&#xba;" horiz-adv-x="1073" d="M537 600Q392 600 289 661T131 832T76 1086Q76 1229 131 1337T290 1506T537 1566Q680 1566 783 1506T941 1338T996 1086Q996 942 941 832T783 661T537 600ZM537 779Q596 779 637 813T699 915T721 1086Q721 1188
700 1254T638 1354T537 1387Q446 1387 400 1313T353 1086Q353 982 374 914T436 813T537 779Z" />
<glyph unicode="&#xbb;" horiz-adv-x="1188" d="M548 133L803 570L543 1006H794L1065 568L795 133H548ZM108 133L363 570L105 1006H355L625 568L356 133H108Z" />
<glyph unicode="&#xbc;" horiz-adv-x="1947" d="M132 571V730H273V1267Q252 1252 224 1238T169 1212T118 1192V1351Q147 1364 189 1386T268 1431T319 1465H467V730H611V571H132ZM389 0L1373 1501H1574L596 0H389ZM1595 -22V172H1191V330L1585 876H1775V323H1902L1890
172H1776V-22H1595ZM1371 323H1595V646L1371 323Z" />
<glyph unicode="&#xbd;" horiz-adv-x="2006" d="M132 571V730H273V1267Q252 1252 224 1238T169 1212T118 1192V1351Q147 1364 189 1386T268 1431T319 1465H467V730H611V571H132ZM389 0L1373 1501H1574L596 0H389ZM1330 0V147Q1378 192 1416 227T1493 300T1582
392Q1630 446 1663 501T1697 616Q1697 676 1665 710T1569 745Q1512 745 1463 720T1374 651L1297 774Q1360 842 1438 874T1606 906Q1679 906 1743 873T1847 777T1887 623Q1887 540 1855 469T1778 347Q1745 307 1713 276T1647 214T1575 148H1895L1878 0H1330Z" />
<glyph unicode="&#xbe;" horiz-adv-x="2099" d="M400 571Q327 571 254 590T119 647L179 797Q219 764 276 745T394 725Q454 725 505 754T557 851Q557 910 520 944T406 979H280V1122H401Q480 1122 513 1150T547 1227Q547 1279 505 1304T405 1330Q351 1330 294 1314T185
1265L128 1391Q190 1433 272 1457T437 1481Q512 1481 577 1458T683 1383T723 1248Q723 1184 689 1131T579 1057Q653 1042 696 981T739 844Q739 752 691 691T566 601T400 571ZM541 0L1525 1501H1726L748 0H541ZM1747 -22V172H1343V330L1737 876H1927V323H2054L2042
172H1928V-22H1747ZM1523 323H1747V646L1523 323Z" />
<glyph unicode="&#xbf;" horiz-adv-x="1041" d="M596 768Q597 661 574 580T516 436T446 320T386 219T362 118Q362 54 399 15T514 -24Q560 -24 605 -14T694 14T772 52L846 -169Q798 -215 734 -244T601 -288T473 -302Q366 -302 274 -262T125 -139T68 65Q68 160 100
227T182 350T290 461T399 590T484 768H596ZM537 1254Q609 1254 649 1212T689 1103Q689 1036 649 994T537 952Q467 952 428 994T389 1103Q389 1170 428 1212T537 1254Z" />
<glyph unicode="&#xc0;" horiz-adv-x="1517" d="M58 0L552 1456H968L1459 0H1118L987 382H524L398 0H58ZM588 596H927L760 1174L588 596ZM669 1587L336 1987H671L850 1587H669Z" />
<glyph unicode="&#xc1;" horiz-adv-x="1517" d="M58 0L552 1456H968L1459 0H1118L987 382H524L398 0H58ZM588 596H927L760 1174L588 596ZM665 1582L845 1982H1176L846 1582H665Z" />
<glyph unicode="&#xc2;" horiz-adv-x="1517" d="M58 0L552 1456H968L1459 0H1118L987 382H524L398 0H58ZM588 596H927L760 1174L588 596ZM410 1581L619 1982H899L1107 1581H861L759 1810L656 1581H410Z" />
<glyph unicode="&#xc3;" horiz-adv-x="1517" d="M58 0L552 1456H968L1459 0H1118L987 382H524L398 0H58ZM588 596H927L760 1174L588 596ZM420 1643Q420 1691 430 1740T464 1831T526 1900T622 1926Q690 1926 742 1905T835 1863T903 1842Q924 1842 939 1860T965
1925H1097Q1097 1880 1087 1831T1055 1740T997 1670T907 1643Q852 1643 800 1667T704 1717T625 1742Q599 1742 581 1720T552 1643H420Z" />
<glyph unicode="&#xc4;" horiz-adv-x="1517" d="M58 0L552 1456H968L1459 0H1118L987 382H524L398 0H58ZM588 596H927L760 1174L588 596ZM1009 1638Q940 1638 900 1678T860 1786Q860 1854 899 1895T1009 1936Q1079 1936 1117 1895T1155 1786Q1155 1718 1117 1678T1009
1638ZM509 1638Q439 1638 401 1678T362 1786Q362 1854 400 1895T509 1936Q578 1936 616 1895T654 1786Q654 1718 616 1678T509 1638Z" />
<glyph unicode="&#xc5;" horiz-adv-x="1517" d="M58 0L552 1456H968L1459 0H1118L987 382H524L398 0H58ZM588 596H927L760 1174L588 596ZM758 1575Q656 1575 598 1640T539 1790Q539 1875 597 1938T758 2002Q862 2002 921 1938T980 1790Q980 1705 921 1640T758
1575ZM758 1683Q804 1683 828 1715T853 1789Q853 1829 829 1861T758 1894Q715 1894 691 1862T667 1789Q667 1746 689 1715T758 1683Z" />
<glyph unicode="&#xc6;" horiz-adv-x="1949" d="M-12 0L858 1456H1825L1808 1237H1191V852H1780V631H1191V226H1846L1837 0H924V381H540L324 0H-12ZM635 582H924V1102L635 582Z" />
<glyph unicode="&#xc7;" horiz-adv-x="1558" d="M841 -20Q617 -20 456 67T210 323T124 732Q124 968 209 1134T455 1389T839 1478Q959 1478 1053 1451T1217 1378T1335 1275T1412 1158T1453 1042L1205 955H1180Q1162 1037 1122 1102T1017 1204T857 1241Q784 1241
717 1218T598 1137T515 981T484 732Q484 544 531 431T661 266T852 215Q947 215 1014 252T1122 353T1181 500H1206L1454 413Q1442 356 1414 296T1339 180T1223 78T1059 7T841 -20ZM742 -435Q657 -435 574 -400L614 -286Q645 -297 672 -302T723 -308Q781 -308 812
-282T843 -218Q842 -185 821 -165T750 -145Q742 -145 733 -145T713 -148V-80Q773 -57 829 -57Q903 -57 949 -100T996 -226Q996 -325 922 -380T742 -435Z" />
<glyph unicode="&#xc8;" horiz-adv-x="1349" d="M178 0V1456H1202L1186 1228H517V862H1158V633H517V235H1221L1215 0H178ZM597 1587L264 1987H599L778 1587H597Z" />
<glyph unicode="&#xc9;" horiz-adv-x="1349" d="M178 0V1456H1202L1186 1228H517V862H1158V633H517V235H1221L1215 0H178ZM593 1582L773 1982H1104L774 1582H593Z" />
<glyph unicode="&#xca;" horiz-adv-x="1349" d="M178 0V1456H1202L1186 1228H517V862H1158V633H517V235H1221L1215 0H178ZM338 1581L547 1982H827L1035 1581H789L687 1810L584 1581H338Z" />
<glyph unicode="&#xcb;" horiz-adv-x="1349" d="M178 0V1456H1202L1186 1228H517V862H1158V633H517V235H1221L1215 0H178ZM938 1638Q869 1638 829 1678T789 1786Q789 1854 828 1895T938 1936Q1008 1936 1046 1895T1084 1786Q1084 1718 1046 1678T938 1638ZM438
1638Q368 1638 330 1678T291 1786Q291 1854 329 1895T438 1936Q507 1936 545 1895T583 1786Q583 1718 545 1678T438 1638Z" />
<glyph unicode="&#xcc;" horiz-adv-x="1034" d="M135 -5V180H349V1271H135V1456H896V1271H688V180H896V-5H135ZM428 1587L95 1987H430L609 1587H428Z" />
<glyph unicode="&#xcd;" horiz-adv-x="1034" d="M135 -5V180H349V1271H135V1456H896V1271H688V180H896V-5H135ZM424 1582L604 1982H935L605 1582H424Z" />
<glyph unicode="&#xce;" horiz-adv-x="1034" d="M135 -5V180H349V1271H135V1456H896V1271H688V180H896V-5H135ZM169 1581L378 1982H658L866 1581H620L518 1810L415 1581H169Z" />
<glyph unicode="&#xcf;" horiz-adv-x="1034" d="M135 -5V180H349V1271H135V1456H896V1271H688V180H896V-5H135ZM768 1638Q699 1638 659 1678T619 1786Q619 1854 658 1895T768 1936Q838 1936 876 1895T914 1786Q914 1718 876 1678T768 1638ZM268 1638Q198 1638
160 1678T121 1786Q121 1854 159 1895T268 1936Q337 1936 375 1895T413 1786Q413 1718 375 1678T268 1638Z" />
<glyph unicode="&#xd0;" horiz-adv-x="1543" d="M48 651V853H692V651H48ZM496 -12Q423 -12 344 -7T178 6V1450Q275 1458 362 1462T528 1466Q779 1466 950 1425T1224 1297T1372 1077T1418 755Q1418 585 1373 445T1223 202T939 44T496 -12ZM588 230Q732 230 829
266T983 371T1065 535T1090 750Q1090 851 1074 939T1007 1094T860 1200T602 1239Q583 1239 562 1238T518 1234V234Q536 232 554 231T588 230Z" />
<glyph unicode="&#xd1;" horiz-adv-x="1612" d="M178 0V1456H501L1134 464L1118 851V1456H1434V0H1099L485 957L502 576V0H178ZM468 1643Q468 1691 478 1740T512 1831T574 1900T670 1926Q738 1926 790 1905T883 1863T951 1842Q972 1842 987 1860T1013 1925H1145Q1145
1880 1135 1831T1103 1740T1045 1670T955 1643Q900 1643 848 1667T752 1717T673 1742Q647 1742 629 1720T600 1643H468Z" />
<glyph unicode="&#xd2;" horiz-adv-x="1652" d="M828 -21Q601 -21 444 66T206 320T125 722Q125 960 206 1128T445 1387T828 1477Q1053 1477 1209 1387T1446 1128T1527 723Q1527 488 1447 322T1212 67T828 -21ZM828 225Q944 225 1018 284T1129 454T1166 721Q1166
879 1130 993T1018 1168T828 1230Q714 1230 638 1169T524 994T485 721Q485 565 522 454T636 284T828 225ZM736 1587L403 1987H738L917 1587H736Z" />
<glyph unicode="&#xd3;" horiz-adv-x="1652" d="M828 -21Q601 -21 444 66T206 320T125 722Q125 960 206 1128T445 1387T828 1477Q1053 1477 1209 1387T1446 1128T1527 723Q1527 488 1447 322T1212 67T828 -21ZM828 225Q944 225 1018 284T1129 454T1166 721Q1166
879 1130 993T1018 1168T828 1230Q714 1230 638 1169T524 994T485 721Q485 565 522 454T636 284T828 225ZM733 1582L913 1982H1244L914 1582H733Z" />
<glyph unicode="&#xd4;" horiz-adv-x="1652" d="M828 -21Q601 -21 444 66T206 320T125 722Q125 960 206 1128T445 1387T828 1477Q1053 1477 1209 1387T1446 1128T1527 723Q1527 488 1447 322T1212 67T828 -21ZM828 225Q944 225 1018 284T1129 454T1166 721Q1166
879 1130 993T1018 1168T828 1230Q714 1230 638 1169T524 994T485 721Q485 565 522 454T636 284T828 225ZM478 1581L687 1982H967L1175 1581H929L827 1810L724 1581H478Z" />
<glyph unicode="&#xd5;" horiz-adv-x="1652" d="M828 -21Q601 -21 444 66T206 320T125 722Q125 960 206 1128T445 1387T828 1477Q1053 1477 1209 1387T1446 1128T1527 723Q1527 488 1447 322T1212 67T828 -21ZM828 225Q944 225 1018 284T1129 454T1166 721Q1166
879 1130 993T1018 1168T828 1230Q714 1230 638 1169T524 994T485 721Q485 565 522 454T636 284T828 225ZM487 1643Q487 1691 497 1740T531 1831T593 1900T689 1926Q757 1926 809 1905T902 1863T970 1842Q991 1842 1006 1860T1032 1925H1164Q1164 1880 1154 1831T1122
1740T1064 1670T974 1643Q919 1643 867 1667T771 1717T692 1742Q666 1742 648 1720T619 1643H487Z" />
<glyph unicode="&#xd6;" horiz-adv-x="1652" d="M828 -21Q601 -21 444 66T206 320T125 722Q125 960 206 1128T445 1387T828 1477Q1053 1477 1209 1387T1446 1128T1527 723Q1527 488 1447 322T1212 67T828 -21ZM828 225Q944 225 1018 284T1129 454T1166 721Q1166
879 1130 993T1018 1168T828 1230Q714 1230 638 1169T524 994T485 721Q485 565 522 454T636 284T828 225ZM1077 1638Q1008 1638 968 1678T928 1786Q928 1854 967 1895T1077 1936Q1147 1936 1185 1895T1223 1786Q1223 1718 1185 1678T1077 1638ZM577 1638Q507 1638
469 1678T430 1786Q430 1854 468 1895T577 1936Q646 1936 684 1895T722 1786Q722 1718 684 1678T577 1638Z" />
<glyph unicode="&#xd7;" horiz-adv-x="1000" d="M243 252L98 409L352 667L97 930L240 1079L501 819L760 1080L905 929L651 666L905 410L758 256L503 513L243 252Z" />
<glyph unicode="&#xd8;" horiz-adv-x="1655" d="M536 -255L405 -207L499 40Q316 119 221 293T125 722Q125 960 206 1128T445 1386T828 1476Q942 1476 1034 1452L1137 1722L1274 1669L1173 1405Q1347 1322 1437 1148T1527 723Q1527 488 1447 322T1212 67T828 -21Q776
-21 727 -17T633 -3L536 -255ZM606 322L943 1211Q918 1220 889 1225T828 1230Q714 1230 638 1169T524 994T485 721Q485 586 514 485T606 322ZM828 225Q944 225 1018 284T1129 454T1166 721Q1166 851 1141 951T1062 1116L726 239Q773 225 828 225Z" />
<glyph unicode="&#xd9;" horiz-adv-x="1512" d="M752 -20Q551 -20 417 47T216 238T149 535V1456H488V554Q488 383 553 305T752 226Q887 226 955 305T1023 555V1456H1362V534Q1362 364 1293 240T1089 48T752 -20ZM666 1587L333 1987H668L847 1587H666Z" />
<glyph unicode="&#xda;" horiz-adv-x="1512" d="M752 -20Q551 -20 417 47T216 238T149 535V1456H488V554Q488 383 553 305T752 226Q887 226 955 305T1023 555V1456H1362V534Q1362 364 1293 240T1089 48T752 -20ZM663 1582L843 1982H1174L844 1582H663Z" />
<glyph unicode="&#xdb;" horiz-adv-x="1512" d="M752 -20Q551 -20 417 47T216 238T149 535V1456H488V554Q488 383 553 305T752 226Q887 226 955 305T1023 555V1456H1362V534Q1362 364 1293 240T1089 48T752 -20ZM408 1581L617 1982H897L1105 1581H859L757 1810L654
1581H408Z" />
<glyph unicode="&#xdc;" horiz-adv-x="1512" d="M752 -20Q551 -20 417 47T216 238T149 535V1456H488V554Q488 383 553 305T752 226Q887 226 955 305T1023 555V1456H1362V534Q1362 364 1293 240T1089 48T752 -20ZM1007 1638Q938 1638 898 1678T858 1786Q858 1854
897 1895T1007 1936Q1077 1936 1115 1895T1153 1786Q1153 1718 1115 1678T1007 1638ZM507 1638Q437 1638 399 1678T360 1786Q360 1854 398 1895T507 1936Q576 1936 614 1895T652 1786Q652 1718 614 1678T507 1638Z" />
<glyph unicode="&#xdd;" horiz-adv-x="1351" d="M506 0V557L17 1456H369L674 874L981 1456H1335L845 560V0H506ZM582 1582L762 1982H1093L763 1582H582Z" />
<glyph unicode="&#xde;" horiz-adv-x="1398" d="M174 0V1467H514V1254H625Q870 1254 1018 1211T1234 1074T1302 831Q1302 677 1242 569T1041 405T661 349H514V0H174ZM514 570H618Q762 570 839 600T945 686T974 817Q974 870 960 910T911 979T811 1022T644 1037H514V570Z" />
<glyph unicode="&#xdf;" horiz-adv-x="1326" d="M899 -20Q823 -20 732 -2T553 52L614 252Q644 235 699 218T808 201Q849 201 878 215T922 257T938 326Q938 384 908 425T834 500T746 568T671 645T640 744Q640 809 667 854T728 939T789 1024T816 1134Q816 1202 773
1233T659 1264Q550 1264 501 1191T451 981V0H130V1014Q130 1162 194 1268T374 1431T641 1489Q773 1489 879 1450T1048 1332T1111 1137Q1111 1051 1079 991T1003 890T928 821T895 772Q895 752 933 730T1029 676T1142 598T1237 483T1276 320Q1276 159 1183 70T899
-20Z" />
<glyph unicode="&#xe0;" horiz-adv-x="1152" d="M428 -18Q279 -18 185 62T90 302Q90 392 129 453T234 551T383 603T553 619H724V704Q724 798 674 838T536 878Q463 878 372 855T193 790L129 987Q202 1024 279 1050T434 1089T586 1102Q714 1102 815 1057T976 912T1036
649V0H797L766 122Q728 82 680 51T570 1T428 -18ZM526 161Q592 161 642 187T722 248V469H624Q552 469 496 454T409 404T377 306Q377 228 422 195T526 161ZM486 1213L153 1613H488L667 1213H486Z" />
<glyph unicode="&#xe1;" horiz-adv-x="1152" d="M428 -18Q279 -18 185 62T90 302Q90 392 129 453T234 551T383 603T553 619H724V704Q724 798 674 838T536 878Q463 878 372 855T193 790L129 987Q202 1024 279 1050T434 1089T586 1102Q714 1102 815 1057T976 912T1036
649V0H797L766 122Q728 82 680 51T570 1T428 -18ZM526 161Q592 161 642 187T722 248V469H624Q552 469 496 454T409 404T377 306Q377 228 422 195T526 161ZM483 1208L663 1608H994L664 1208H483Z" />
<glyph unicode="&#xe2;" horiz-adv-x="1152" d="M428 -18Q279 -18 185 62T90 302Q90 392 129 453T234 551T383 603T553 619H724V704Q724 798 674 838T536 878Q463 878 372 855T193 790L129 987Q202 1024 279 1050T434 1089T586 1102Q714 1102 815 1057T976 912T1036
649V0H797L766 122Q728 82 680 51T570 1T428 -18ZM526 161Q592 161 642 187T722 248V469H624Q552 469 496 454T409 404T377 306Q377 228 422 195T526 161ZM228 1207L437 1608H717L925 1207H679L577 1436L474 1207H228Z" />
<glyph unicode="&#xe3;" horiz-adv-x="1152" d="M428 -18Q279 -18 185 62T90 302Q90 392 129 453T234 551T383 603T553 619H724V704Q724 798 674 838T536 878Q463 878 372 855T193 790L129 987Q202 1024 279 1050T434 1089T586 1102Q714 1102 815 1057T976 912T1036
649V0H797L766 122Q728 82 680 51T570 1T428 -18ZM526 161Q592 161 642 187T722 248V469H624Q552 469 496 454T409 404T377 306Q377 228 422 195T526 161ZM237 1269Q237 1317 247 1366T281 1457T343 1526T439 1552Q507 1552 559 1531T652 1489T720 1468Q741 1468
756 1486T782 1551H914Q914 1506 904 1457T872 1366T814 1296T724 1269Q669 1269 617 1293T521 1343T442 1368Q416 1368 398 1346T369 1269H237Z" />
<glyph unicode="&#xe4;" horiz-adv-x="1152" d="M428 -18Q279 -18 185 62T90 302Q90 392 129 453T234 551T383 603T553 619H724V704Q724 798 674 838T536 878Q463 878 372 855T193 790L129 987Q202 1024 279 1050T434 1089T586 1102Q714 1102 815 1057T976 912T1036
649V0H797L766 122Q728 82 680 51T570 1T428 -18ZM526 161Q592 161 642 187T722 248V469H624Q552 469 496 454T409 404T377 306Q377 228 422 195T526 161ZM827 1264Q758 1264 718 1304T678 1412Q678 1480 717 1521T827 1562Q897 1562 935 1521T973 1412Q973 1344
935 1304T827 1264ZM327 1264Q257 1264 219 1304T180 1412Q180 1480 218 1521T327 1562Q396 1562 434 1521T472 1412Q472 1344 434 1304T327 1264Z" />
<glyph unicode="&#xe5;" horiz-adv-x="1152" d="M428 -18Q279 -18 185 62T90 302Q90 392 129 453T234 551T383 603T553 619H724V704Q724 798 674 838T536 878Q463 878 372 855T193 790L129 987Q202 1024 279 1050T434 1089T586 1102Q714 1102 815 1057T976 912T1036
649V0H797L766 122Q728 82 680 51T570 1T428 -18ZM526 161Q592 161 642 187T722 248V469H624Q552 469 496 454T409 404T377 306Q377 228 422 195T526 161ZM576 1201Q474 1201 416 1266T357 1416Q357 1501 415 1564T576 1628Q680 1628 739 1564T798 1416Q798 1331
739 1266T576 1201ZM576 1309Q622 1309 646 1341T671 1415Q671 1455 647 1487T576 1520Q533 1520 509 1488T485 1415Q485 1372 507 1341T576 1309Z" />
<glyph unicode="&#xe6;" horiz-adv-x="1732" d="M1231 -20Q1121 -20 1047 3T922 65T834 154Q791 97 727 59T583 2T410 -17Q308 -17 231 18T110 124T67 302Q67 393 105 455T208 556T355 611T527 629Q551 629 583 629T649 628T713 624V703Q713 798 658 837T515 877Q443
877 352 854T169 787L101 977Q214 1037 330 1069T562 1101Q646 1101 711 1081T821 1022T884 926Q920 982 970 1021T1087 1081T1239 1102Q1351 1102 1430 1069T1558 980T1630 860T1653 731Q1653 623 1591 561T1415 470T1146 436Q1110 435 1071 435T992 438Q1003
332 1043 278T1142 206T1267 188Q1369 188 1448 216T1591 284L1647 109Q1584 52 1474 16T1231 -20ZM499 161Q561 161 613 179T704 225T759 286Q749 311 740 345T726 414T719 472Q686 475 649 476T595 478Q521 478 467 461T383 405T353 305Q353 254 375 222T430
176T499 161ZM994 614Q1028 613 1058 612T1115 611Q1250 615 1319 632T1412 678T1437 749Q1437 789 1421 824T1364 880T1245 902Q1186 902 1131 874T1038 782T994 614Z" />
<glyph unicode="&#xe7;" horiz-adv-x="1124" d="M635 -20Q467 -20 345 48T156 243T89 542Q89 715 156 840T346 1034T637 1103Q745 1103 824 1074T959 989T1053 848L877 755H864Q826 824 773 855T647 884Q578 884 524 850T440 740T409 542Q409 418 439 343T522
234T645 199Q718 197 770 227T862 327H875L1051 235Q1013 151 957 95T822 9T635 -20ZM525 -435Q440 -435 357 -400L397 -286Q428 -297 455 -302T506 -308Q564 -308 595 -282T626 -218Q625 -185 604 -165T533 -145Q525 -145 516 -145T496 -148V-80Q556 -57 612 -57Q686
-57 732 -100T779 -226Q779 -325 705 -380T525 -435Z" />
<glyph unicode="&#xe8;" horiz-adv-x="1188" d="M658 -20Q487 -20 359 48T160 242T89 541Q89 716 156 841T343 1035T623 1103Q787 1103 888 1038T1039 856T1092 585Q1092 553 1089 526T1084 480T1080 458H408Q417 370 455 310T556 219T695 188Q780 188 853 213T989
277H1006L1075 109Q1011 52 901 16T658 -20ZM403 632H824Q823 773 775 835T635 898Q540 898 476 836T403 632ZM536 1213L203 1613H538L717 1213H536Z" />
<glyph unicode="&#xe9;" horiz-adv-x="1188" d="M658 -20Q487 -20 359 48T160 242T89 541Q89 716 156 841T343 1035T623 1103Q787 1103 888 1038T1039 856T1092 585Q1092 553 1089 526T1084 480T1080 458H408Q417 370 455 310T556 219T695 188Q780 188 853 213T989
277H1006L1075 109Q1011 52 901 16T658 -20ZM403 632H824Q823 773 775 835T635 898Q540 898 476 836T403 632ZM533 1208L713 1608H1044L714 1208H533Z" />
<glyph unicode="&#xea;" horiz-adv-x="1188" d="M658 -20Q487 -20 359 48T160 242T89 541Q89 716 156 841T343 1035T623 1103Q787 1103 888 1038T1039 856T1092 585Q1092 553 1089 526T1084 480T1080 458H408Q417 370 455 310T556 219T695 188Q780 188 853 213T989
277H1006L1075 109Q1011 52 901 16T658 -20ZM403 632H824Q823 773 775 835T635 898Q540 898 476 836T403 632ZM278 1207L487 1608H767L975 1207H729L627 1436L524 1207H278Z" />
<glyph unicode="&#xeb;" horiz-adv-x="1188" d="M658 -20Q487 -20 359 48T160 242T89 541Q89 716 156 841T343 1035T623 1103Q787 1103 888 1038T1039 856T1092 585Q1092 553 1089 526T1084 480T1080 458H408Q417 370 455 310T556 219T695 188Q780 188 853 213T989
277H1006L1075 109Q1011 52 901 16T658 -20ZM403 632H824Q823 773 775 835T635 898Q540 898 476 836T403 632ZM877 1264Q808 1264 768 1304T728 1412Q728 1480 767 1521T877 1562Q947 1562 985 1521T1023 1412Q1023 1344 985 1304T877 1264ZM377 1264Q307 1264
269 1304T230 1412Q230 1480 268 1521T377 1562Q446 1562 484 1521T522 1412Q522 1344 484 1304T377 1264Z" />
<glyph unicode="&#xec;" horiz-adv-x="596" d="M144 0V1082H465V0H144ZM212 1213L-121 1613H214L393 1213H212Z" />
<glyph unicode="&#xed;" horiz-adv-x="596" d="M144 0V1082H465V0H144ZM209 1208L389 1608H720L390 1208H209Z" />
<glyph unicode="&#xee;" horiz-adv-x="596" d="M144 0V1082H465V0H144ZM-46 1207L163 1608H443L651 1207H405L303 1436L200 1207H-46Z" />
<glyph unicode="&#xef;" horiz-adv-x="596" d="M144 0V1082H465V0H144ZM503 1264Q434 1264 394 1304T354 1412Q354 1480 393 1521T503 1562Q573 1562 611 1521T649 1412Q649 1344 611 1304T503 1264ZM103 1264Q33 1264 -5 1304T-44 1412Q-44 1480 -6 1521T103
1562Q172 1562 210 1521T248 1412Q248 1344 210 1304T103 1264Z" />
<glyph unicode="&#xf0;" horiz-adv-x="1226" d="M615 -23Q497 -23 400 14T233 118T126 276T88 478Q88 621 146 728T310 894T560 954Q588 954 622 947T689 928T745 902Q718 946 677 997T586 1103T480 1210L237 1117L154 1288L339 1362L122 1567H422L547 1447L839
1562L936 1390L697 1299Q785 1211 865 1124T1007 943T1104 740T1136 495Q1133 341 1075 225T903 43T615 -23ZM620 199Q742 199 806 275T871 481Q871 561 841 624T754 725T615 762Q534 762 478 727T393 629T364 484Q364 403 393 339T480 237T620 199Z" />
<glyph unicode="&#xf1;" horiz-adv-x="1255" d="M138 0V1082H413L431 908Q475 996 555 1049T763 1103Q946 1103 1037 988T1128 667V0H808V635Q808 730 792 787T743 869T656 894Q610 894 574 877T512 826T473 741T459 620V0H138ZM289 1269Q289 1317 299 1366T333
1457T395 1526T491 1552Q559 1552 611 1531T704 1489T772 1468Q793 1468 808 1486T834 1551H966Q966 1506 956 1457T924 1366T866 1296T776 1269Q721 1269 669 1293T573 1343T494 1368Q468 1368 450 1346T421 1269H289Z" />
<glyph unicode="&#xf2;" horiz-adv-x="1247" d="M624 -21Q457 -21 337 50T153 249T89 544Q89 711 153 836T337 1032T624 1103Q791 1103 910 1033T1094 837T1159 544Q1159 376 1095 249T911 51T624 -21ZM624 188Q694 188 741 227T812 346T837 544Q837 663 813 740T742
856T624 894Q519 894 465 808T410 544Q410 424 434 345T507 227T624 188ZM534 1213L201 1613H536L715 1213H534Z" />
<glyph unicode="&#xf3;" horiz-adv-x="1247" d="M624 -21Q457 -21 337 50T153 249T89 544Q89 711 153 836T337 1032T624 1103Q791 1103 910 1033T1094 837T1159 544Q1159 376 1095 249T911 51T624 -21ZM624 188Q694 188 741 227T812 346T837 544Q837 663 813 740T742
856T624 894Q519 894 465 808T410 544Q410 424 434 345T507 227T624 188ZM531 1208L711 1608H1042L712 1208H531Z" />
<glyph unicode="&#xf4;" horiz-adv-x="1247" d="M624 -21Q457 -21 337 50T153 249T89 544Q89 711 153 836T337 1032T624 1103Q791 1103 910 1033T1094 837T1159 544Q1159 376 1095 249T911 51T624 -21ZM624 188Q694 188 741 227T812 346T837 544Q837 663 813 740T742
856T624 894Q519 894 465 808T410 544Q410 424 434 345T507 227T624 188ZM276 1207L485 1608H765L973 1207H727L625 1436L522 1207H276Z" />
<glyph unicode="&#xf5;" horiz-adv-x="1247" d="M624 -21Q457 -21 337 50T153 249T89 544Q89 711 153 836T337 1032T624 1103Q791 1103 910 1033T1094 837T1159 544Q1159 376 1095 249T911 51T624 -21ZM624 188Q694 188 741 227T812 346T837 544Q837 663 813 740T742
856T624 894Q519 894 465 808T410 544Q410 424 434 345T507 227T624 188ZM285 1269Q285 1317 295 1366T329 1457T391 1526T487 1552Q555 1552 607 1531T700 1489T768 1468Q789 1468 804 1486T830 1551H962Q962 1506 952 1457T920 1366T862 1296T772 1269Q717 1269
665 1293T569 1343T490 1368Q464 1368 446 1346T417 1269H285Z" />
<glyph unicode="&#xf6;" horiz-adv-x="1247" d="M624 -21Q457 -21 337 50T153 249T89 544Q89 711 153 836T337 1032T624 1103Q791 1103 910 1033T1094 837T1159 544Q1159 376 1095 249T911 51T624 -21ZM624 188Q694 188 741 227T812 346T837 544Q837 663 813 740T742
856T624 894Q519 894 465 808T410 544Q410 424 434 345T507 227T624 188ZM875 1264Q806 1264 766 1304T726 1412Q726 1480 765 1521T875 1562Q945 1562 983 1521T1021 1412Q1021 1344 983 1304T875 1264ZM375 1264Q305 1264 267 1304T228 1412Q228 1480 266 1521T375
1562Q444 1562 482 1521T520 1412Q520 1344 482 1304T375 1264Z" />
<glyph unicode="&#xf7;" horiz-adv-x="1000" d="M52 493V691H949V493H52ZM365 21V300H636V21H365ZM365 886V1153H644V886H365Z" />
<glyph unicode="&#xf8;" horiz-adv-x="1243" d="M298 -174L223 -125L957 1256L1037 1208L298 -174ZM624 -21Q457 -21 337 50T153 249T89 544Q89 711 153 836T337 1032T624 1103Q791 1103 910 1033T1094 837T1159 544Q1159 376 1095 249T911 51T624 -21ZM624 188Q694
188 741 227T812 346T837 544Q837 663 813 740T742 856T624 894Q519 894 465 808T410 544Q410 424 434 345T507 227T624 188Z" />
<glyph unicode="&#xf9;" horiz-adv-x="1256" d="M501 -20Q317 -20 222 92T126 408V1082H447V444Q447 350 464 294T515 213T605 188Q655 188 691 204T754 243T796 288V1082H1117V0H841L825 156Q782 85 705 33T501 -20ZM539 1213L206 1613H541L720 1213H539Z" />
<glyph unicode="&#xfa;" horiz-adv-x="1256" d="M501 -20Q317 -20 222 92T126 408V1082H447V444Q447 350 464 294T515 213T605 188Q655 188 691 204T754 243T796 288V1082H1117V0H841L825 156Q782 85 705 33T501 -20ZM535 1208L715 1608H1046L716 1208H535Z" />
<glyph unicode="&#xfb;" horiz-adv-x="1256" d="M501 -20Q317 -20 222 92T126 408V1082H447V444Q447 350 464 294T515 213T605 188Q655 188 691 204T754 243T796 288V1082H1117V0H841L825 156Q782 85 705 33T501 -20ZM280 1207L489 1608H769L977 1207H731L629
1436L526 1207H280Z" />
<glyph unicode="&#xfc;" horiz-adv-x="1256" d="M501 -20Q317 -20 222 92T126 408V1082H447V444Q447 350 464 294T515 213T605 188Q655 188 691 204T754 243T796 288V1082H1117V0H841L825 156Q782 85 705 33T501 -20ZM879 1264Q810 1264 770 1304T730 1412Q730
1480 769 1521T879 1562Q949 1562 987 1521T1025 1412Q1025 1344 987 1304T879 1264ZM379 1264Q309 1264 271 1304T232 1412Q232 1480 270 1521T379 1562Q448 1562 486 1521T524 1412Q524 1344 486 1304T379 1264Z" />
<glyph unicode="&#xfd;" horiz-adv-x="1135" d="M470 -445L213 -349L419 127L-14 1082H300L577 429L838 1082H1136L470 -445ZM474 1208L654 1608H985L655 1208H474Z" />
<glyph unicode="&#xfe;" horiz-adv-x="1275" d="M151 -434V526H465V-434H151ZM737 -20Q624 -20 552 27T441 131L431 0H151V1540L468 1560V1140L460 934Q490 993 534 1030T635 1085T757 1103Q901 1103 995 1030T1137 832T1184 548Q1184 381 1134 253T985 53T737
-20ZM669 188Q725 188 768 225T836 342T860 548Q860 675 840 751T781 860T684 894Q623 894 574 863T495 760T466 564V281Q487 255 513 234T578 200T669 188Z" />
<glyph unicode="&#xff;" horiz-adv-x="1135" d="M470 -445L213 -349L419 127L-14 1082H300L577 429L838 1082H1136L470 -445ZM819 1264Q750 1264 710 1304T670 1412Q670 1480 709 1521T819 1562Q889 1562 927 1521T965 1412Q965 1344 927 1304T819 1264ZM319 1264Q249
1264 211 1304T172 1412Q172 1480 210 1521T319 1562Q388 1562 426 1521T464 1412Q464 1344 426 1304T319 1264Z" />
<glyph unicode="&#x2013;" horiz-adv-x="1203" d="M122 459V663H1081V459H122Z" />
<glyph unicode="&#x2014;" horiz-adv-x="2215" d="M60 464V659H2155V464H60Z" />
<glyph unicode="&#x2018;" horiz-adv-x="529" d="M124 1030L245 1543H438L400 1030H124Z" />
<glyph unicode="&#x2019;" horiz-adv-x="529" d="M124 1030L162 1543H438L318 1030H124Z" />
<glyph unicode="&#x201a;" horiz-adv-x="510" d="M103 -365L143 145H415L294 -365H103Z" />
<glyph unicode="&#x201c;" horiz-adv-x="960" d="M534 1030L655 1543H848L810 1030H534ZM124 1030L245 1543H438L400 1030H124Z" />
<glyph unicode="&#x201d;" horiz-adv-x="960" d="M534 1030L572 1543H848L727 1030H534ZM124 1030L162 1543H438L318 1030H124Z" />
<glyph unicode="&#x201e;" horiz-adv-x="920" d="M496 -365L535 145H807L687 -365H496ZM105 -365L145 145H416L296 -365H105Z" />
<glyph unicode="&#x2022;" horiz-adv-x="953" d="M464 361Q367 361 289 405T166 527T120 704Q120 803 167 881T294 1005T471 1051Q569 1051 646 1008T769 887T814 709Q814 609 768 531T642 407T464 361Z" />
<glyph unicode="&#x2039;" horiz-adv-x="792" d="M394 121L120 560L401 1010H689L422 558L684 121H394Z" />
<glyph unicode="&#x203a;" horiz-adv-x="847" d="M135 121L398 564L131 1025H418L703 567L425 121H135Z" />
</font>
</defs>
</svg>
